# BrickSuite developer Prepared OBJ
# Z-up millimetres; canonical nominal 100% scale
v 1.224639988 2.956480026 0.000000000
v 0.918480015 2.217359924 0.000000000
v 0.000000000 2.400000000 0.000000000
v 2.262719917 2.262719917 0.000000000
v 0.000000000 3.200000000 0.000000000
v 0.000000000 2.400000000 2.000000000
v 1.224639988 2.956480026 1.200000000
v 1.697039986 1.697039986 0.000000000
v 0.000000000 3.200000000 1.200000000
v -0.918480015 2.217359924 0.000000000
v 0.918480015 2.217359924 2.000000000
v -0.918480015 2.217359924 2.000000000
v 2.262719917 2.262719917 1.200000000
v 2.956480026 1.224639988 0.000000000
v -1.224639988 2.956480026 1.200000000
v -1.224639988 2.956480026 0.000000000
v 0.000000000 0.000000000 2.000000000
v 1.569200039 3.788399887 1.200000000
v 2.899600029 2.899600029 1.200000000
v 1.697039986 1.697039986 2.000000000
v 2.217359924 0.918480015 0.000000000
v -1.569200039 3.788399887 1.200000000
v -1.697039986 1.697039986 2.000000000
v -1.697039986 1.697039986 0.000000000
v 0.000000000 4.100400162 1.200000000
v 2.956480026 1.224639988 1.200000000
v 3.200000000 0.000000000 0.000000000
v -2.262719917 2.262719917 1.200000000
v -2.899600029 2.899600029 1.200000000
v -2.262719917 2.262719917 0.000000000
v 2.217359924 0.918480015 2.000000000
v -2.217359924 0.918480015 2.000000000
v 2.013599968 4.861600113 -1.400399971
v 0.000000000 5.262400055 -1.400399971
v 3.788399887 1.569200039 1.200000000
v 2.400000000 0.000000000 0.000000000
v -2.013599968 4.861600113 -1.400399971
v -2.217359924 0.918480015 0.000000000
v 2.400000000 0.000000000 2.000000000
v -2.400000000 0.000000000 2.000000000
v 3.720800018 3.720800018 -1.400399971
v 3.200000000 0.000000000 1.200000000
v 2.956480026 -1.224639988 0.000000000
v -2.956480026 1.224639988 1.200000000
v -3.720800018 3.720800018 -1.400399971
v -2.956480026 1.224639988 0.000000000
v 2.217359924 -0.918480015 2.000000000
v -2.217359924 -0.918480015 2.000000000
v 0.000000000 5.314799881 -9.465200043
v 2.034000015 4.910400009 -9.465200043
v 4.100400162 0.000000000 1.200000000
v 4.861600113 2.013599968 -1.400399971
v 2.217359924 -0.918480015 0.000000000
v -3.788399887 1.569200039 1.200000000
v -2.034000015 4.910400009 -9.465200043
v -2.400000000 0.000000000 0.000000000
v 1.697039986 -1.697039986 2.000000000
v -1.697039986 -1.697039986 2.000000000
v 3.758000183 3.758000183 -9.465200043
v 2.956480026 -1.224639988 1.200000000
v 3.788399887 -1.569200039 1.200000000
v 2.262719917 -2.262719917 0.000000000
v -3.200000000 0.000000000 1.200000000
v -4.861600113 2.013599968 -1.400399971
v -3.758000183 3.758000183 -9.465200043
v -3.200000000 0.000000000 0.000000000
v 0.918480015 -2.217359924 2.000000000
v 1.697039986 -1.697039986 0.000000000
v -0.918480015 -2.217359924 2.000000000
v -2.217359924 -0.918480015 0.000000000
v 1.765600014 5.820800018 -9.465200043
v 3.395600128 5.081999969 -9.465200043
v 5.262400055 0.000000000 -1.400399971
v 4.910400009 2.034000015 -9.465200043
v -4.100400162 0.000000000 1.200000000
v -1.765600014 5.820800018 -9.465200043
v -3.395600128 5.081999969 -9.465200043
v 0.000000000 -2.400000000 2.000000000
v 0.918480015 -2.217359924 0.000000000
v -1.697039986 -1.697039986 0.000000000
v 0.000000000 6.111999893 -9.465200043
v 5.081999969 3.395600128 -9.465200043
v 2.262719917 -2.262719917 1.200000000
v 2.899600029 -2.899600029 1.200000000
v 4.861600113 -2.013599968 -1.400399971
v 1.224639988 -2.956480026 0.000000000
v -2.956480026 -1.224639988 1.200000000
v -3.788399887 -1.569200039 1.200000000
v -5.262400055 0.000000000 -1.400399971
v -4.910400009 2.034000015 -9.465200043
v -5.081999969 3.395600128 -9.465200043
v -2.956480026 -1.224639988 0.000000000
v 0.000000000 -2.400000000 0.000000000
v -0.918480015 -2.217359924 0.000000000
v 1.992799950 6.452400208 -6.994799805
v 0.000000000 6.806800079 -6.951999664
v 3.781200027 5.636000061 -7.010399628
v 5.314799881 0.000000000 -9.465200043
v 5.947600174 1.178800011 -9.465200043
v -1.992799950 6.452400208 -6.994799805
v -3.781200027 5.636000061 -7.010399628
v 0.000000000 -3.200000000 0.000000000
v -2.262719917 -2.262719917 0.000000000
v 5.563199997 3.711999893 -6.991600037
v 1.224639988 -2.956480026 1.200000000
v 3.720800018 -3.720800018 -1.400399971
v 4.910400009 -2.034000015 -9.465200043
v -2.262719917 -2.262719917 1.200000000
v -2.899600029 -2.899600029 1.200000000
v -4.861600113 -2.013599968 -1.400399971
v -5.314799881 0.000000000 -9.465200043
v -5.947600174 1.178800011 -9.465200043
v -5.563199997 3.711999893 -6.991600037
v -1.224639988 -2.956480026 0.000000000
v 0.000000000 7.029599762 -4.439199829
v 2.007600021 6.637200165 -4.438399887
v 3.801599884 5.727999878 -4.417200089
v 1.569200039 -3.788399887 1.200000000
v 3.868000031 -3.583599854 -3.661999893
v 5.859600067 -1.177600002 -9.465200043
v 3.875199890 -3.568000031 -4.510400009
v 6.360400009 1.286800003 -6.970800018
v -2.007600021 6.637200165 -4.438399887
v -3.801599884 5.727999878 -4.417200089
v 0.000000000 -3.200000000 1.200000000
v -1.224639988 -2.956480026 1.200000000
v 5.539199829 3.739599991 -4.398799896
v 2.013599968 -4.861600113 -1.400399971
v 3.264400101 -4.137599945 -2.607200050
v 4.980799866 -3.359600067 -9.465200043
v 3.758000183 -3.758000183 -9.465200043
v -3.720800018 -3.720800018 -1.400399971
v -4.910400009 -2.034000015 -9.465200043
v -5.859600067 -1.177600002 -9.465200043
v -6.360400009 1.286800003 -6.970800018
v -5.539199829 3.739599991 -4.398799896
v 0.000000000 6.955999756 -2.026000023
v 1.938400078 6.494000244 -1.905200005
v 3.603599930 5.523199844 -1.886000061
v 0.000000000 -4.100400162 1.200000000
v 4.484799957 -3.754800034 -3.390000153
v 4.524399948 -3.678799820 -4.488000107
v 6.263999939 -1.100399971 -6.963999939
v 3.493999863 -3.976399994 -6.237599945
v 6.328799820 1.318400002 -4.409199905
v -1.569200039 -3.788399887 1.200000000
v -3.868000031 -3.583599854 -3.661999893
v -3.875199890 -3.568000031 -4.510400009
v -1.938400078 6.494000244 -1.905200005
v -3.603599930 5.523199844 -1.886000061
v 5.184000015 3.636000061 -1.870000076
v 0.000000000 -5.262400055 -1.400399971
v 1.852000046 -4.917599869 -2.415999985
v 3.615599823 -4.607600021 -2.374399948
v 3.947200012 -4.336399841 -6.669200134
v 5.360400009 -3.200000000 -6.949199677
v 4.259199905 -4.329600143 -9.498799896
v 2.485600090 -4.679600143 -7.059999847
v 6.012400055 1.358800030 -1.854400063
v -2.013599968 -4.861600113 -1.400399971
v -3.264400101 -4.137599945 -2.607200050
v -4.980799866 -3.359600067 -9.465200043
v -3.758000183 -3.758000183 -9.465200043
v -6.263999939 -1.100399971 -6.963999939
v -6.328799820 1.318400002 -4.409199905
v -5.184000015 3.636000061 -1.870000076
v 0.000000000 6.512799835 0.387599993
v 1.112800026 6.211999893 0.452799988
v 3.136000061 5.034400177 0.273200011
v 4.963600159 -3.284400177 -1.910000038
v 5.529999924 -2.833600044 -4.419200134
v 6.280799866 -0.942800045 -4.406800079
v 4.082400131 -4.572000122 -9.955599976
v 2.876000023 -4.456000137 -9.104799652
v 2.704400063 -5.285599899 -7.316799927
v 6.043999863 -0.809599972 -1.868400002
v -4.484799957 -3.754800034 -3.390000153
v -4.524399948 -3.678799820 -4.488000107
v -3.493999863 -3.976399994 -6.237599945
v -1.112800026 6.211999893 0.452799988
v -6.012400055 1.358800030 -1.854400063
v -3.136000061 5.034400177 0.273200011
v 4.458800125 3.460400009 0.360800004
v 5.272399902 1.357199955 0.585200024
v -1.852000046 -4.917599869 -2.415999985
v 0.000000000 -5.268399811 -2.473600006
v 2.195599937 -5.881999969 -2.165600014
v 3.225600052 -4.693600082 -0.150000000
v 3.542399979 -4.958800125 -11.255200195
v 3.128000069 -5.251599884 -8.051200104
v 2.210000038 -4.975199890 -11.626000214
v 1.486800003 -5.065999985 -9.129599762
v 1.216800022 -5.959199905 -7.350800323
v 5.380799866 -0.765199995 0.574399996
v -3.615599823 -4.607600021 -2.374399948
v -3.947200012 -4.336399841 -6.669200134
v -4.259199905 -4.329600143 -9.498799896
v -5.360400009 -3.200000000 -6.949199677
v -2.485600090 -4.679600143 -7.059999847
v -6.280799866 -0.942800045 -4.406800079
v -6.043999863 -0.809599972 -1.868400002
v -4.458800125 3.460400009 0.360800004
v -5.272399902 1.357199955 0.585200024
v 0.738399982 7.908799744 1.412800026
v 2.405999947 4.883599854 1.210400009
v 5.479999924 -2.554400063 -1.892000008
v 4.843199921 -2.926399994 0.602799988
v 3.693199921 -5.840399933 -10.980000305
v 3.779600143 -5.554399872 -9.752799988
v 1.620000076 -5.256000137 -11.484799957
v 1.160400009 -5.160400009 -7.219200134
v 1.441199970 -6.266799927 -7.910800171
v 2.563199997 -5.728400040 -8.055999756
v 5.133200073 -2.170800018 0.556400013
v -4.963600159 -3.284400177 -1.910000038
v -5.529999924 -2.833600044 -4.419200134
v -4.082400131 -4.572000122 -9.955599976
v -2.876000023 -4.456000137 -9.104799652
v -2.704400063 -5.285599899 -7.316799927
v -0.738399982 7.908799744 1.412800026
v -2.405999947 4.883599854 1.210400009
v -5.380799866 -0.765199995 0.574399996
v 1.243599987 5.995199966 2.529599953
v 0.000000000 7.948799896 1.372799969
v 1.549199963 4.839199829 1.804800034
v 3.155599976 3.192000008 1.865999985
v 3.766400146 -1.116800022 2.404000092
v -2.195599937 -5.881999969 -2.165600014
v 0.997200012 -8.103199768 -2.021999931
v 1.813599968 -5.958399963 -0.962800026
v 4.292800140 -3.143600082 1.471599960
v 2.490800095 -5.568799973 -11.837999725
v 3.049600029 -6.182799911 -11.522000122
v 0.000000000 -5.313199997 -9.144000244
v 0.000000000 -6.563600159 -7.896399689
v 0.000000000 -6.105199814 -7.336799622
v -3.225600052 -4.693600082 -0.150000000
v -3.542399979 -4.958800125 -11.255200195
v -3.128000069 -5.251599884 -8.051200104
v -2.210000038 -4.975199890 -11.626000214
v -1.486800003 -5.065999985 -9.129599762
v -1.216800022 -5.959199905 -7.350800323
v -1.243599987 5.995199966 2.529599953
v -1.549199963 4.839199829 1.804800034
v -5.479999924 -2.554400063 -1.892000008
v -5.133200073 -2.170800018 0.556400013
v -3.155599976 3.192000008 1.865999985
v -3.766400146 -1.116800022 2.404000092
v 0.717600012 8.626799774 3.124399948
v 3.637200165 1.089999962 2.327199936
v -0.997200012 -8.103199768 -2.021999931
v 0.859200001 -8.142400360 -1.347599983
v 0.000000000 -9.150399780 -1.964800072
v 1.851199913 -5.132400131 1.206000042
v 3.326399994 -3.704800034 1.978800011
v 2.549200058 -6.499600220 -9.930000305
v 1.854000092 -5.959600067 -11.748400116
v 0.000000000 -5.300000000 -7.223999786
v 0.000000000 -5.445999908 -9.604799652
v 0.000000000 -6.922799683 -8.557199860
v -4.843199921 -2.926399994 0.602799988
v -3.693199921 -5.840399933 -10.980000305
v -3.779600143 -5.554399872 -9.752799988
v -1.620000076 -5.256000137 -11.484799957
v -1.160400009 -5.160400009 -7.219200134
v -1.441199970 -6.266799927 -7.910800171
v -2.563199997 -5.728400040 -8.055999756
v -0.717600012 8.626799774 3.124399948
v -4.292800140 -3.143600082 1.471599960
v -3.637200165 1.089999962 2.327199936
v 1.228800011 5.387599945 4.202000046
v 0.761199999 8.374800110 3.891999817
v 0.000000000 8.626799774 3.124399948
v 1.549600029 3.037999916 2.912000084
v 3.493600082 -3.084799957 2.121199989
v 1.550000000 0.754400015 3.468000031
v -0.859200001 -8.142400360 -1.347599983
v 0.573199987 -8.835600281 -1.973999977
v 1.019600010 -6.063600159 -0.052399999
v 2.164800072 -6.609200287 -11.460800171
v 1.208399963 -7.098000336 -10.120800018
v -1.813599968 -5.958399963 -0.962800026
v -2.490800095 -5.568799973 -11.837999725
v -3.049600029 -6.182799911 -11.522000122
v -1.228800011 5.387599945 4.202000046
v -0.761199999 8.374800110 3.891999817
v -1.549600029 3.037999916 2.912000084
v -3.493600082 -3.084799957 2.121199989
v -1.550000000 0.754400015 3.468000031
v 1.368000031 3.479999924 4.366799927
v 1.135999966 5.843199921 3.980400085
v 0.781599998 7.775599670 4.388800049
v 0.000000000 8.414800262 3.891999817
v 1.550000000 -1.606399918 3.397600174
v -0.573199987 -8.835600281 -1.973999977
v 0.531199980 -8.768800354 -1.467199993
v 0.338400006 -8.862000275 -1.261999989
v 0.476399994 -8.227600098 -0.923600006
v 1.201599979 -5.000000000 1.940399933
v 1.427200031 -3.545600128 2.810000038
v 0.759999990 -6.447200012 -10.612000275
v -1.854000092 -5.959600067 -11.748400116
v 0.000000000 -6.175600052 -9.713200378
v -1.208399963 -7.098000336 -10.120800018
v -1.851199913 -5.132400131 1.206000042
v -3.326399994 -3.704800034 1.978800011
v -2.549200058 -6.499600220 -9.930000305
v -1.368000031 3.479999924 4.366799927
v -1.135999966 5.843199921 3.980400085
v -0.781599998 7.775599670 4.388800049
v -1.550000000 -1.606399918 3.397600174
v 1.166800022 5.184000015 4.703599930
v 0.882400036 7.024800110 4.441199875
v 0.000000000 5.430400085 4.286399841
v 0.000000000 7.863999939 4.375199890
v 1.422799969 0.892000008 5.080400085
v -0.338400006 -8.862000275 -1.261999989
v -1.019600010 -6.063600159 -0.052399999
v -0.531199980 -8.768800354 -1.467199993
v 0.000000000 -8.971600342 -1.185200024
v 0.000000000 -8.291999817 -0.695599985
v 0.000000000 -6.146799850 0.426399994
v 1.260799980 -4.745600128 2.168000031
v -0.759999990 -6.447200012 -10.612000275
v -2.164800072 -6.609200287 -11.460800171
v -1.166800022 5.184000015 4.703599930
v -0.882400036 7.024800110 4.441199875
v -1.422799969 0.892000008 5.080400085
v -1.427200031 -3.545600128 2.810000038
v 1.243200016 3.699599838 5.083599854
v 0.000000000 5.277999878 4.546799850
v 0.000000000 5.822399902 4.072399902
v 0.000000000 7.024800110 4.499599838
v 1.221599960 1.688400078 5.677199936
v 1.356799984 -1.832799911 4.979999924
v -0.476399994 -8.227600098 -0.923600006
v 0.000000000 -5.300400162 1.769199944
v 0.000000000 -4.988399887 2.292000008
v 1.205599976 -4.069599915 4.315599823
v -1.201599979 -5.000000000 1.940399933
v -1.243200016 3.699599838 5.083599854
v -1.221599960 1.688400078 5.677199936
v -1.260799980 -4.745600128 2.168000031
v -1.356799984 -1.832799911 4.979999924
v 1.189599991 2.071599960 5.772000122
v 0.945199966 4.122399902 6.431999969
v 0.863199997 5.545999908 5.893199921
v 1.188399982 1.167599964 6.006399918
v 0.939999962 -5.560800171 3.673199844
v -1.189599991 2.071599960 5.772000122
v -0.945199966 4.122399902 6.431999969
v -0.863199997 5.545999908 5.893199921
v -1.188399982 1.167599964 6.006399918
v -1.205599976 -4.069599915 4.315599823
v 0.000000000 5.608000183 5.893199921
v 0.000000000 1.213199997 6.083200073
v 0.000000000 1.656399918 5.784000015
v 1.213199997 -2.465600014 5.450000000
v 1.240400028 -2.114399910 5.674800110
v 0.000000000 -5.658399963 3.673199844
v 0.720800018 -5.813600159 5.329999924
v -0.939999962 -5.560800171 3.673199844
v -1.213199997 -2.465600014 5.450000000
v -1.240400028 -2.114399910 5.674800110
v 0.956000042 2.723200035 6.647599792
v 0.746400023 5.323600006 6.541200256
v 0.000000000 5.420399857 6.541200256
v 0.000000000 0.997200012 7.395999908
v 0.000000000 1.978400040 5.854399872
v 1.000399971 -3.676399994 6.169599915
v 0.947200012 0.951599979 7.395999908
v 0.916399956 -4.793199921 5.715999985
v -0.956000042 2.723200035 6.647599792
v -0.746400023 5.323600006 6.541200256
v -0.720800018 -5.813600159 5.329999924
v -1.000399971 -3.676399994 6.169599915
v -0.947200012 0.951599979 7.395999908
v 0.745200014 4.334400177 7.191200256
v 0.000000000 -2.521599960 5.532400131
v 0.000000000 -3.573600006 6.169599915
v 0.977600002 -1.789200020 7.204000092
v 0.000000000 -5.843199921 5.329999924
v 0.687599993 -5.629600143 5.858800125
v -0.745200014 4.334400177 7.191200256
v -0.916399956 -4.793199921 5.715999985
v -0.977600002 -1.789200020 7.204000092
v 0.000000000 2.646400070 6.647599792
v 0.809200001 3.124799919 7.063600159
v 0.000000000 4.334400177 7.272799683
v 0.000000000 0.533199978 8.004799652
v 0.000000000 -2.228800011 5.724800110
v 0.857999992 -4.106399918 6.431199646
v 0.000000000 -4.106399918 6.498400116
v 0.838399982 0.479199982 8.003199768
v 0.000000000 -5.693600082 5.858800125
v 0.723199987 -5.006800079 6.427600098
v -0.809200001 3.124799919 7.063600159
v -0.687599993 -5.629600143 5.858800125
v -0.857999992 -4.106399918 6.431199646
v -0.838399982 0.479199982 8.003199768
v 0.828800011 -1.439599991 7.802400208
v 0.000000000 -1.860400009 7.204000092
v 0.000000000 -5.037200165 6.514399719
v -0.723199987 -5.006800079 6.427600098
v -0.828800011 -1.439599991 7.802400208
v 0.000000000 3.124799919 7.063600159
v 0.000000000 -0.444000006 8.274800110
v 0.765199995 -0.444000006 8.240399933
v -0.765199995 -0.444000006 8.240399933
v 0.000000000 -1.439599991 7.802400208
f 1 2 3
f 4 2 1
f 1 3 5
f 2 6 3
f 4 1 7
f 4 8 2
f 1 5 9
f 5 3 10
f 2 11 6
f 3 6 12
f 1 9 7
f 4 7 13
f 8 11 2
f 14 8 4
f 5 15 9
f 3 12 10
f 5 10 16
f 17 6 11
f 17 12 6
f 18 7 9
f 14 4 13
f 7 19 13
f 8 20 11
f 14 21 8
f 5 16 15
f 22 9 15
f 10 12 23
f 16 10 24
f 17 11 20
f 17 23 12
f 7 18 19
f 18 9 25
f 14 13 26
f 13 19 26
f 21 20 8
f 27 21 14
f 16 28 15
f 22 25 9
f 15 29 22
f 10 23 24
f 16 24 30
f 17 20 31
f 17 32 23
f 33 19 18
f 34 18 25
f 27 14 26
f 26 19 35
f 21 31 20
f 27 36 21
f 16 30 28
f 15 28 29
f 34 25 22
f 37 22 29
f 24 23 32
f 30 24 38
f 17 31 39
f 17 40 32
f 34 33 18
f 33 41 19
f 27 26 42
f 26 35 42
f 41 35 19
f 36 31 21
f 43 36 27
f 30 44 28
f 28 44 29
f 34 22 37
f 37 29 45
f 24 32 38
f 30 38 46
f 17 39 47
f 36 39 31
f 17 48 40
f 38 32 40
f 33 34 49
f 41 33 50
f 43 27 42
f 42 35 51
f 41 52 35
f 43 53 36
f 30 46 44
f 44 54 29
f 37 49 34
f 45 29 54
f 45 55 37
f 46 38 56
f 17 47 57
f 53 47 39
f 53 39 36
f 17 58 48
f 56 40 48
f 38 40 56
f 33 49 50
f 41 50 59
f 43 42 60
f 42 51 61
f 52 51 35
f 52 41 59
f 62 53 43
f 46 63 44
f 44 63 54
f 37 55 49
f 45 54 64
f 45 65 55
f 46 56 66
f 17 57 67
f 68 57 47
f 68 47 53
f 17 69 58
f 70 48 58
f 56 48 70
f 71 50 49
f 50 72 59
f 62 43 60
f 60 42 61
f 73 61 51
f 52 73 51
f 52 59 74
f 62 68 53
f 46 66 63
f 63 75 54
f 76 49 55
f 64 54 75
f 64 65 45
f 55 65 77
f 66 56 70
f 17 67 78
f 79 67 57
f 79 57 68
f 17 78 69
f 80 58 69
f 70 58 80
f 50 71 72
f 71 49 81
f 59 72 82
f 62 60 83
f 60 61 84
f 73 85 61
f 73 52 74
f 59 82 74
f 86 68 62
f 66 87 63
f 63 88 75
f 76 81 49
f 55 77 76
f 64 75 89
f 64 90 65
f 65 91 77
f 66 70 92
f 93 78 67
f 93 67 79
f 86 79 68
f 94 69 78
f 80 69 94
f 92 70 80
f 95 72 71
f 71 81 96
f 97 82 72
f 86 62 83
f 83 60 84
f 85 84 61
f 85 73 98
f 73 74 98
f 74 82 99
f 66 92 87
f 87 88 63
f 89 75 88
f 76 96 81
f 100 76 77
f 89 90 64
f 65 90 91
f 101 77 91
f 94 78 93
f 102 93 79
f 102 79 86
f 103 80 94
f 92 80 103
f 71 96 95
f 95 97 72
f 104 82 97
f 86 83 105
f 83 84 105
f 85 106 84
f 85 98 107
f 74 99 98
f 104 99 82
f 92 108 87
f 87 109 88
f 89 88 110
f 76 100 96
f 100 77 101
f 89 111 90
f 90 112 91
f 113 101 91
f 114 94 93
f 114 93 102
f 102 86 105
f 103 94 114
f 92 103 108
f 96 115 95
f 95 116 97
f 117 104 97
f 105 84 118
f 106 118 84
f 119 106 85
f 98 120 107
f 85 107 121
f 98 99 120
f 122 99 104
f 108 109 87
f 110 88 109
f 110 111 89
f 96 100 115
f 100 101 123
f 90 111 112
f 113 91 112
f 124 101 113
f 114 102 125
f 102 105 125
f 103 114 126
f 103 126 108
f 95 115 116
f 117 97 116
f 127 104 117
f 105 118 125
f 106 128 118
f 129 106 119
f 121 119 85
f 107 120 130
f 121 107 131
f 120 99 122
f 122 104 127
f 108 126 109
f 110 109 132
f 110 133 111
f 100 123 115
f 124 123 101
f 111 134 112
f 135 113 112
f 136 124 113
f 114 125 126
f 115 137 116
f 116 138 117
f 117 139 127
f 140 125 118
f 128 140 118
f 106 129 128
f 119 141 129
f 142 119 121
f 120 143 130
f 107 130 131
f 131 144 121
f 120 122 143
f 122 127 145
f 126 146 109
f 132 109 146
f 147 110 132
f 111 133 134
f 110 148 133
f 115 123 137
f 123 124 149
f 134 135 112
f 135 136 113
f 124 136 150
f 126 125 146
f 138 116 137
f 138 139 117
f 139 151 127
f 140 146 125
f 128 152 140
f 128 129 153
f 154 129 141
f 141 119 142
f 142 121 155
f 143 156 130
f 130 157 131
f 158 144 131
f 144 155 121
f 122 145 143
f 159 145 127
f 132 146 160
f 161 147 132
f 148 110 147
f 133 162 134
f 148 163 133
f 149 137 123
f 149 124 150
f 134 164 135
f 135 165 136
f 150 136 166
f 137 167 138
f 168 139 138
f 139 169 151
f 127 151 159
f 160 146 140
f 160 140 152
f 128 153 152
f 129 154 153
f 141 170 154
f 141 142 171
f 171 142 155
f 130 156 157
f 143 172 156
f 157 173 131
f 174 158 131
f 158 175 144
f 144 175 155
f 172 143 145
f 145 159 176
f 132 160 161
f 147 161 177
f 178 148 147
f 133 163 162
f 134 162 164
f 163 148 179
f 137 149 167
f 180 149 150
f 135 164 165
f 181 136 165
f 150 166 182
f 136 181 166
f 167 168 138
f 169 139 168
f 183 151 169
f 184 159 151
f 160 152 185
f 153 186 152
f 187 153 154
f 171 170 141
f 188 154 170
f 171 155 156
f 156 155 157
f 171 156 172
f 131 173 189
f 190 173 157
f 174 131 191
f 158 174 192
f 158 193 175
f 155 175 190
f 176 172 145
f 194 176 159
f 160 185 161
f 195 177 161
f 177 178 147
f 178 196 148
f 162 163 197
f 164 162 198
f 199 163 179
f 179 148 196
f 167 149 180
f 182 180 150
f 200 165 164
f 165 201 181
f 202 182 166
f 203 166 181
f 204 168 167
f 205 169 168
f 151 183 184
f 183 169 205
f 159 184 194
f 185 152 186
f 153 187 186
f 188 187 154
f 171 206 170
f 170 207 188
f 190 157 155
f 206 171 172
f 189 191 131
f 208 189 173
f 209 173 190
f 191 210 174
f 192 211 158
f 210 192 174
f 193 212 175
f 211 193 158
f 190 175 213
f 172 176 206
f 176 194 214
f 161 185 195
f 177 195 215
f 177 216 178
f 216 196 178
f 197 163 217
f 162 197 198
f 164 198 200
f 218 163 199
f 199 179 219
f 179 196 219
f 220 167 180
f 221 180 182
f 201 165 200
f 222 181 201
f 166 203 202
f 202 221 182
f 181 222 203
f 204 223 168
f 167 224 204
f 225 205 168
f 184 183 226
f 226 183 205
f 227 194 184
f 185 186 228
f 229 186 187
f 230 187 188
f 207 170 206
f 231 188 207
f 189 232 191
f 173 209 208
f 189 208 233
f 190 213 209
f 191 232 210
f 211 192 234
f 234 192 210
f 212 193 235
f 212 213 175
f 211 236 193
f 214 206 176
f 231 214 194
f 228 195 185
f 216 177 215
f 237 215 195
f 216 198 196
f 163 238 217
f 239 197 217
f 198 197 196
f 216 200 198
f 218 240 163
f 199 241 218
f 199 219 242
f 196 239 219
f 167 220 224
f 220 180 243
f 244 180 221
f 200 245 201
f 201 246 222
f 203 247 202
f 247 221 202
f 248 203 222
f 223 225 168
f 223 204 249
f 249 204 224
f 226 205 225
f 250 184 226
f 194 227 231
f 184 250 227
f 251 228 186
f 252 229 187
f 229 253 186
f 187 230 252
f 188 254 230
f 206 214 207
f 214 231 207
f 231 255 188
f 233 232 189
f 208 209 256
f 256 233 208
f 209 213 256
f 257 210 232
f 234 258 211
f 210 259 234
f 235 193 236
f 235 260 212
f 212 256 213
f 258 236 211
f 237 195 228
f 216 215 245
f 215 237 261
f 238 163 240
f 262 217 238
f 239 196 197
f 263 239 217
f 245 200 216
f 240 218 264
f 241 199 265
f 264 218 241
f 242 219 266
f 265 199 242
f 239 267 219
f 268 224 220
f 243 180 244
f 243 268 220
f 247 244 221
f 246 201 245
f 269 222 246
f 270 247 203
f 222 269 248
f 203 248 270
f 225 223 271
f 249 272 223
f 224 273 249
f 274 226 225
f 250 226 274
f 227 275 231
f 227 250 276
f 251 186 253
f 277 228 251
f 229 252 278
f 278 253 229
f 252 230 279
f 230 254 279
f 188 255 254
f 255 231 275
f 232 233 280
f 280 233 256
f 257 259 210
f 280 257 232
f 234 265 258
f 264 234 259
f 235 236 242
f 212 260 281
f 235 266 260
f 256 212 281
f 258 265 236
f 282 237 228
f 261 245 215
f 269 261 237
f 238 240 283
f 217 262 263
f 238 284 262
f 239 263 267
f 240 264 283
f 265 234 241
f 234 264 241
f 266 235 242
f 266 219 267
f 265 242 236
f 224 268 273
f 244 285 243
f 268 243 286
f 287 244 247
f 245 261 246
f 246 261 269
f 270 287 247
f 248 269 288
f 248 289 270
f 290 225 271
f 223 291 271
f 272 292 223
f 272 249 293
f 249 273 293
f 290 274 225
f 276 250 274
f 227 294 275
f 294 227 276
f 295 251 253
f 228 277 282
f 251 295 277
f 252 296 278
f 297 253 278
f 252 279 298
f 279 254 299
f 255 299 254
f 275 300 255
f 281 280 256
f 301 259 257
f 301 257 280
f 302 264 259
f 260 303 281
f 266 304 260
f 305 237 282
f 269 237 306
f 284 238 283
f 262 307 263
f 307 262 284
f 263 307 267
f 302 283 264
f 266 267 307
f 268 293 273
f 308 285 244
f 243 285 309
f 286 243 310
f 286 293 268
f 308 244 287
f 289 287 270
f 306 288 269
f 248 288 311
f 311 289 248
f 271 312 290
f 223 313 291
f 271 291 314
f 292 313 223
f 292 272 315
f 272 293 315
f 274 290 316
f 316 276 274
f 275 294 300
f 294 276 316
f 317 295 253
f 277 318 282
f 277 295 319
f 278 296 297
f 297 296 252
f 253 297 320
f 321 298 279
f 252 298 297
f 322 279 299
f 299 255 323
f 255 300 323
f 281 301 280
f 303 259 301
f 324 302 259
f 260 304 303
f 303 301 281
f 307 304 266
f 305 282 318
f 306 237 305
f 283 325 284
f 325 307 284
f 325 283 302
f 285 308 326
f 243 309 327
f 285 314 309
f 310 243 327
f 310 315 286
f 286 315 293
f 287 328 308
f 328 287 289
f 288 306 329
f 288 329 311
f 311 328 289
f 290 312 330
f 312 271 331
f 291 313 332
f 314 331 271
f 291 332 314
f 313 292 333
f 315 333 292
f 316 290 334
f 300 294 335
f 335 294 316
f 253 320 317
f 295 317 319
f 277 336 318
f 317 277 319
f 321 320 297
f 279 322 321
f 298 321 297
f 299 337 322
f 299 323 338
f 323 300 339
f 303 324 259
f 324 325 302
f 303 304 324
f 304 307 325
f 305 318 340
f 340 306 305
f 308 341 326
f 326 331 285
f 309 332 327
f 314 285 331
f 309 314 332
f 327 333 310
f 315 310 333
f 328 342 308
f 306 343 329
f 329 344 311
f 344 328 311
f 345 290 330
f 346 330 312
f 347 312 331
f 333 332 313
f 348 316 334
f 345 334 290
f 300 335 339
f 335 316 348
f 321 317 320
f 321 318 336
f 277 317 336
f 318 321 322
f 299 338 337
f 340 322 337
f 323 349 338
f 349 323 339
f 304 325 324
f 322 340 318
f 340 343 306
f 350 341 308
f 351 326 341
f 352 331 326
f 333 327 332
f 353 342 328
f 350 308 342
f 343 354 329
f 329 354 344
f 344 353 328
f 345 330 346
f 312 347 346
f 331 355 347
f 348 334 356
f 334 345 357
f 335 358 339
f 348 359 335
f 336 317 321
f 340 337 338
f 360 338 349
f 339 361 349
f 340 338 343
f 350 351 341
f 326 351 352
f 331 352 355
f 353 356 342
f 342 357 350
f 362 354 343
f 344 354 363
f 353 344 364
f 365 345 346
f 346 347 366
f 347 355 367
f 368 348 356
f 334 357 356
f 345 369 357
f 358 335 359
f 358 370 339
f 348 371 359
f 360 362 338
f 349 361 360
f 339 372 361
f 343 338 362
f 373 351 350
f 351 374 352
f 352 367 355
f 368 356 353
f 342 356 357
f 350 357 369
f 354 362 375
f 363 354 376
f 363 364 344
f 353 364 377
f 345 365 369
f 365 346 378
f 366 347 367
f 346 366 378
f 368 371 348
f 379 358 359
f 370 372 339
f 370 358 380
f 371 381 359
f 362 360 375
f 382 360 361
f 383 361 372
f 350 369 373
f 373 384 351
f 374 367 352
f 351 384 374
f 368 353 377
f 354 375 385
f 376 354 385
f 376 380 363
f 379 364 363
f 377 364 386
f 387 369 365
f 388 365 378
f 367 389 366
f 378 366 389
f 371 368 390
f 358 379 380
f 379 359 391
f 370 392 372
f 370 380 393
f 371 394 381
f 359 381 391
f 382 375 360
f 395 382 361
f 361 383 395
f 372 396 383
f 387 373 369
f 397 384 373
f 367 374 389
f 384 389 374
f 377 390 368
f 398 385 375
f 376 385 399
f 376 393 380
f 363 380 379
f 379 391 364
f 377 386 400
f 364 391 386
f 365 388 387
f 388 378 389
f 394 371 390
f 392 370 393
f 372 392 396
f 401 381 394
f 402 391 381
f 395 375 382
f 403 395 383
f 383 396 403
f 373 387 397
f 397 389 384
f 400 390 377
f 375 395 398
f 385 398 404
f 399 393 376
f 385 404 399
f 405 400 386
f 402 386 391
f 388 406 387
f 389 406 388
f 390 407 394
f 403 392 393
f 396 392 403
f 381 401 402
f 408 401 394
f 403 398 395
f 397 387 406
f 389 397 406
f 390 400 407
f 398 403 404
f 403 393 399
f 404 403 399
f 386 402 405
f 409 400 405
f 408 394 407
f 401 410 402
f 401 408 407
f 409 407 400
f 405 402 410
f 405 407 409
f 407 410 401
f 407 405 410
