# BrickSuite developer Prepared OBJ
# Z-up millimetres; canonical nominal 100% scale
v 4.000000000 8.000000000 6.400000000
v 4.000000000 8.000000000 3.200000000
v -4.000000000 8.000000000 3.200000000
v 4.000000000 0.000000000 3.200000000
v -4.000000000 8.000000000 6.400000000
v 2.400000000 6.400000000 3.200000000
v 4.000000000 -8.000000000 1.600000000
v 2.400000000 0.000000000 3.200000000
v 4.000000000 5.046400070 6.260958862
v -4.000000000 0.000000000 3.200000000
v -2.400000000 6.400000000 3.200000000
v 4.000000000 -5.774399948 3.012629890
v 4.000000000 0.000000000 0.000000000
v -4.000000000 5.046400070 6.260958862
v -4.000000000 -8.000000000 1.600000000
v 2.400000000 1.600000000 4.000000000
v 2.400000000 6.400000000 4.800000000
v -4.000000000 -5.774399948 3.012629890
v 4.000000000 -8.000000000 0.000000000
v 0.600000000 0.000000000 3.200000000
v 4.000000000 -3.313600159 4.203954315
v 4.000000000 2.144000053 5.841445923
v -2.400000000 0.000000000 3.200000000
v -4.000000000 -8.000000000 0.000000000
v 2.400000000 4.000000000 4.800000000
v 2.400000000 0.000000000 4.000000000
v -2.400000000 6.400000000 4.800000000
v -4.000000000 -3.313600159 4.203954315
v 2.400000000 -1.600000000 0.000000000
v -0.600000000 0.000000000 3.200000000
v -4.000000000 2.144000053 5.841445923
v -2.400000000 0.000000000 4.000000000
v -4.000000000 0.000000000 0.000000000
v 2.217359924 3.081520081 4.493840027
v 0.600000000 1.600000000 4.000000000
v -2.400000000 4.000000000 4.800000000
v -2.400000000 -1.600000000 0.000000000
v 2.400000000 -6.400000000 0.000000000
v 0.600000000 0.000000000 4.000000000
v -0.600000000 1.600000000 3.200000000
v 4.000000000 -0.659200191 5.153073883
v -4.000000000 -0.659200191 5.153073883
v -2.400000000 1.600000000 4.000000000
v -2.400000000 -6.400000000 0.000000000
v 2.217359924 3.081520081 4.800000000
v 1.697039986 2.302960014 4.234320068
v 0.918480015 1.782640076 4.060879898
v -2.217359924 3.081520081 4.800000000
v 2.400000000 -1.600000000 2.800000000
v 2.400000000 -4.000000000 1.600000000
v 0.600000000 1.600000000 3.200000000
v -0.600000000 1.600000000 4.000000000
v -0.600000000 0.000000000 4.000000000
v 1.697039986 2.302960014 4.800000000
v 0.000000000 1.600000000 4.000000000
v -2.217359924 3.081520081 4.493840027
v -2.400000000 -1.600000000 2.800000000
v 2.400000000 -6.400000000 0.800000000
v -0.918480015 1.782640076 4.060879898
v -2.400000000 -6.400000000 0.800000000
v -1.697039986 2.302960014 4.800000000
v 0.918480015 1.782640076 4.800000000
v 0.000000000 1.600000000 4.800000000
v -1.697039986 2.302960014 4.234320068
v -2.400000000 -4.000000000 1.600000000
v 2.217359924 -4.918479919 1.293840027
v 0.000000000 -6.400000000 0.800000000
v -0.918480015 1.782640076 4.800000000
v -2.217359924 -4.918479919 1.600000000
v 2.217359924 -4.918479919 1.600000000
v 1.697039986 -5.697039795 1.034320068
v -2.217359924 -4.918479919 1.293840027
v -0.918480015 -6.217359924 0.860879993
v 0.918480015 -6.217359924 0.860879993
v 1.697039986 -5.697039795 1.600000000
v -1.697039986 -5.697039795 1.034320068
v 0.000000000 -6.400000000 1.600000000
v -1.697039986 -5.697039795 1.600000000
v 0.918480015 -6.217359924 1.600000000
v -0.918480015 -6.217359924 1.600000000
f 1 2 3
f 1 4 2
f 1 3 5
f 6 3 2
f 4 1 7
f 2 4 8
f 5 9 1
f 5 3 10
f 2 8 6
f 6 11 3
f 1 12 7
f 13 4 7
f 13 8 4
f 1 9 12
f 5 14 9
f 11 10 3
f 15 5 10
f 16 6 8
f 11 6 17
f 18 7 12
f 13 7 19
f 20 8 13
f 9 21 12
f 5 18 14
f 14 22 9
f 11 23 10
f 5 15 18
f 24 15 10
f 6 16 25
f 16 8 26
f 6 25 17
f 11 17 27
f 18 15 7
f 28 18 12
f 29 13 19
f 15 19 7
f 26 8 20
f 30 20 13
f 9 22 21
f 28 12 21
f 14 18 28
f 14 31 22
f 32 23 11
f 10 23 33
f 24 10 33
f 15 24 19
f 25 16 34
f 26 35 16
f 17 25 36
f 36 11 27
f 17 36 27
f 37 13 29
f 29 19 38
f 26 20 39
f 40 20 30
f 30 13 33
f 22 41 21
f 42 28 21
f 14 28 31
f 31 41 22
f 32 11 43
f 32 30 23
f 33 23 30
f 44 24 33
f 38 19 24
f 34 45 25
f 34 16 46
f 16 35 47
f 26 39 35
f 48 36 25
f 36 43 11
f 37 33 13
f 49 37 29
f 38 50 29
f 51 39 20
f 30 52 40
f 40 51 20
f 42 21 41
f 31 28 42
f 31 42 41
f 32 43 52
f 32 53 30
f 44 33 37
f 38 24 44
f 48 25 45
f 34 54 45
f 46 16 47
f 34 46 54
f 35 55 47
f 51 35 39
f 56 36 48
f 56 43 36
f 49 57 37
f 50 49 29
f 38 58 50
f 30 53 52
f 52 55 40
f 40 35 51
f 52 43 59
f 32 52 53
f 37 60 44
f 58 38 44
f 61 48 45
f 61 45 54
f 46 47 62
f 46 62 54
f 47 55 63
f 55 35 40
f 56 48 61
f 64 43 56
f 37 57 65
f 49 65 57
f 49 50 65
f 50 58 66
f 55 52 59
f 59 43 64
f 37 65 60
f 60 67 44
f 67 58 44
f 68 61 54
f 47 63 62
f 68 54 62
f 59 63 55
f 56 61 64
f 69 65 50
f 66 70 50
f 66 58 71
f 64 68 59
f 72 60 65
f 67 60 73
f 74 58 67
f 64 61 68
f 63 68 62
f 59 68 63
f 72 65 69
f 69 50 70
f 66 75 70
f 71 58 74
f 66 71 75
f 76 60 72
f 73 60 76
f 73 77 67
f 74 67 77
f 72 69 78
f 78 69 70
f 78 70 75
f 71 74 79
f 71 79 75
f 72 78 76
f 76 80 73
f 73 80 77
f 74 77 79
f 80 78 75
f 80 75 79
f 76 78 80
f 77 80 79
