# BrickSuite developer Prepared OBJ
# Z-up millimetres; canonical nominal 100% scale
v 14.400000000 -2.650794251 -1.600000000
v 10.956423085 -1.224465336 -1.600000000
v 10.956435290 -1.224403957 -1.600000000
v 11.199930472 0.000113274 -1.600000000
v 11.199906062 0.000236031 -1.600000000
v 10.956410880 1.224753262 -1.600000000
v 14.400000000 6.400000000 -1.600000000
v 10.956341338 1.224857318 -1.600000000
v 10.262650199 2.262833191 -1.600000000
v 10.262546142 2.262902733 -1.600000000
v 9.224570365 2.956593300 -1.600000000
v 9.224447608 2.956617710 -1.600000000
v 7.999930472 3.200113274 -1.600000000
v 7.999807715 3.200088863 -1.600000000
v 6.775290579 2.956593300 -1.600000000
v -7.451275543 6.400000000 -1.600000000
v 6.775186523 2.956523758 -1.600000000
v 5.737210745 2.262833191 -1.600000000
v 5.737141203 2.262729134 -1.600000000
v 1.815169794 2.561889340 -1.600000000
v 1.224570460 2.956593300 -1.600000000
v 1.224447703 2.956617710 -1.600000000
v 0.527635335 3.095179027 -1.600000000
v 5.043450446 1.224753262 -1.600000000
v 1.815363683 2.561759762 -1.600000000
v 5.043438241 1.224691883 -1.600000000
v 0.527438337 3.095218200 -1.600000000
v 5.782570548 0.918593288 -1.600000000
v 6.302838521 1.697075217 -1.600000000
v 5.782561386 0.918547214 -1.600000000
v 10.217308704 -0.918274673 -1.600000000
v 10.399912164 0.000205341 -1.600000000
v 9.696892225 1.697205416 -1.600000000
v 7.999838404 2.400094966 -1.600000000
v 7.081372510 2.217421041 -1.600000000
v 6.302890677 1.697153259 -1.600000000
v 7.081450553 2.217473198 -1.600000000
v 8.918318324 2.217491506 -1.600000000
v 8.918410391 2.217473198 -1.600000000
v 7.999930472 2.400113274 -1.600000000
v 10.217238240 0.918671331 -1.600000000
v 10.217290396 0.918593288 -1.600000000
v 9.696970267 1.697153259 -1.600000000
v 10.399930472 0.000113274 -1.600000000
v 10.217299587 -0.918320521 -1.600000000
v -14.400000000 6.400000000 -1.600000000
v 14.400000000 6.400000000 -9.600000000
v -6.753355552 2.941840949 -1.600000000
v -6.775429635 2.956593300 -1.600000000
v -6.775552392 2.956617710 -1.600000000
v -6.794251830 2.960336098 -1.600000000
v -2.910552607 1.293578936 -1.600000000
v -2.956549554 1.224753262 -1.600000000
v -6.752941746 2.941564397 -1.600000000
v -2.956573964 1.224630504 -1.600000000
v -6.794602754 2.960405880 -1.600000000
v -5.005179501 1.031592834 -1.600000000
v -5.043589502 1.224753262 -1.600000000
v -5.043659044 1.224857318 -1.600000000
v -5.737349801 2.262833191 -1.600000000
v -5.737453858 2.262902733 -1.600000000
v -3.200069528 0.000113274 -1.600000000
v -8.000069528 3.200113274 -1.600000000
v -8.000192285 3.200088863 -1.600000000
v -8.593592611 3.082091048 -1.600000000
v -9.224709421 2.956593300 -1.600000000
v -9.224813477 2.956523758 -1.600000000
v -10.262789255 2.262833191 -1.600000000
v -10.262858797 2.262729134 -1.600000000
v -10.956549936 1.224753262 -1.600000000
v -10.956562096 1.224692107 -1.600000000
v -14.400000000 2.650963634 -1.600000000
v -5.005187693 -1.031407481 -1.600000000
v -4.800069528 0.000113274 -1.600000000
v -4.800093938 0.000236031 -1.600000000
v -10.217429452 0.918593288 -1.600000000
v -9.697161479 1.697075217 -1.600000000
v -9.697109323 1.697153259 -1.600000000
v -8.918627490 2.217421041 -1.600000000
v -8.918549447 2.217473198 -1.600000000
v -8.000161596 2.400094966 -1.600000000
v -8.000069528 2.400113274 -1.600000000
v -7.081681676 2.217491506 -1.600000000
v -7.081589609 2.217473198 -1.600000000
v -6.303107775 1.697205416 -1.600000000
v -6.303029733 1.697153259 -1.600000000
v -5.782761760 0.918671331 -1.600000000
v -5.782709604 0.918593288 -1.600000000
v -5.600087836 0.000205341 -1.600000000
v -5.600069528 0.000113274 -1.600000000
v -5.782691296 -0.918274673 -1.600000000
v -5.782700450 -0.918320707 -1.600000000
v -10.217438606 0.918547254 -1.600000000
v -8.593358968 -3.081910961 -1.600000000
v -14.400000000 -6.400000000 -1.600000000
v -8.593450980 -3.081892664 -1.600000000
v -3.200045118 -0.000009484 -1.600000000
v -5.005213419 -1.031536854 -1.600000000
v -6.753703468 -2.941846917 -1.600000000
v -5.737349801 -2.262606644 -1.600000000
v -5.737280259 -2.262502587 -1.600000000
v -5.043589502 -1.224526714 -1.600000000
v -5.043565091 -1.224403957 -1.600000000
v -2.956549554 -1.224526714 -1.600000000
v -8.000069528 -3.199886726 -1.600000000
v -7.999946771 -3.199862316 -1.600000000
v -6.793952024 -2.960049935 -1.600000000
v -6.754122538 -2.942126986 -1.600000000
v -2.956480012 -1.224630771 -1.600000000
v -6.793596596 -2.959979258 -1.600000000
v -6.775429635 -2.956366753 -1.600000000
v -6.775325579 -2.956297211 -1.600000000
v -2.262789445 -2.262606644 -1.600000000
v -2.262685389 -2.262676186 -1.600000000
v -1.224709516 -2.956366753 -1.600000000
v -1.224586759 -2.956391163 -1.600000000
v -0.000069528 -3.199886726 -1.600000000
v 14.400000000 -6.400000000 -1.600000000
v 0.000053229 -3.199862316 -1.600000000
v 1.224570460 -2.956366753 -1.600000000
v 1.224674516 -2.956297211 -1.600000000
v 2.262650389 -2.262606644 -1.600000000
v 2.262719931 -2.262502587 -1.600000000
v 2.910328664 -1.293479406 -1.600000000
v 1.697022614 -1.696848670 -1.600000000
v 1.696970458 -1.696926712 -1.600000000
v 0.918488529 -2.217194494 -1.600000000
v 2.182718452 -0.970097090 -1.600000000
v 0.000022540 -2.399868419 -1.600000000
v 0.918410487 -2.217246651 -1.600000000
v -0.918457475 -2.217264958 -1.600000000
v -0.000069528 -2.399886726 -1.600000000
v -2.182942395 0.970196620 -1.600000000
v -1.697031471 -1.696978869 -1.600000000
v -2.217377296 -0.918444784 -1.600000000
v -1.697109514 -1.696926712 -1.600000000
v -2.400051220 0.000021206 -1.600000000
v -2.217447760 0.918501221 -1.600000000
v -2.217429452 0.918593288 -1.600000000
v -2.400069528 0.000113274 -1.600000000
v -2.217429452 -0.918366741 -1.600000000
v -0.918549543 -2.217246651 -1.600000000
v 14.400000000 -6.400000000 -9.600000000
v -14.400000000 6.400000000 -9.600000000
v -14.400000000 -6.400000000 -9.600000000
v 16.000000000 8.000000000 -9.600000000
v 16.000000000 -8.000000000 -9.600000000
v -16.000000000 -8.000000000 -9.600000000
v -16.000000000 8.000000000 -9.600000000
v 16.000000000 8.000000000 0.000000000
v -16.000000000 -8.000000000 0.000000000
v 10.347239710 8.000000000 0.000000000
v -16.000000000 8.000000000 0.000000000
v 16.000000000 -5.680883077 0.000000000
v 16.000000000 -8.000000000 0.000000000
v 11.083601765 6.217847094 0.000000000
v 11.085723507 6.218269004 0.000000000
v 11.999959942 6.400065261 0.000000000
v 12.004203427 6.399221443 0.000000000
v 12.918439862 6.217425185 0.000000000
v 12.922036899 6.215021246 0.000000000
v 13.696999737 5.697105056 0.000000000
v 13.699403677 5.693508018 0.000000000
v 14.217319867 4.918545180 0.000000000
v 14.218163685 4.914301696 0.000000000
v 14.399959942 4.000065261 0.000000000
v 14.399116124 3.995821777 0.000000000
v 14.217319867 3.081585342 0.000000000
v 14.214915927 3.077988303 0.000000000
v 13.696999737 2.303025275 0.000000000
v 13.693402700 2.300621336 0.000000000
v 12.918439862 1.782705337 0.000000000
v 12.916318120 1.782283427 0.000000000
v 11.999959942 -6.399934739 0.000000000
v 12.572263804 -6.286131902 0.000000000
v 11.995716458 -6.399090921 0.000000000
v 11.081480023 -6.217294663 0.000000000
v 11.077882986 -6.214890724 0.000000000
v 5.002583958 -6.161060238 0.000000000
v 4.918439862 -6.217294663 0.000000000
v 10.302920148 -5.696974534 0.000000000
v 4.914196378 -6.218138482 0.000000000
v 3.999959942 -6.399934739 0.000000000
v 3.995716458 -6.399090921 0.000000000
v 3.472436701 -6.295036545 0.000000000
v 5.007820775 -6.157560416 0.000000000
v 10.300516208 -5.693377497 0.000000000
v 3.462599003 -6.293080315 0.000000000
v 5.907810176 -5.381536903 0.000000000
v 5.696999737 -5.696974534 0.000000000
v 9.782600018 -4.918414658 0.000000000
v 5.693402700 -5.699378474 0.000000000
v 3.081480023 -6.217294663 0.000000000
v 3.077882985 -6.214890724 0.000000000
v 2.449430366 -5.794889028 0.000000000
v 2.302919957 -5.696974534 0.000000000
v 2.300516018 -5.693377497 0.000000000
v -2.249669440 -5.617175382 0.000000000
v -2.303000072 -5.696974534 0.000000000
v 1.782600018 -4.918414658 0.000000000
v -2.306597110 -5.699378474 0.000000000
v -3.081560138 -6.217294663 0.000000000
v -3.085803622 -6.218138482 0.000000000
v -4.000040058 -6.399934739 0.000000000
v -4.004283542 -6.399090921 0.000000000
v -4.918519977 -6.217294663 0.000000000
v -4.922117014 -6.214890724 0.000000000
v -5.082051182 -6.108004960 0.000000000
v -2.247103244 -5.613335557 0.000000000
v 1.781756200 -4.914171174 0.000000000
v -5.085252787 -6.105865292 0.000000000
v -5.697079852 -5.696974534 0.000000000
v -5.699483792 -5.693377497 0.000000000
v -6.217399982 -4.918414658 0.000000000
v -6.218243800 -4.914171174 0.000000000
v -10.237447447 -5.598887243 0.000000000
v -10.303000263 -5.696974534 0.000000000
v -6.400040058 -3.999934739 0.000000000
v -10.306597300 -5.699378474 0.000000000
v -11.081560138 -6.217294663 0.000000000
v -11.085803622 -6.218138482 0.000000000
v -12.000040058 -6.399934739 0.000000000
v -12.004283542 -6.399090921 0.000000000
v -12.108270916 -6.378412992 0.000000000
v -10.235282966 -5.595648509 0.000000000
v -6.399196239 -3.995691255 0.000000000
v -12.110832231 -6.377903674 0.000000000
v -9.772872569 -4.869093334 0.000000000
v -9.782680133 -4.918414658 0.000000000
v -6.217399982 -3.081454820 0.000000000
v -9.785084073 -4.922011696 0.000000000
v -12.585892530 -6.283437756 0.000000000
v -9.772536734 -4.867404450 0.000000000
v -6.214996042 -3.077857781 0.000000000
v -12.587079817 -6.283201663 0.000000000
v -9.703066722 -4.518046233 0.000000000
v -5.697079852 -2.302894753 0.000000000
v -12.813747064 -6.238128796 0.000000000
v -9.762896065 -3.180947053 0.000000000
v -9.600040058 -3.999934739 0.000000000
v -3.427736196 1.713868098 0.000000000
v -9.600883876 -4.004178223 0.000000000
v -12.918519977 -6.217294663 0.000000000
v -12.922117014 -6.214890724 0.000000000
v -13.333646265 -5.939861199 0.000000000
v -5.693482815 -2.300490815 0.000000000
v -4.918519977 -1.782574815 0.000000000
v -4.914276493 -1.781730996 0.000000000
v -4.000040058 -1.599934739 0.000000000
v -3.995796573 -1.600778557 0.000000000
v -3.081560138 -1.782574815 0.000000000
v -3.077963100 -1.784978754 0.000000000
v -2.303000072 -2.302894753 0.000000000
v -2.300596133 -2.306491792 0.000000000
v -1.782680133 -3.081454820 0.000000000
v -1.781836315 -3.085698304 0.000000000
v -1.600040058 -3.999934739 0.000000000
v -1.600883876 -4.004178223 0.000000000
v -1.782680133 -4.918414658 0.000000000
v -1.785084072 -4.922011696 0.000000000
v 1.599959942 -3.999934739 0.000000000
v 1.600803761 -3.995691255 0.000000000
v 1.782600018 -3.081454820 0.000000000
v 1.785003957 -3.077857781 0.000000000
v 2.302919957 -2.302894753 0.000000000
v 2.306516995 -2.300490815 0.000000000
v 3.081480023 -1.782574815 0.000000000
v 3.085723507 -1.781730996 0.000000000
v 3.407451596 -1.717755246 0.000000000
v 6.227702774 -3.133669493 0.000000000
v 6.399959942 -3.999934739 0.000000000
v 6.399116124 -4.004178223 0.000000000
v 6.217319867 -4.918414658 0.000000000
v 6.214915927 -4.922011696 0.000000000
v 6.227086027 -3.130567929 0.000000000
v 9.781756200 -4.914171174 0.000000000
v 3.410272778 -1.717194252 0.000000000
v 6.223326860 -3.111663430 0.000000000
v 9.776613000 -4.888306500 0.000000000
v 3.427526633 -1.713763317 0.000000000
v -9.806788786 -3.045380808 0.000000000
v -9.782680133 -3.081454820 0.000000000
v -4.000040058 1.600065261 0.000000000
v -9.781836315 -3.085698304 0.000000000
v -13.383339692 -5.906650535 0.000000000
v -9.807741620 -3.043955073 0.000000000
v -4.004283542 1.600909079 0.000000000
v -13.383969231 -5.906229807 0.000000000
v -10.022303882 -2.722903476 0.000000000
v -4.918519977 1.782705337 0.000000000
v -13.523002563 -5.813312302 0.000000000
v -10.023569079 -2.721010349 0.000000000
v -4.922117014 1.785109275 0.000000000
v -13.523806594 -5.812774959 0.000000000
v -10.302981283 -2.302923153 0.000000000
v -10.300596323 -2.306491792 0.000000000
v -5.697079852 2.303025275 0.000000000
v -13.697030809 -5.697007310 0.000000000
v -10.304960622 -2.301584624 0.000000000
v -10.303000263 -2.302894753 0.000000000
v -5.699483792 2.306622314 0.000000000
v -13.697079852 -5.696974534 0.000000000
v -13.697584415 -5.696219552 0.000000000
v -10.722951339 -2.022236932 0.000000000
v -6.217399982 3.081585342 0.000000000
v -13.699483792 -5.693377497 0.000000000
v -13.813351280 -5.522996509 0.000000000
v -9.772862088 4.869171148 0.000000000
v -9.600040058 4.000065261 0.000000000
v -9.600883876 3.995821777 0.000000000
v -9.782680133 3.081585342 0.000000000
v -9.785084073 3.077988303 0.000000000
v -10.303000263 2.303025275 0.000000000
v -10.306597300 2.300621336 0.000000000
v -11.081560138 1.782705337 0.000000000
v -12.869134740 -1.772754542 0.000000000
v -12.000040058 -1.599934739 0.000000000
v -11.995796573 -1.600778557 0.000000000
v -11.081560138 -1.782574815 0.000000000
v -11.077963101 -1.784978754 0.000000000
v -14.217399982 -4.918414658 0.000000000
v -14.218243800 -4.914171174 0.000000000
v -14.283513873 -4.585934063 0.000000000
v -12.871835957 -1.773291680 0.000000000
v -11.085803622 1.781861518 0.000000000
v -14.283891875 -4.584033127 0.000000000
v -13.598909809 -2.237286658 0.000000000
v -12.918519977 -1.782574815 0.000000000
v -12.000040058 1.600065261 0.000000000
v -12.914276493 -1.781730996 0.000000000
v -14.378489650 -4.108309731 0.000000000
v -13.602730595 -2.239840130 0.000000000
v -12.004283542 1.600909079 0.000000000
v -14.379091859 -4.105281279 0.000000000
v -14.400040058 -3.999934739 0.000000000
v -14.399196239 -3.995691255 0.000000000
v -14.217399982 -3.081454820 0.000000000
v -12.918519977 1.782705337 0.000000000
v -14.214996042 -3.077857781 0.000000000
v -13.697079852 -2.302894753 0.000000000
v -13.693482815 -2.300490815 0.000000000
v -12.922117014 1.785109275 0.000000000
v -13.697079852 2.303025275 0.000000000
v -13.699483792 2.306622314 0.000000000
v -14.217399982 3.081585342 0.000000000
v -14.218243800 3.085828826 0.000000000
v -14.400040058 4.000065261 0.000000000
v -14.399196239 4.004308745 0.000000000
v -14.217399982 4.918545180 0.000000000
v -14.214996042 4.922142218 0.000000000
v -13.697079852 5.697105056 0.000000000
v -13.693482815 5.699508996 0.000000000
v -12.918519977 6.217425185 0.000000000
v -12.914276493 6.218269004 0.000000000
v -12.586013635 6.283544196 0.000000000
v -9.773399223 4.871872348 0.000000000
v -6.218243800 3.085828826 0.000000000
v -12.584112732 6.283922191 0.000000000
v -9.776673140 4.888336570 0.000000000
v -6.223387000 3.111693500 0.000000000
v -12.572473367 6.286236683 0.000000000
v 12.914196378 1.781861518 0.000000000
v 11.999959942 1.600065261 0.000000000
v 11.995716458 1.600909079 0.000000000
v 11.081480023 1.782705337 0.000000000
v 12.869086976 -1.772760975 0.000000000
v 12.918439862 -1.782574815 0.000000000
v 12.922036899 -1.784978754 0.000000000
v 13.696999737 -2.302894753 0.000000000
v 13.699403677 -2.306491792 0.000000000
v 14.217319867 -3.081454820 0.000000000
v 14.218163685 -3.085698304 0.000000000
v 14.399959942 -3.999934739 -0.000000000
v 14.399116124 -4.004178223 0.000000000
v 14.283448539 -4.585859727 0.000000000
v 12.867398070 -1.772425135 0.000000000
v 11.077882986 1.785109275 0.000000000
v 14.283212442 -4.587047036 0.000000000
v 12.518035044 -1.702954167 0.000000000
v 10.302920148 2.303025275 0.000000000
v 14.238138762 -4.813718373 0.000000000
v 6.237593257 3.183538329 0.000000000
v 6.217319867 3.081585342 0.000000000
v 6.214915927 3.077988303 0.000000000
v 5.696999737 2.303025275 0.000000000
v 5.693402700 2.300621336 0.000000000
v 4.918439862 1.782705337 0.000000000
v 10.022237458 -2.722882989 0.000000000
v 10.302920148 -2.302894753 0.000000000
v 10.306517185 -2.300490815 0.000000000
v 11.081480023 -1.782574815 0.000000000
v 11.085723507 -1.781730996 0.000000000
v 11.999959942 -1.599934739 0.000000000
v 12.004203427 -1.600778557 0.000000000
v 14.217319867 -4.918414658 0.000000000
v 14.214915927 -4.922011696 0.000000000
v 13.696999737 -5.696974534 0.000000000
v 13.693402700 -5.699378474 0.000000000
v 13.522957852 -5.813288640 0.000000000
v 10.021196963 -2.724439892 0.000000000
v 4.914196378 1.781861518 0.000000000
v 13.522296477 -5.813730644 0.000000000
v 9.806722177 -3.045360599 0.000000000
v 3.999959942 1.600065261 0.000000000
v 13.383293709 -5.906627724 0.000000000
v 9.806148984 -3.046218273 0.000000000
v 3.995716458 1.600909079 0.000000000
v 13.382914943 -5.906880857 0.000000000
v 9.746247135 -3.264270084 0.000000000
v 9.782600018 -3.081454820 0.000000000
v 3.081480023 1.782705337 0.000000000
v 9.785003958 -3.077857781 0.000000000
v 13.304841174 -5.959058416 0.000000000
v -1.729268870 3.350185605 0.000000000
v -1.782680133 3.081585342 0.000000000
v -1.785084072 3.077988303 0.000000000
v -2.303000072 2.303025275 0.000000000
v -2.306597110 2.300621336 0.000000000
v -3.081560138 1.782705337 0.000000000
v -3.085803622 1.781861518 0.000000000
v 9.599959942 -3.999934739 0.000000000
v 3.999959942 -1.599934739 0.000000000
v 4.004203427 -1.600778557 0.000000000
v 4.918439862 -1.782574815 0.000000000
v 4.922036899 -1.784978754 0.000000000
v 5.696999737 -2.302894753 0.000000000
v 5.699403677 -2.306491792 0.000000000
v 6.217319867 -3.081454820 0.000000000
v 6.218163685 -3.085698304 0.000000000
v 9.600803761 -3.995691255 0.000000000
v 12.918439862 -6.217294663 0.000000000
v 12.914196378 -6.218138482 0.000000000
v -10.237399123 5.598945457 0.000000000
v -9.782680133 4.918545180 0.000000000
v -6.400040058 4.000065261 0.000000000
v -9.781836315 4.914301696 0.000000000
v -12.108397005 6.378518441 0.000000000
v -10.239952580 5.602766219 0.000000000
v -6.399196239 4.004308745 0.000000000
v -12.105368596 6.379120642 0.000000000
v -12.000040058 6.400065261 0.000000000
v -11.995796573 6.399221443 0.000000000
v -11.081560138 6.217425185 0.000000000
v -6.237195069 4.818997534 0.000000000
v -11.077963101 6.215021246 0.000000000
v -10.303000263 5.697105056 0.000000000
v -10.300596323 5.693508018 0.000000000
v -1.729096776 3.351051050 0.000000000
v 3.077882985 1.785109275 0.000000000
v -6.237077337 4.819589597 0.000000000
v -1.690337412 3.545968279 0.000000000
v 2.302919957 2.303025275 0.000000000
v -6.217399982 4.918545180 0.000000000
v -6.214996042 4.922142218 0.000000000
v -6.197196868 4.948775288 0.000000000
v -1.689920270 3.548066047 0.000000000
v 2.300516018 2.306622314 0.000000000
v -6.196352583 4.950038600 0.000000000
v -1.603640465 4.018171376 0.000000000
v -1.600040058 4.000065261 0.000000000
v 1.782600018 3.081585342 0.000000000
v -1.600883876 3.995821777 0.000000000
v -6.005471734 5.235655400 0.000000000
v -1.604323600 4.021606797 0.000000000
v 1.781756200 3.085828826 0.000000000
v -6.004200239 5.237557950 0.000000000
v -1.751501419 4.761750331 0.000000000
v 1.599959942 4.000065261 0.000000000
v -5.719501189 5.663555800 0.000000000
v -1.752249146 4.765510584 0.000000000
v 1.600803761 4.004308745 0.000000000
v -5.717997933 5.665805136 0.000000000
v -1.784330387 4.921014472 0.000000000
v -1.782680133 4.918545180 0.000000000
v 1.635789244 4.180247478 0.000000000
v -1.781836315 4.914301696 0.000000000
v -5.697079852 5.697105056 0.000000000
v -5.693482815 5.699508996 0.000000000
v -5.616420545 5.751010558 0.000000000
v 6.238089146 3.186032109 0.000000000
v 10.300516208 2.306622314 0.000000000
v -1.785629620 4.922958526 0.000000000
v 1.636182515 4.182225200 0.000000000
v -5.615047822 5.751927964 0.000000000
v 6.347621213 3.736858669 0.000000000
v 9.782600018 3.081585342 0.000000000
v -2.065542435 5.341794842 0.000000000
v 1.723048230 4.619064790 0.000000000
v -5.304262872 5.959628965 0.000000000
v 6.348299192 3.740268164 0.000000000
v 9.781756200 3.085828826 0.000000000
v -2.067232333 5.344323454 0.000000000
v 1.723585910 4.621768730 0.000000000
v -5.302291019 5.960946776 0.000000000
v 6.297348080 4.516090753 0.000000000
v 6.399959942 4.000065261 0.000000000
v 9.599959942 4.000065261 0.000000000
v 6.399116124 3.995821777 0.000000000
v -2.249647070 5.617272431 0.000000000
v 1.782600018 4.918545180 0.000000000
v -5.082111052 6.108095471 0.000000000
v -2.251992121 5.620781354 0.000000000
v 1.785003957 4.922142218 0.000000000
v -5.079182640 6.110052560 0.000000000
v -2.620871562 5.909542017 0.000000000
v -2.303000072 5.697105056 -0.000000000
v 1.965930725 5.192864732 0.000000000
v -2.300596133 5.693508018 -0.000000000
v -4.918519977 6.217425185 -0.000000000
v -4.914276493 6.218269004 -0.000000000
v -4.774562277 6.246051228 0.000000000
v 6.296566040 4.520023560 0.000000000
v 9.600803761 4.004308745 0.000000000
v -2.625335483 5.912525304 0.000000000
v 1.967788936 5.195645192 0.000000000
v -4.769156960 6.247126077 0.000000000
v 5.907824424 5.381646106 0.000000000
v 6.217319867 4.918545180 0.000000000
v 9.782600018 4.918545180 0.000000000
v 6.218163685 4.914301696 0.000000000
v -4.000040058 6.400065261 0.000000000
v 2.302919957 5.697105056 0.000000000
v -3.995796573 6.399221443 0.000000000
v -3.081560138 6.217425185 0.000000000
v -3.077963100 6.215021246 0.000000000
v 2.306516995 5.699508996 0.000000000
v 2.449383245 5.794988059 0.000000000
v 3.081480023 6.217425185 0.000000000
v 3.085723507 6.218269004 0.000000000
v 3.999959942 6.400065261 0.000000000
v 4.004203427 6.399221443 0.000000000
v 4.918439862 6.217425185 0.000000000
v 4.922036899 6.215021246 0.000000000
v 5.696999737 5.697105056 0.000000000
v 5.699403677 5.693508018 0.000000000
v 9.785003958 4.922142218 0.000000000
v 10.302920148 5.697105056 0.000000000
v 10.306517185 5.699508996 0.000000000
v 11.081480023 6.217425185 0.000000000
v 11.999959942 1.600065261 0.000462012
v 12.918439862 1.782705337 0.000462012
v 11.999959942 1.600065261 1.600462012
v 13.696999737 2.303025275 0.000462012
v 12.918439862 1.782705337 1.600462012
v 11.081480023 1.782705337 1.600462012
v 11.081480023 1.782705337 0.000462012
v 11.999959942 4.000065261 1.600462012
v 14.217319867 3.081585342 0.000462012
v 13.696999737 2.303025275 1.600462012
v 10.302920148 2.303025275 1.600462012
v 10.302920148 2.303025275 0.000462012
v 14.217319867 3.081585342 1.600462012
v 9.782600018 3.081585342 1.600462012
v 14.399959942 4.000065261 0.000462012
v 14.399959942 4.000065261 1.600462012
v 9.599959942 4.000065261 1.600462012
v 9.782600018 3.081585342 0.000462012
v 14.217319867 4.918545180 1.600462012
v 9.782600018 4.918545180 1.600462012
v 14.217319867 4.918545180 0.000462012
v 13.696999737 5.697105056 1.600462012
v 9.599959942 4.000065261 0.000462012
v 10.302920148 5.697105056 1.600462012
v 13.696999737 5.697105056 0.000462012
v 12.918439862 6.217425185 1.600462012
v 9.782600018 4.918545180 0.000462012
v 11.081480023 6.217425185 1.600462012
v 12.918439862 6.217425185 0.000462012
v 11.999959942 6.400065261 1.600462012
v 10.302920148 5.697105056 0.000462012
v 11.999959942 6.400065261 0.000462012
v 11.081480023 6.217425185 0.000462012
v 3.081480023 6.217425185 0.000462012
v 2.302919957 5.697105056 0.000462012
v 3.999959942 6.400065261 0.000462012
v 3.081480023 6.217425185 1.600462012
v 3.999959942 6.400065261 1.600462012
v 1.782600018 4.918545180 0.000462012
v 2.302919957 5.697105056 1.600462012
v 4.918439862 6.217425185 1.600462012
v 4.918439862 6.217425185 0.000462012
v 3.999959942 4.000065261 1.600462012
v 1.599959942 4.000065261 0.000462012
v 1.782600018 4.918545180 1.600462012
v 5.696999737 5.697105056 1.600462012
v 5.696999737 5.697105056 0.000462012
v 1.599959942 4.000065261 1.600462012
v 6.217319867 4.918545180 1.600462012
v 1.782600018 3.081585342 0.000462012
v 1.782600018 3.081585342 1.600462012
v 6.399959942 4.000065261 1.600462012
v 6.217319867 4.918545180 0.000462012
v 2.302919957 2.303025275 1.600462012
v 6.217319867 3.081585342 1.600462012
v 2.302919957 2.303025275 0.000462012
v 3.081480023 1.782705337 1.600462012
v 6.399959942 4.000065261 0.000462012
v 5.696999737 2.303025275 1.600462012
v 3.081480023 1.782705337 0.000462012
v 3.999959942 1.600065261 1.600462012
v 6.217319867 3.081585342 0.000462012
v 4.918439862 1.782705337 1.600462012
v 3.999959942 1.600065261 0.000462012
v 5.696999737 2.303025275 0.000462012
v 4.918439862 1.782705337 0.000462012
v -4.000040058 6.400065261 0.000462012
v -4.918519977 6.217425185 0.000462012
v -3.081560138 6.217425185 0.000462012
v -4.000040058 6.400065261 1.600462012
v -3.081560138 6.217425185 1.600462012
v -5.697079852 5.697105056 0.000462012
v -4.918519977 6.217425185 1.600462012
v -2.303000072 5.697105056 1.600462012
v -2.303000072 5.697105056 0.000462012
v -4.000040058 4.000065261 1.600462012
v -6.217399982 4.918545180 0.000462012
v -5.697079852 5.697105056 1.600462012
v -1.782680133 4.918545180 1.600462012
v -1.782680133 4.918545180 0.000462012
v -6.217399982 4.918545180 1.600462012
v -1.600040058 4.000065261 1.600462012
v -6.400040058 4.000065261 0.000462012
v -6.400040058 4.000065261 1.600462012
v -1.782680133 3.081585342 1.600462012
v -1.600040058 4.000065261 0.000462012
v -6.217399982 3.081585342 1.600462012
v -2.303000072 2.303025275 1.600462012
v -6.217399982 3.081585342 0.000462012
v -5.697079852 2.303025275 1.600462012
v -1.782680133 3.081585342 0.000462012
v -3.081560138 1.782705337 1.600462012
v -5.697079852 2.303025275 0.000462012
v -4.918519977 1.782705337 1.600462012
v -2.303000072 2.303025275 0.000462012
v -4.000040058 1.600065261 1.600462012
v -4.918519977 1.782705337 0.000462012
v -3.081560138 1.782705337 0.000462012
v -4.000040058 1.600065261 0.000462012
v -12.000040058 6.400065261 0.000462012
v -12.918519977 6.217425185 0.000462012
v -11.081560138 6.217425185 0.000462012
v -12.000040058 6.400065261 1.600462012
v -11.081560138 6.217425185 1.600462012
v -13.697079852 5.697105056 0.000462012
v -12.918519977 6.217425185 1.600462012
v -10.303000263 5.697105056 1.600462012
v -10.303000263 5.697105056 0.000462012
v -12.000040058 4.000065261 1.600462012
v -14.217399982 4.918545180 0.000462012
v -13.697079852 5.697105056 1.600462012
v -9.782680133 4.918545180 1.600462012
v -9.782680133 4.918545180 0.000462012
v -14.217399982 4.918545180 1.600462012
v -9.600040058 4.000065261 1.600462012
v -14.400040058 4.000065261 0.000462012
v -14.400040058 4.000065261 1.600462012
v -9.782680133 3.081585342 1.600462012
v -9.600040058 4.000065261 0.000462012
v -14.217399982 3.081585342 1.600462012
v -10.303000263 2.303025275 1.600462012
v -14.217399982 3.081585342 0.000462012
v -13.697079852 2.303025275 1.600462012
v -9.782680133 3.081585342 0.000462012
v -11.081560138 1.782705337 1.600462012
v -13.697079852 2.303025275 0.000462012
v -12.918519977 1.782705337 1.600462012
v -10.303000263 2.303025275 0.000462012
v -12.000040058 1.600065261 1.600462012
v -12.918519977 1.782705337 0.000462012
v -11.081560138 1.782705337 0.000462012
v -12.000040058 1.600065261 0.000462012
v 12.918439862 -6.217294663 0.000462012
v 13.696999737 -5.696974534 0.000462012
v 11.999959942 -6.399934739 0.000462012
v 12.918439862 -6.217294663 1.600462012
v 11.999959942 -6.399934739 1.600462012
v 14.217319867 -4.918414658 0.000462012
v 13.696999737 -5.696974534 1.600462012
v 11.081480023 -6.217294663 1.600462012
v 11.081480023 -6.217294663 0.000462012
v 11.999959942 -3.999934739 1.600462012
v 14.399959942 -3.999934739 0.000462012
v 14.217319867 -4.918414658 1.600462012
v 10.302920148 -5.696974534 1.600462012
v 10.302920148 -5.696974534 0.000462012
v 14.399959942 -3.999934739 1.600462012
v 9.782600018 -4.918414658 1.600462012
v 14.217319867 -3.081454820 0.000462012
v 14.217319867 -3.081454820 1.600462012
v 9.599959942 -3.999934739 1.600462012
v 9.782600018 -4.918414658 0.000462012
v 13.696999737 -2.302894753 1.600462012
v 9.782600018 -3.081454820 1.600462012
v 13.696999737 -2.302894753 0.000462012
v 12.918439862 -1.782574815 1.600462012
v 9.599959942 -3.999934739 0.000462012
v 10.302920148 -2.302894753 1.600462012
v 12.918439862 -1.782574815 0.000462012
v 11.999959942 -1.599934739 1.600462012
v 9.782600018 -3.081454820 0.000462012
v 11.081480023 -1.782574815 1.600462012
v 11.999959942 -1.599934739 0.000462012
v 10.302920148 -2.302894753 0.000462012
v 11.081480023 -1.782574815 0.000462012
v 3.999959942 -1.599934739 0.000462012
v 3.081480023 -1.782574815 0.000462012
v 4.918439862 -1.782574815 0.000462012
v 3.999959942 -1.599934739 1.600462012
v 4.918439862 -1.782574815 1.600462012
v 2.302919957 -2.302894753 0.000462012
v 3.081480023 -1.782574815 1.600462012
v 5.696999737 -2.302894753 1.600462012
v 5.696999737 -2.302894753 0.000462012
v 3.999959942 -3.999934739 1.600462012
v 1.782600018 -3.081454820 0.000462012
v 2.302919957 -2.302894753 1.600462012
v 6.217319867 -3.081454820 1.600462012
v 6.217319867 -3.081454820 0.000462012
v 1.782600018 -3.081454820 1.600462012
v 6.399959942 -3.999934739 1.600462012
v 1.599959942 -3.999934739 0.000462012
v 1.599959942 -3.999934739 1.600462012
v 6.217319867 -4.918414658 1.600462012
v 6.399959942 -3.999934739 0.000462012
v 1.782600018 -4.918414658 1.600462012
v 5.696999737 -5.696974534 1.600462012
v 1.782600018 -4.918414658 0.000462012
v 2.302919957 -5.696974534 1.600462012
v 6.217319867 -4.918414658 0.000462012
v 4.918439862 -6.217294663 1.600462012
v 2.302919957 -5.696974534 0.000462012
v 3.081480023 -6.217294663 1.600462012
v 5.696999737 -5.696974534 0.000462012
v 3.999959942 -6.399934739 1.600462012
v 3.081480023 -6.217294663 0.000462012
v 4.918439862 -6.217294663 0.000462012
v 3.999959942 -6.399934739 0.000462012
v -1.600040058 -3.999934739 0.000462012
v -1.782680133 -4.918414658 0.000462012
v -1.782680133 -4.918414658 1.600462012
v -1.782680133 -3.081454820 0.000462012
v -1.600040058 -3.999934739 1.600462012
v -2.303000072 -5.696974534 1.600462012
v -2.303000072 -5.696974534 0.000462012
v -4.000040058 -3.999934739 1.600462012
v -2.303000072 -2.302894753 0.000462012
v -1.782680133 -3.081454820 1.600462012
v -3.081560138 -6.217294663 1.600462012
v -3.081560138 -6.217294663 0.000462012
v -2.303000072 -2.302894753 1.600462012
v -4.000040058 -6.399934739 1.600462012
v -3.081560138 -1.782574815 0.000462012
v -3.081560138 -1.782574815 1.600462012
v -4.918519977 -6.217294663 1.600462012
v -4.000040058 -6.399934739 0.000462012
v -4.000040058 -1.599934739 1.600462012
v -5.697079852 -5.696974534 1.600462012
v -4.000040058 -1.599934739 0.000462012
v -4.918519977 -1.782574815 1.600462012
v -4.918519977 -6.217294663 0.000462012
v -6.217399982 -4.918414658 1.600462012
v -4.918519977 -1.782574815 0.000462012
v -5.697079852 -2.302894753 1.600462012
v -5.697079852 -5.696974534 0.000462012
v -6.400040058 -3.999934739 1.600462012
v -5.697079852 -2.302894753 0.000462012
v -6.217399982 -3.081454820 1.600462012
v -6.217399982 -4.918414658 0.000462012
v -6.217399982 -3.081454820 0.000462012
v -6.400040058 -3.999934739 0.000462012
v -14.400040058 -3.999934739 0.000462012
v -14.217399982 -4.918414658 0.000462012
v -14.217399982 -3.081454820 0.000462012
v -14.400040058 -3.999934739 1.600462012
v -14.217399982 -3.081454820 1.600462012
v -13.697079852 -5.696974534 0.000462012
v -14.217399982 -4.918414658 1.600462012
v -13.697079852 -2.302894753 1.600462012
v -13.697079852 -2.302894753 0.000462012
v -12.000040058 -3.999934739 1.600462012
v -12.918519977 -6.217294663 0.000462012
v -13.697079852 -5.696974534 1.600462012
v -12.918519977 -1.782574815 1.600462012
v -12.918519977 -1.782574815 0.000462012
v -12.918519977 -6.217294663 1.600462012
v -12.000040058 -1.599934739 1.600462012
v -12.000040058 -6.399934739 0.000462012
v -12.000040058 -6.399934739 1.600462012
v -11.081560138 -1.782574815 1.600462012
v -12.000040058 -1.599934739 0.000462012
v -11.081560138 -6.217294663 1.600462012
v -10.303000263 -2.302894753 1.600462012
v -11.081560138 -6.217294663 0.000462012
v -10.303000263 -5.696974534 1.600462012
v -11.081560138 -1.782574815 0.000462012
v -9.782680133 -3.081454820 1.600462012
v -10.303000263 -5.696974534 0.000462012
v -9.782680133 -4.918414658 1.600462012
v -10.303000263 -2.302894753 0.000462012
v -9.600040058 -3.999934739 1.600462012
v -9.782680133 -4.918414658 0.000462012
v -9.782680133 -3.081454820 0.000462012
v -9.600040058 -3.999934739 0.000462012
v 1.815557580 2.561630179 -1.600000000
v 5.043426036 1.224630504 -1.600000000
v 0.527241348 3.095257371 -1.600000000
v 3.014461196 0.932821540 -1.600000000
v 2.956410498 1.224753262 -1.600000000
v 2.956340956 1.224857318 -1.600000000
v 2.262650389 2.262833191 -1.600000000
v 2.262546333 2.262902733 -1.600000000
v 4.799930472 0.000113274 -1.600000000
v 0.918318419 2.217491506 -1.600000000
v 0.918410487 2.217473198 -1.600000000
v 1.696892415 1.697205416 -1.600000000
v 1.775097849 1.580250456 -1.600000000
v 0.332082719 2.334064682 -1.600000000
v 1.696970458 1.697153259 -1.600000000
v -0.000069528 3.200113274 -1.600000000
v -0.000192285 3.200088863 -1.600000000
v -0.960273520 3.009176465 -1.600000000
v 3.014482048 0.932716673 -1.600000000
v 4.799954882 -0.000009484 -1.600000000
v 1.775182913 1.580123174 -1.600000000
v 0.331866714 2.334107635 -1.600000000
v -0.960354329 3.009160396 -1.600000000
v 3.182252572 -0.088787290 -1.600000000
v 3.199930472 0.000113274 -1.600000000
v 3.199906062 0.000236031 -1.600000000
v 5.043450446 -1.224526714 -1.600000000
v -0.000161596 2.400094966 -1.600000000
v -0.000069528 2.400113274 -1.600000000
v -0.676136209 2.265677175 -1.600000000
v 2.312011221 0.442251041 -1.600000000
v 2.217238240 0.918671331 -1.600000000
v 2.217290396 0.918593288 -1.600000000
v -1.224709516 2.956593300 -1.600000000
v -1.224813572 2.956523758 -1.600000000
v -1.503283977 2.770418957 -1.600000000
v 3.182243273 -0.088834056 -1.600000000
v 5.043519988 -1.224630771 -1.600000000
v 2.312022117 0.442196242 -1.600000000
v -0.676177506 2.265668963 -1.600000000
v -1.503306921 2.770403624 -1.600000000
v 3.095079478 -0.527172920 -1.600000000
v 5.737210745 -2.262606644 -1.600000000
v -0.918627585 2.217421041 -1.600000000
v -0.918549543 2.217473198 -1.600000000
v -1.000329593 2.162818718 -1.600000000
v 2.387497474 -0.062411124 -1.600000000
v 2.399912164 0.000205341 -1.600000000
v 2.399930472 0.000113274 -1.600000000
v -1.712502486 2.630595952 -1.600000000
v -2.262789445 2.262833191 -1.600000000
v -2.262858987 2.262729134 -1.600000000
v -2.825474901 1.420881527 -1.600000000
v 2.248423109 -0.761803214 -1.600000000
v -2.092476861 1.105561110 -1.600000000
v -1.697161670 1.697075217 -1.600000000
v -1.697109514 1.697153259 -1.600000000
v 2.985382758 -1.078827832 -1.600000000
v 2.985378839 -1.078847539 -1.600000000
v 5.737314802 -2.262676186 -1.600000000
v -2.092484723 1.105549347 -1.600000000
v 2.248419357 -0.761822085 -1.600000000
v -2.825482294 1.420870465 -1.600000000
v 2.933473197 -1.258848020 -1.600000000
v 2.956410498 -1.224526714 -1.600000000
v 2.956434909 -1.224403957 -1.600000000
v 6.775290579 -2.956366753 -1.600000000
v 2.204890138 -0.936921373 -1.600000000
v 2.217308704 -0.918274673 -1.600000000
v 2.217290396 -0.918366741 -1.600000000
v -2.166607753 0.994638309 -1.600000000
v -2.895190802 1.316564953 -1.600000000
v 6.775413337 -2.956391163 -1.600000000
v 7.999930472 -3.199886726 -1.600000000
v 8.000053229 -3.199862316 -1.600000000
v 9.224570365 -2.956366753 -1.600000000
v 9.224674421 -2.956297211 -1.600000000
v 10.262650199 -2.262606644 -1.600000000
v 10.262719741 -2.262502587 -1.600000000
v 10.956410880 -1.224526714 -1.600000000
v 10.217290396 -0.918366741 -1.600000000
v 9.697022424 -1.696848670 -1.600000000
v 5.782552240 0.918501221 -1.600000000
v 5.599948780 0.000021206 -1.600000000
v 6.302968719 -1.696978869 -1.600000000
v 8.000022540 -2.399868419 -1.600000000
v 8.918488434 -2.217194494 -1.600000000
v 9.696970267 -1.696926712 -1.600000000
v 8.918410391 -2.217246651 -1.600000000
v 7.081542620 -2.217264958 -1.600000000
v 7.081450553 -2.217246651 -1.600000000
v 7.999930472 -2.399886726 -1.600000000
v 5.782622704 -0.918444784 -1.600000000
v 5.782570548 -0.918366741 -1.600000000
v 6.302890677 -1.696926712 -1.600000000
v 5.599930472 0.000113274 -1.600000000
v 5.782570548 -0.918366741 -9.599198086
v 5.599930472 0.000113274 -9.599198086
v 5.043450446 -1.224526714 -9.599198086
v 6.302890677 -1.696926712 -9.599198086
v 5.737210745 -2.262606644 -9.599198086
v 4.799930472 0.000113274 -9.599198086
v 5.782570548 0.918593288 -9.599198086
v 7.081450553 -2.217246651 -9.599198086
v 6.775290579 -2.956366753 -9.599198086
v 5.043450446 1.224753262 -9.599198086
v 6.302890677 1.697153259 -9.599198086
v 7.999930472 -2.399886726 -9.599198086
v 7.999930472 -3.199886726 -9.599198086
v 5.737210745 2.262833191 -9.599198086
v 7.081450553 2.217473198 -9.599198086
v 8.918410391 -2.217246651 -9.599198086
v 9.224570365 -2.956366753 -9.599198086
v 6.775290579 2.956593300 -9.599198086
v 7.999930472 2.400113274 -9.599198086
v 9.696970267 -1.696926712 -9.599198086
v 10.262650199 -2.262606644 -9.599198086
v 7.999930472 3.200113274 -9.599198086
v 8.918410391 2.217473198 -9.599198086
v 10.217290396 -0.918366741 -9.599198086
v 10.956410880 -1.224526714 -9.599198086
v 9.224570365 2.956593300 -9.599198086
v 9.696970267 1.697153259 -9.599198086
v 10.399930472 0.000113274 -9.599198086
v 11.199930472 0.000113274 -9.599198086
v 10.262650199 2.262833191 -9.599198086
v 10.217290396 0.918593288 -9.599198086
v 10.956410880 1.224753262 -9.599198086
v -2.217429452 0.918593288 -9.599198086
v -2.400069528 0.000113274 -9.599198086
v -1.697109514 1.697153259 -9.599198086
v -3.200069528 0.000113274 -9.599198086
v -2.956549554 1.224753262 -9.599198086
v -2.217429452 -0.918366741 -9.599198086
v -2.956549554 -1.224526714 -9.599198086
v -2.262789445 2.262833191 -9.599198086
v -0.918549543 2.217473198 -9.599198086
v -1.697109514 -1.696926712 -9.599198086
v -2.262789445 -2.262606644 -9.599198086
v -1.224709516 2.956593300 -9.599198086
v -0.000069528 2.400113274 -9.599198086
v -0.918549543 -2.217246651 -9.599198086
v -1.224709516 -2.956366753 -9.599198086
v -0.000069528 3.200113274 -9.599198086
v 0.918410487 2.217473198 -9.599198086
v -0.000069528 -2.399886726 -9.599198086
v -0.000069528 -3.199886726 -9.599198086
v 1.224570460 2.956593300 -9.599198086
v 1.696970458 1.697153259 -9.599198086
v 0.918410487 -2.217246651 -9.599198086
v 1.224570460 -2.956366753 -9.599198086
v 2.262650389 2.262833191 -9.599198086
v 2.217290396 0.918593288 -9.599198086
v 1.696970458 -1.696926712 -9.599198086
v 2.262650389 -2.262606644 -9.599198086
v 2.956410498 1.224753262 -9.599198086
v 2.399930472 0.000113274 -9.599198086
v 2.217290396 -0.918366741 -9.599198086
v 2.956410498 -1.224526714 -9.599198086
v 3.199930472 0.000113274 -9.599198086
v -10.956574346 1.224630504 -1.600000000
v -11.200069528 0.000113274 -1.600000000
v -11.200045118 -0.000009484 -1.600000000
v -10.956549936 -1.224526714 -1.600000000
v -10.956480394 -1.224630771 -1.600000000
v -10.262789255 -2.262606644 -1.600000000
v -10.262685198 -2.262676186 -1.600000000
v -9.224709421 -2.956366753 -1.600000000
v -9.224586663 -2.956391163 -1.600000000
v -5.782709604 -0.918366741 -1.600000000
v -6.302977576 -1.696848670 -1.600000000
v -6.303029733 -1.696926712 -1.600000000
v -7.081511566 -2.217194494 -1.600000000
v -7.081589609 -2.217246651 -1.600000000
v -7.999977460 -2.399868419 -1.600000000
v -8.000069528 -2.399886726 -1.600000000
v -8.918457380 -2.217264958 -1.600000000
v -8.918549447 -2.217246651 -1.600000000
v -9.697031281 -1.696978869 -1.600000000
v -9.697109323 -1.696926712 -1.600000000
v -10.217377296 -0.918444784 -1.600000000
v -10.217429452 -0.918366741 -1.600000000
v -10.400051220 0.000021206 -1.600000000
v -10.400069528 0.000113274 -1.600000000
v -10.217447760 0.918501221 -1.600000000
v -10.217429452 -0.918366741 -9.599198086
v -10.400069528 0.000113274 -9.599198086
v -10.956549936 -1.224526714 -9.599198086
v -9.697109323 -1.696926712 -9.599198086
v -10.262789255 -2.262606644 -9.599198086
v -11.200069528 0.000113274 -9.599198086
v -10.217429452 0.918593288 -9.599198086
v -8.918549447 -2.217246651 -9.599198086
v -9.224709421 -2.956366753 -9.599198086
v -10.956549936 1.224753262 -9.599198086
v -9.697109323 1.697153259 -9.599198086
v -8.000069528 -2.399886726 -9.599198086
v -8.000069528 -3.199886726 -9.599198086
v -10.262789255 2.262833191 -9.599198086
v -8.918549447 2.217473198 -9.599198086
v -7.081589609 -2.217246651 -9.599198086
v -6.775429635 -2.956366753 -9.599198086
v -9.224709421 2.956593300 -9.599198086
v -8.000069528 2.400113274 -9.599198086
v -6.303029733 -1.696926712 -9.599198086
v -5.737349801 -2.262606644 -9.599198086
v -8.000069528 3.200113274 -9.599198086
v -7.081589609 2.217473198 -9.599198086
v -5.782709604 -0.918366741 -9.599198086
v -5.043589502 -1.224526714 -9.599198086
v -6.775429635 2.956593300 -9.599198086
v -6.303029733 1.697153259 -9.599198086
v -5.600069528 0.000113274 -9.599198086
v -4.800069528 0.000113274 -9.599198086
v -5.737349801 2.262833191 -9.599198086
v -5.782709604 0.918593288 -9.599198086
v -5.043589502 1.224753262 -9.599198086
f 2 3 1
f 3 4 1
f 4 5 1
f 5 6 1
f 7 1 6
f 8 7 6
f 9 7 8
f 9 10 7
f 11 7 10
f 11 12 7
f 12 13 7
f 13 14 7
f 14 15 7
f 16 7 15
f 17 16 15
f 18 16 17
f 19 16 18
f 21 19 20
f 21 16 19
f 22 16 21
f 23 16 22
f 24 20 19
f 20 24 25
f 26 25 24
f 27 16 23
f 29 30 28
f 29 31 30
f 29 32 31
f 29 33 32
f 29 34 33
f 29 35 34
f 36 35 29
f 37 34 35
f 38 33 34
f 39 33 38
f 40 38 34
f 41 32 33
f 42 32 41
f 43 41 33
f 44 31 32
f 45 30 31
f 47 16 46
f 47 7 16
f 49 52 48
f 49 46 52
f 50 46 49
f 51 46 50
f 53 48 52
f 48 53 54
f 55 54 53
f 56 46 51
f 58 55 57
f 58 59 55
f 60 55 59
f 60 61 55
f 54 55 61
f 62 57 55
f 63 46 56
f 63 64 46
f 65 46 64
f 66 46 65
f 66 67 46
f 67 68 46
f 72 46 68
f 68 69 72
f 70 72 69
f 71 72 70
f 62 73 74
f 75 62 74
f 57 62 75
f 77 93 76
f 77 91 93
f 77 89 91
f 77 85 89
f 77 81 85
f 77 79 81
f 78 79 77
f 80 81 79
f 83 85 81
f 84 85 83
f 82 83 81
f 87 89 85
f 88 89 87
f 86 87 85
f 90 91 89
f 92 93 91
f 95 96 94
f 98 73 97
f 62 97 73
f 104 99 100
f 100 101 104
f 101 102 104
f 102 103 104
f 103 98 104
f 97 104 98
f 105 95 94
f 105 106 95
f 107 95 106
f 99 109 108
f 104 109 99
f 110 95 107
f 95 110 111
f 111 113 95
f 111 112 113
f 112 108 113
f 109 113 108
f 113 114 95
f 115 95 114
f 115 116 95
f 116 117 95
f 118 95 117
f 117 119 118
f 120 118 119
f 121 118 120
f 122 118 121
f 122 123 118
f 124 118 123
f 126 127 125
f 127 128 125
f 127 129 128
f 130 129 127
f 129 131 128
f 132 131 129
f 133 128 131
f 134 133 131
f 134 135 133
f 136 135 134
f 137 133 135
f 138 133 137
f 139 133 138
f 140 138 137
f 141 137 135
f 142 134 131
f 143 1 7
f 143 118 1
f 46 144 47
f 7 47 143
f 95 144 72
f 72 144 46
f 118 145 95
f 118 143 145
f 146 47 144
f 147 143 47
f 95 145 144
f 148 145 143
f 146 144 149
f 147 47 146
f 148 143 147
f 149 144 145
f 149 145 148
f 150 146 149
f 150 147 146
f 151 148 147
f 151 149 148
f 150 149 152
f 152 149 153
f 147 150 154
f 147 154 155
f 151 147 155
f 151 153 149
f 156 157 152
f 157 158 152
f 158 159 152
f 159 160 152
f 160 150 152
f 150 160 161
f 150 161 162
f 162 163 150
f 163 164 150
f 164 165 150
f 165 166 150
f 166 167 150
f 167 154 150
f 154 167 168
f 168 169 154
f 169 170 154
f 170 171 154
f 171 172 154
f 172 173 154
f 155 175 174
f 174 176 155
f 176 177 155
f 177 151 155
f 177 178 151
f 180 178 179
f 179 178 181
f 180 182 178
f 182 183 178
f 183 151 178
f 183 184 151
f 184 185 151
f 179 181 186
f 186 181 187
f 188 151 185
f 190 187 189
f 189 187 191
f 190 192 187
f 192 186 187
f 193 151 188
f 193 194 151
f 194 195 151
f 196 151 195
f 196 197 151
f 199 197 198
f 198 197 200
f 199 201 197
f 201 202 197
f 202 203 197
f 203 204 197
f 204 151 197
f 204 205 151
f 205 206 151
f 206 207 151
f 207 208 151
f 198 200 209
f 209 200 210
f 211 151 208
f 212 151 211
f 212 213 151
f 213 214 151
f 214 215 151
f 217 215 216
f 216 215 218
f 217 219 215
f 219 220 215
f 220 151 215
f 220 221 151
f 221 222 151
f 222 223 151
f 223 224 151
f 216 218 225
f 225 218 226
f 227 151 224
f 229 226 228
f 228 226 230
f 229 231 226
f 231 225 226
f 232 151 227
f 228 230 233
f 233 230 234
f 235 151 232
f 233 234 236
f 236 234 237
f 238 151 235
f 240 237 239
f 237 241 239
f 240 242 237
f 242 236 237
f 243 151 238
f 243 244 151
f 244 245 151
f 241 237 246
f 241 246 247
f 247 248 241
f 248 249 241
f 249 250 241
f 250 251 241
f 251 252 241
f 252 253 241
f 253 210 241
f 210 253 254
f 210 254 255
f 255 256 210
f 256 257 210
f 257 258 210
f 258 259 210
f 259 260 210
f 260 209 210
f 241 210 261
f 241 261 262
f 262 263 241
f 263 264 241
f 264 265 241
f 265 266 241
f 266 267 241
f 267 268 241
f 268 269 241
f 271 191 270
f 271 272 191
f 272 273 191
f 273 274 191
f 274 189 191
f 270 276 275
f 276 270 191
f 277 241 269
f 275 279 278
f 279 275 276
f 280 241 277
f 282 283 281
f 282 284 283
f 284 239 283
f 283 239 241
f 285 151 245
f 281 287 286
f 287 281 283
f 288 151 285
f 286 290 289
f 290 286 287
f 291 151 288
f 289 293 292
f 293 289 290
f 294 151 291
f 296 297 295
f 296 292 297
f 297 292 293
f 298 151 294
f 300 297 299
f 299 297 301
f 300 295 297
f 302 151 298
f 302 303 151
f 299 301 304
f 304 301 305
f 306 151 303
f 151 306 307
f 309 305 308
f 309 310 305
f 310 311 305
f 311 312 305
f 312 313 305
f 313 314 305
f 314 315 305
f 317 315 316
f 317 318 315
f 318 319 315
f 319 320 315
f 320 304 315
f 315 304 305
f 321 151 307
f 321 322 151
f 322 323 151
f 316 325 324
f 325 316 315
f 326 151 323
f 328 329 327
f 328 330 329
f 330 324 329
f 329 324 325
f 331 151 326
f 327 333 332
f 333 327 329
f 334 151 331
f 335 151 334
f 335 336 151
f 336 337 151
f 337 338 151
f 337 339 338
f 339 340 338
f 340 341 338
f 341 332 338
f 338 332 333
f 338 342 151
f 342 343 151
f 343 344 151
f 344 345 151
f 345 346 151
f 346 153 151
f 153 346 347
f 347 348 153
f 348 349 153
f 349 350 153
f 350 351 153
f 351 352 153
f 352 353 153
f 353 354 153
f 354 355 153
f 308 357 356
f 357 308 305
f 358 153 355
f 356 360 359
f 360 356 357
f 361 153 358
f 362 154 173
f 154 362 363
f 363 364 154
f 364 365 154
f 367 365 366
f 367 368 365
f 368 369 365
f 369 370 365
f 370 371 365
f 371 154 365
f 371 372 154
f 372 373 154
f 373 374 154
f 374 375 154
f 375 155 154
f 366 365 376
f 365 377 376
f 378 155 375
f 376 377 379
f 377 380 379
f 381 155 378
f 383 380 382
f 383 384 380
f 384 385 380
f 385 386 380
f 386 387 380
f 389 387 388
f 389 380 387
f 380 389 390
f 390 391 380
f 391 392 380
f 392 393 380
f 393 394 380
f 394 379 380
f 395 155 381
f 395 396 155
f 396 397 155
f 397 398 155
f 398 399 155
f 388 387 400
f 400 387 401
f 402 155 399
f 400 401 403
f 403 401 404
f 405 155 402
f 403 404 406
f 404 407 406
f 408 155 405
f 410 407 409
f 407 411 409
f 410 412 407
f 412 406 407
f 413 155 408
f 415 411 414
f 415 416 411
f 416 417 411
f 417 418 411
f 418 419 411
f 419 420 411
f 420 241 411
f 421 411 279
f 280 411 241
f 411 280 422
f 411 422 423
f 411 423 424
f 424 425 411
f 425 426 411
f 426 279 411
f 279 426 427
f 279 427 428
f 428 429 279
f 429 278 279
f 421 430 411
f 430 409 411
f 431 155 413
f 431 432 155
f 432 175 155
f 434 435 433
f 434 436 435
f 436 359 435
f 435 359 360
f 437 153 361
f 433 439 438
f 439 433 435
f 440 153 437
f 441 153 440
f 441 442 153
f 442 443 153
f 443 444 153
f 443 445 444
f 445 446 444
f 446 447 444
f 447 438 444
f 444 438 439
f 414 449 448
f 449 414 411
f 450 153 444
f 448 452 451
f 452 448 449
f 453 153 450
f 453 454 153
f 454 455 153
f 451 457 456
f 457 451 452
f 458 153 455
f 460 461 459
f 460 462 461
f 462 456 461
f 461 456 457
f 463 153 458
f 459 465 464
f 465 459 461
f 466 153 463
f 464 468 467
f 468 464 465
f 469 153 466
f 467 471 470
f 471 467 468
f 472 153 469
f 474 475 473
f 474 476 475
f 476 470 475
f 475 470 471
f 477 153 472
f 477 478 153
f 478 479 153
f 382 481 480
f 481 382 380
f 473 483 482
f 483 473 475
f 484 153 479
f 480 486 485
f 486 480 481
f 482 488 487
f 488 482 483
f 489 153 484
f 485 491 490
f 491 485 486
f 487 493 492
f 493 487 488
f 494 153 489
f 496 497 495
f 496 498 497
f 498 490 497
f 497 490 491
f 492 500 499
f 500 492 493
f 501 153 494
f 499 503 502
f 503 499 500
f 504 153 501
f 506 507 505
f 506 508 507
f 508 502 507
f 507 502 503
f 509 153 504
f 509 510 153
f 510 511 153
f 495 513 512
f 513 495 497
f 505 515 514
f 515 505 507
f 516 153 511
f 518 519 517
f 518 520 519
f 520 512 519
f 519 512 513
f 516 521 153
f 521 522 153
f 521 523 522
f 523 524 522
f 524 525 522
f 525 514 522
f 514 515 522
f 522 526 153
f 526 527 153
f 527 528 153
f 528 529 153
f 529 530 153
f 530 152 153
f 530 531 152
f 531 532 152
f 532 533 152
f 533 534 152
f 534 535 152
f 535 517 152
f 152 517 519
f 152 519 536
f 152 536 537
f 152 537 538
f 152 538 539
f 152 539 156
f 362 541 540
f 363 362 540
f 172 541 173
f 541 362 173
f 540 541 542
f 363 540 364
f 543 541 171
f 172 171 541
f 542 541 544
f 540 542 545
f 365 364 546
f 540 546 364
f 543 171 170
f 541 543 544
f 542 544 547
f 545 542 547
f 540 545 546
f 365 546 377
f 548 543 169
f 169 543 170
f 544 543 549
f 547 544 549
f 545 547 550
f 546 545 550
f 380 377 551
f 546 551 377
f 548 169 168
f 543 548 549
f 547 549 552
f 550 547 553
f 546 550 551
f 380 551 481
f 554 548 167
f 167 548 168
f 549 548 552
f 547 552 555
f 550 553 551
f 553 547 556
f 486 481 557
f 551 557 481
f 554 167 166
f 548 554 552
f 555 552 554
f 547 555 558
f 551 553 557
f 553 556 557
f 556 547 559
f 486 557 491
f 560 554 165
f 165 554 166
f 555 554 560
f 558 555 560
f 547 558 561
f 557 556 562
f 556 559 562
f 559 547 563
f 497 491 562
f 557 562 491
f 560 165 164
f 558 560 564
f 561 558 564
f 547 561 565
f 562 559 566
f 559 563 566
f 563 547 567
f 497 562 513
f 564 560 163
f 163 560 164
f 561 564 568
f 565 561 568
f 547 565 569
f 566 519 513
f 513 562 566
f 566 563 570
f 563 567 570
f 567 547 569
f 564 163 162
f 161 564 162
f 564 161 568
f 565 568 571
f 569 565 571
f 519 566 536
f 570 537 536
f 536 566 570
f 570 567 572
f 567 569 572
f 568 161 160
f 159 568 160
f 568 159 571
f 569 571 572
f 537 570 538
f 538 572 539
f 572 538 570
f 571 159 158
f 157 571 158
f 571 157 572
f 156 572 157
f 572 156 539
f 529 528 573
f 526 574 527
f 574 573 527
f 527 573 528
f 530 529 575
f 529 573 575
f 574 526 522
f 573 574 576
f 575 573 577
f 530 575 531
f 507 578 515
f 503 578 507
f 574 515 578
f 522 515 574
f 576 574 579
f 573 576 577
f 575 577 580
f 532 531 581
f 531 575 581
f 578 503 500
f 574 578 579
f 576 579 582
f 577 576 582
f 580 577 582
f 575 580 581
f 532 581 533
f 488 578 493
f 488 583 578
f 483 583 488
f 483 475 583
f 471 583 475
f 578 500 493
f 579 578 584
f 582 579 584
f 580 582 585
f 581 580 585
f 534 533 586
f 533 581 586
f 583 471 468
f 578 583 584
f 582 584 587
f 585 582 588
f 581 585 586
f 534 586 535
f 589 583 465
f 468 465 583
f 584 583 587
f 582 587 590
f 585 588 586
f 588 582 591
f 518 517 592
f 517 586 592
f 586 517 535
f 589 465 461
f 583 589 587
f 590 587 589
f 582 590 593
f 586 588 592
f 588 591 592
f 591 582 594
f 518 592 520
f 595 589 457
f 461 457 589
f 590 589 595
f 593 590 595
f 582 593 596
f 592 591 597
f 591 594 597
f 594 582 598
f 496 495 597
f 495 592 597
f 592 495 512
f 592 512 520
f 595 457 452
f 593 595 599
f 596 593 599
f 582 596 600
f 597 594 601
f 594 598 601
f 598 582 602
f 496 597 498
f 599 595 449
f 452 449 595
f 596 599 603
f 600 596 603
f 582 600 602
f 382 601 383
f 601 382 480
f 480 485 601
f 485 597 601
f 597 485 490
f 597 490 498
f 601 598 604
f 598 602 604
f 599 449 411
f 599 411 407
f 407 603 599
f 600 603 605
f 602 600 605
f 383 601 384
f 384 604 385
f 604 384 601
f 604 602 605
f 603 407 404
f 603 404 401
f 401 605 603
f 385 604 386
f 605 387 386
f 386 604 605
f 605 401 387
f 523 521 606
f 511 607 516
f 607 606 516
f 516 606 521
f 511 510 607
f 524 523 608
f 523 606 608
f 607 510 509
f 606 607 609
f 608 606 610
f 524 608 525
f 501 607 504
f 504 607 509
f 501 494 607
f 607 494 489
f 607 489 611
f 489 484 611
f 611 484 479
f 479 478 611
f 609 607 612
f 606 609 610
f 608 610 613
f 506 505 614
f 505 514 614
f 514 608 614
f 608 514 525
f 611 478 477
f 607 611 612
f 609 612 615
f 610 609 615
f 613 610 615
f 608 613 614
f 506 614 508
f 469 611 472
f 469 466 611
f 616 611 466
f 466 463 616
f 463 458 616
f 458 455 616
f 454 616 455
f 611 477 472
f 612 611 617
f 615 612 617
f 613 615 618
f 614 613 618
f 619 474 473
f 473 482 619
f 482 487 619
f 487 614 619
f 614 487 492
f 614 492 499
f 614 499 502
f 614 502 508
f 616 454 453
f 611 616 617
f 615 617 620
f 618 615 621
f 614 618 619
f 474 619 476
f 444 616 450
f 444 622 616
f 439 622 444
f 453 450 616
f 617 616 620
f 615 620 623
f 618 621 619
f 621 615 624
f 460 459 625
f 459 464 625
f 464 467 625
f 467 619 625
f 619 467 470
f 619 470 476
f 622 439 435
f 616 622 620
f 623 620 622
f 615 623 626
f 619 621 625
f 621 624 625
f 624 615 627
f 460 625 462
f 357 628 360
f 622 360 628
f 435 360 622
f 623 622 628
f 626 623 628
f 615 626 629
f 625 624 630
f 624 627 630
f 627 615 631
f 415 414 630
f 414 448 630
f 448 451 630
f 451 625 630
f 625 451 456
f 625 456 462
f 628 357 305
f 626 628 632
f 629 626 632
f 615 629 633
f 630 627 634
f 627 631 634
f 631 615 635
f 415 630 416
f 632 628 301
f 305 301 628
f 629 632 636
f 633 629 636
f 615 633 635
f 416 634 417
f 634 416 630
f 634 631 637
f 631 635 637
f 632 301 297
f 632 297 293
f 293 636 632
f 633 636 638
f 635 633 638
f 417 634 418
f 637 419 418
f 418 634 637
f 637 635 638
f 636 293 290
f 636 290 287
f 287 638 636
f 419 637 420
f 638 283 241
f 241 637 638
f 420 637 241
f 638 287 283
f 442 441 639
f 437 639 440
f 440 639 441
f 437 361 639
f 361 640 639
f 640 361 358
f 640 358 355
f 640 355 354
f 443 442 641
f 442 639 641
f 640 354 353
f 639 640 642
f 641 639 643
f 443 641 445
f 644 640 352
f 352 640 353
f 642 640 645
f 639 642 643
f 641 643 646
f 446 445 647
f 445 641 647
f 644 352 351
f 640 644 645
f 642 645 648
f 643 642 648
f 646 643 648
f 641 646 647
f 446 647 447
f 649 644 350
f 351 350 644
f 645 644 650
f 648 645 650
f 646 648 651
f 647 646 651
f 434 433 652
f 433 647 652
f 647 433 438
f 647 438 447
f 649 350 349
f 644 649 650
f 648 650 653
f 651 648 654
f 647 651 652
f 434 652 436
f 655 649 348
f 349 348 649
f 650 649 653
f 648 653 656
f 651 654 652
f 654 648 657
f 309 308 658
f 308 652 658
f 652 308 356
f 652 356 359
f 652 359 436
f 655 348 347
f 649 655 653
f 656 653 655
f 648 656 659
f 652 654 658
f 654 657 658
f 657 648 660
f 309 658 310
f 661 655 346
f 347 346 655
f 656 655 661
f 659 656 661
f 648 659 662
f 658 657 663
f 657 660 663
f 660 648 664
f 311 310 663
f 310 658 663
f 661 346 345
f 659 661 665
f 662 659 665
f 648 662 666
f 663 660 667
f 660 664 667
f 664 648 668
f 311 663 312
f 665 661 344
f 345 344 661
f 662 665 669
f 666 662 669
f 648 666 668
f 312 667 313
f 667 312 663
f 667 664 670
f 664 668 670
f 665 344 343
f 665 343 342
f 342 669 665
f 666 669 671
f 668 666 671
f 313 667 314
f 670 315 314
f 314 667 670
f 670 668 671
f 669 342 338
f 669 338 333
f 333 671 669
f 315 670 325
f 671 329 325
f 325 670 671
f 671 333 329
f 432 431 672
f 408 673 413
f 405 673 408
f 405 402 673
f 399 673 402
f 398 673 399
f 672 413 673
f 431 413 672
f 174 175 674
f 672 674 175
f 432 672 175
f 673 398 397
f 672 673 675
f 674 672 676
f 174 674 176
f 677 673 396
f 396 673 397
f 675 673 678
f 672 675 676
f 674 676 679
f 177 176 680
f 674 680 176
f 677 396 395
f 673 677 678
f 675 678 681
f 676 675 681
f 679 676 681
f 674 679 680
f 177 680 178
f 378 677 381
f 381 677 395
f 378 375 677
f 677 375 682
f 682 375 374
f 678 677 683
f 681 678 683
f 679 681 684
f 680 679 684
f 181 178 685
f 680 685 178
f 682 374 373
f 677 682 683
f 681 683 686
f 684 681 687
f 680 684 685
f 181 685 187
f 688 682 372
f 372 682 373
f 683 682 686
f 681 686 689
f 684 687 685
f 687 681 690
f 191 187 691
f 685 691 187
f 688 372 371
f 682 688 686
f 689 686 688
f 681 689 692
f 685 687 691
f 687 690 691
f 690 681 693
f 191 691 276
f 694 688 370
f 370 688 371
f 689 688 694
f 692 689 694
f 681 692 695
f 691 690 696
f 690 693 696
f 693 681 697
f 421 279 696
f 691 696 279
f 276 691 279
f 694 370 369
f 692 694 698
f 695 692 698
f 681 695 699
f 696 693 700
f 693 697 700
f 697 681 701
f 421 696 430
f 698 694 368
f 368 694 369
f 695 698 702
f 699 695 702
f 681 699 701
f 700 410 409
f 409 696 700
f 430 696 409
f 700 697 703
f 697 701 703
f 698 368 367
f 366 698 367
f 698 366 376
f 698 376 379
f 379 702 698
f 702 379 394
f 699 702 704
f 701 699 704
f 410 700 412
f 703 389 388
f 388 700 703
f 400 700 388
f 400 403 700
f 406 700 403
f 412 700 406
f 703 701 704
f 702 394 393
f 392 702 393
f 702 392 704
f 389 703 390
f 390 704 391
f 704 390 703
f 704 392 391
f 423 422 705
f 277 706 280
f 706 705 280
f 280 705 422
f 277 269 706
f 269 268 706
f 424 423 707
f 423 705 707
f 706 268 267
f 705 706 708
f 707 705 709
f 424 707 425
f 710 706 266
f 266 706 267
f 708 706 711
f 705 708 709
f 707 709 712
f 426 425 713
f 425 707 713
f 710 266 265
f 706 710 711
f 708 711 714
f 709 708 714
f 712 709 714
f 707 712 713
f 426 713 427
f 715 710 264
f 265 264 710
f 711 710 716
f 714 711 716
f 712 714 717
f 713 712 717
f 428 427 718
f 427 713 718
f 715 264 263
f 710 715 716
f 714 716 719
f 717 714 720
f 713 717 718
f 428 718 429
f 721 715 262
f 263 262 715
f 716 715 719
f 714 719 722
f 717 720 718
f 720 714 723
f 271 270 724
f 270 718 724
f 718 270 275
f 718 275 278
f 718 278 429
f 721 262 261
f 715 721 719
f 722 719 721
f 714 722 725
f 718 720 724
f 720 723 724
f 723 714 726
f 271 724 272
f 727 721 210
f 261 210 721
f 722 721 727
f 725 722 727
f 714 725 728
f 724 723 729
f 723 726 729
f 726 714 730
f 273 272 729
f 272 724 729
f 727 210 200
f 725 727 731
f 728 725 731
f 714 728 732
f 729 726 733
f 726 730 733
f 730 714 734
f 273 729 274
f 731 727 197
f 200 197 727
f 728 731 735
f 732 728 735
f 714 732 734
f 189 733 190
f 189 729 733
f 729 189 274
f 733 730 736
f 730 734 736
f 731 197 196
f 731 196 195
f 195 735 731
f 194 735 195
f 732 735 737
f 734 732 737
f 190 733 192
f 736 180 179
f 179 186 736
f 733 736 186
f 192 733 186
f 736 734 737
f 735 194 193
f 735 193 188
f 188 185 735
f 737 735 185
f 184 737 185
f 180 736 182
f 737 183 182
f 182 736 737
f 737 184 183
f 739 258 738
f 258 739 259
f 738 258 257
f 739 738 740
f 259 739 260
f 741 738 256
f 256 738 257
f 740 738 742
f 739 740 743
f 199 198 744
f 198 209 744
f 209 739 744
f 739 209 260
f 741 256 255
f 738 741 742
f 740 742 745
f 743 740 745
f 739 743 744
f 199 744 201
f 746 741 254
f 254 741 255
f 742 741 747
f 745 742 747
f 743 745 748
f 744 743 748
f 202 201 749
f 744 749 201
f 746 254 253
f 741 746 747
f 745 747 750
f 748 745 751
f 744 748 749
f 202 749 203
f 752 746 252
f 252 746 253
f 747 746 750
f 745 750 753
f 748 751 749
f 751 745 754
f 204 203 755
f 749 755 203
f 752 252 251
f 746 752 750
f 753 750 752
f 745 753 756
f 749 751 755
f 751 754 755
f 754 745 757
f 204 755 205
f 758 752 250
f 250 752 251
f 753 752 758
f 756 753 758
f 745 756 759
f 755 754 760
f 754 757 760
f 757 745 761
f 206 205 760
f 755 760 205
f 758 250 249
f 756 758 762
f 759 756 762
f 745 759 763
f 760 757 764
f 757 761 764
f 761 745 765
f 206 760 207
f 762 758 248
f 248 758 249
f 759 762 766
f 763 759 766
f 745 763 767
f 764 212 211
f 211 760 764
f 211 208 760
f 207 760 208
f 764 761 768
f 761 765 768
f 765 745 767
f 762 248 247
f 246 762 247
f 762 246 766
f 763 766 769
f 767 763 769
f 212 764 213
f 768 214 213
f 213 764 768
f 768 765 770
f 765 767 770
f 766 246 237
f 766 237 234
f 234 769 766
f 767 769 770
f 214 768 215
f 770 218 215
f 215 768 770
f 769 234 230
f 769 230 226
f 226 770 769
f 218 770 226
f 336 335 771
f 331 771 334
f 331 326 771
f 772 771 326
f 323 772 326
f 322 772 323
f 335 334 771
f 337 336 773
f 771 773 336
f 772 322 321
f 771 772 774
f 773 771 775
f 337 773 339
f 306 776 307
f 772 307 776
f 772 321 307
f 774 772 777
f 771 774 775
f 773 775 778
f 340 339 779
f 773 779 339
f 302 776 303
f 306 303 776
f 772 776 777
f 774 777 780
f 775 774 780
f 778 775 780
f 773 778 779
f 340 779 341
f 294 776 298
f 294 291 776
f 291 288 776
f 288 285 776
f 285 245 776
f 781 776 245
f 244 781 245
f 302 298 776
f 777 776 782
f 780 777 782
f 778 780 783
f 779 778 783
f 328 327 784
f 327 779 784
f 779 327 332
f 779 332 341
f 781 244 243
f 776 781 782
f 780 782 785
f 783 780 786
f 779 783 784
f 328 784 330
f 235 781 238
f 235 232 781
f 787 781 232
f 232 227 787
f 224 787 227
f 223 787 224
f 243 238 781
f 782 781 785
f 780 785 788
f 783 786 784
f 786 780 789
f 317 316 790
f 316 784 790
f 784 316 324
f 784 324 330
f 787 223 222
f 781 787 785
f 788 785 787
f 780 788 791
f 784 786 790
f 786 789 790
f 789 780 792
f 317 790 318
f 793 787 221
f 222 221 787
f 788 787 793
f 791 788 793
f 780 791 794
f 790 789 795
f 789 792 795
f 792 780 796
f 319 318 795
f 318 790 795
f 793 221 220
f 791 793 797
f 794 791 797
f 780 794 798
f 795 792 799
f 792 796 799
f 796 780 800
f 319 795 320
f 797 793 219
f 220 219 793
f 794 797 801
f 798 794 801
f 780 798 800
f 299 799 300
f 799 299 304
f 304 795 799
f 795 304 320
f 799 796 802
f 796 800 802
f 797 219 217
f 216 797 217
f 797 216 225
f 225 801 797
f 801 225 231
f 798 801 803
f 800 798 803
f 295 799 296
f 295 300 799
f 281 802 282
f 802 281 286
f 802 286 289
f 802 289 292
f 292 799 802
f 799 292 296
f 802 800 803
f 801 231 229
f 228 801 229
f 801 228 233
f 801 233 236
f 236 803 801
f 803 236 242
f 282 802 284
f 239 803 240
f 239 802 803
f 802 239 284
f 803 242 240
f 25 26 804
f 805 804 26
f 806 16 27
f 808 805 807
f 808 809 805
f 810 805 809
f 811 805 810
f 804 805 811
f 812 807 805
f 814 815 813
f 816 813 815
f 817 813 816
f 818 816 815
f 819 16 806
f 819 820 16
f 821 16 820
f 807 812 822
f 823 822 812
f 816 824 817
f 825 817 824
f 826 16 821
f 828 823 827
f 828 829 823
f 822 823 829
f 830 827 823
f 832 825 831
f 825 833 831
f 834 833 825
f 825 824 834
f 835 834 824
f 836 834 835
f 837 16 826
f 838 16 837
f 839 16 838
f 827 830 840
f 841 840 830
f 834 842 833
f 843 833 842
f 844 16 839
f 840 841 845
f 846 845 841
f 848 843 847
f 849 847 843
f 843 842 849
f 850 849 842
f 851 850 842
f 852 850 851
f 853 16 844
f 854 16 853
f 854 855 16
f 855 856 16
f 46 16 856
f 858 849 857
f 859 849 858
f 860 849 859
f 850 857 849
f 845 846 861
f 861 846 862
f 863 862 846
f 864 858 857
f 865 864 857
f 866 46 856
f 868 863 867
f 869 863 868
f 862 863 869
f 870 867 863
f 865 871 864
f 865 872 871
f 873 871 872
f 874 864 871
f 875 46 866
f 867 870 124
f 118 124 870
f 871 128 874
f 133 874 128
f 52 46 875
f 876 118 870
f 877 118 876
f 877 878 118
f 878 879 118
f 879 880 118
f 880 881 118
f 1 118 881
f 881 882 1
f 883 1 882
f 2 1 883
f 885 45 884
f 885 886 45
f 885 887 886
f 885 888 887
f 885 889 888
f 885 890 889
f 891 890 885
f 892 889 890
f 893 888 889
f 894 888 893
f 895 893 889
f 896 887 888
f 897 887 896
f 898 896 888
f 899 886 887
f 30 45 886
f 901 887 900
f 887 901 899
f 900 887 897
f 901 900 902
f 899 901 886
f 896 903 900
f 896 900 897
f 902 900 904
f 901 902 905
f 28 30 906
f 30 886 906
f 906 886 901
f 903 896 898
f 900 903 904
f 830 902 841
f 904 841 902
f 901 905 906
f 812 905 823
f 902 823 905
f 28 906 29
f 888 907 903
f 888 903 898
f 904 903 908
f 841 904 846
f 902 830 823
f 906 905 909
f 905 812 805
f 36 29 910
f 910 29 906
f 907 888 894
f 903 907 908
f 846 904 863
f 908 863 904
f 906 909 910
f 26 909 805
f 24 909 26
f 905 805 909
f 36 910 35
f 893 911 907
f 893 907 894
f 908 907 912
f 863 908 870
f 910 909 913
f 909 24 19
f 37 35 914
f 910 914 35
f 911 893 895
f 907 911 912
f 870 908 876
f 912 876 908
f 910 913 914
f 18 913 19
f 909 19 913
f 37 914 34
f 889 915 911
f 889 911 895
f 912 911 916
f 876 912 877
f 914 913 917
f 913 18 17
f 40 34 918
f 914 918 34
f 915 889 892
f 911 915 916
f 877 912 878
f 916 878 912
f 914 917 918
f 15 917 17
f 17 917 913
f 40 918 38
f 890 919 915
f 890 915 892
f 916 915 920
f 878 916 879
f 918 917 921
f 917 15 14
f 39 38 922
f 918 922 38
f 919 890 891
f 915 919 920
f 879 916 880
f 920 880 916
f 918 921 922
f 13 921 14
f 14 921 917
f 39 922 33
f 923 919 885
f 891 885 919
f 920 919 924
f 880 920 881
f 922 921 925
f 921 13 12
f 43 33 926
f 922 926 33
f 923 885 884
f 919 923 924
f 881 920 882
f 882 920 924
f 922 925 926
f 11 925 12
f 12 925 921
f 43 926 41
f 31 923 45
f 927 923 31
f 923 884 45
f 924 923 928
f 882 924 883
f 926 925 929
f 925 11 10
f 42 41 930
f 926 930 41
f 927 31 44
f 923 927 928
f 3 2 924
f 2 883 924
f 3 924 928
f 926 929 930
f 9 929 10
f 10 929 925
f 42 930 32
f 930 927 32
f 44 32 927
f 928 927 931
f 3 928 4
f 930 929 931
f 929 9 8
f 927 930 931
f 4 928 5
f 5 928 931
f 6 931 8
f 8 931 929
f 5 931 6
f 139 932 133
f 932 874 133
f 932 864 874
f 932 858 864
f 932 859 858
f 138 933 932
f 138 932 139
f 860 859 934
f 934 859 932
f 933 138 140
f 932 933 935
f 934 932 936
f 849 934 847
f 860 934 849
f 137 937 933
f 137 933 140
f 935 933 938
f 932 935 936
f 934 936 939
f 848 847 940
f 934 940 847
f 937 137 141
f 933 937 938
f 62 935 97
f 938 97 935
f 53 936 55
f 935 55 936
f 934 939 940
f 854 939 855
f 936 855 939
f 833 940 831
f 843 940 833
f 848 940 843
f 135 941 937
f 135 937 141
f 938 937 942
f 97 938 104
f 935 62 55
f 875 936 52
f 875 866 936
f 866 856 936
f 856 855 936
f 936 53 52
f 940 939 943
f 844 939 853
f 853 939 854
f 844 839 939
f 939 839 838
f 832 831 944
f 940 944 831
f 941 135 136
f 937 941 942
f 104 938 109
f 942 109 938
f 940 943 944
f 837 943 838
f 838 943 939
f 817 944 813
f 817 825 944
f 832 944 825
f 134 945 941
f 134 941 136
f 942 941 946
f 109 942 113
f 944 943 947
f 821 943 826
f 826 943 837
f 821 820 943
f 814 813 948
f 944 948 813
f 945 134 142
f 941 945 946
f 113 942 114
f 946 114 942
f 944 947 948
f 819 947 820
f 820 947 943
f 814 948 815
f 131 949 945
f 131 945 142
f 946 945 950
f 114 946 115
f 948 947 951
f 27 947 806
f 806 947 819
f 27 23 947
f 23 22 947
f 818 815 952
f 948 952 815
f 949 131 132
f 945 949 950
f 115 946 116
f 950 116 946
f 948 951 952
f 21 951 22
f 22 951 947
f 824 952 835
f 824 816 952
f 818 952 816
f 129 953 949
f 129 949 132
f 950 949 954
f 116 950 117
f 952 951 955
f 25 951 20
f 20 951 21
f 25 804 951
f 804 811 951
f 836 835 956
f 952 956 835
f 953 129 130
f 949 953 954
f 117 950 119
f 954 119 950
f 952 955 956
f 810 955 811
f 811 955 951
f 842 956 851
f 842 834 956
f 836 956 834
f 127 957 953
f 127 953 130
f 954 953 958
f 119 954 120
f 956 955 959
f 955 810 809
f 852 851 960
f 956 960 851
f 957 127 126
f 953 957 958
f 120 954 121
f 958 121 954
f 956 959 960
f 808 959 809
f 809 959 955
f 865 960 872
f 865 857 960
f 857 850 960
f 852 960 850
f 961 957 125
f 126 125 957
f 958 957 962
f 121 958 122
f 960 959 963
f 807 822 959
f 822 829 959
f 807 959 808
f 873 872 961
f 960 961 872
f 871 961 128
f 873 961 871
f 961 125 128
f 957 961 962
f 122 958 123
f 123 958 962
f 960 963 961
f 828 963 829
f 829 963 959
f 962 961 963
f 868 867 962
f 867 124 962
f 962 124 123
f 840 963 827
f 827 963 828
f 840 845 963
f 845 861 963
f 861 862 963
f 862 869 963
f 868 962 869
f 869 962 963
f 964 72 71
f 964 965 72
f 965 966 72
f 966 967 72
f 95 72 967
f 968 95 967
f 969 95 968
f 969 970 95
f 971 95 970
f 972 95 971
f 96 95 972
f 974 92 973
f 974 988 92
f 974 986 988
f 974 982 986
f 974 978 982
f 974 976 978
f 975 976 974
f 977 978 976
f 980 982 978
f 981 982 980
f 979 980 978
f 984 986 982
f 985 986 984
f 983 984 982
f 987 988 986
f 93 92 988
f 990 986 989
f 986 990 987
f 989 986 985
f 990 989 991
f 987 990 988
f 984 992 989
f 984 989 985
f 991 989 993
f 990 991 994
f 76 93 995
f 93 988 995
f 995 988 990
f 992 984 983
f 989 992 993
f 967 991 968
f 993 968 991
f 990 994 995
f 965 994 966
f 991 966 994
f 76 995 77
f 982 996 992
f 982 992 983
f 993 992 997
f 968 993 969
f 991 967 966
f 995 994 998
f 994 965 964
f 78 77 999
f 999 77 995
f 996 982 981
f 992 996 997
f 969 993 970
f 997 970 993
f 995 998 999
f 71 998 964
f 70 998 71
f 994 964 998
f 78 999 79
f 980 1000 996
f 980 996 981
f 997 996 1001
f 970 997 971
f 999 998 1002
f 998 70 69
f 80 79 1003
f 999 1003 79
f 1000 980 979
f 996 1000 1001
f 971 997 972
f 1001 972 997
f 999 1002 1003
f 68 1002 69
f 998 69 1002
f 80 1003 81
f 978 1004 1000
f 978 1000 979
f 1001 1000 1005
f 94 1001 105
f 94 96 1001
f 96 972 1001
f 1003 1002 1006
f 1002 68 67
f 82 81 1007
f 1003 1007 81
f 1004 978 977
f 1000 1004 1005
f 105 1001 106
f 1005 106 1001
f 1003 1006 1007
f 66 1006 67
f 67 1006 1002
f 82 1007 83
f 976 1008 1004
f 976 1004 977
f 1005 1004 1009
f 110 1005 111
f 110 107 1005
f 106 1005 107
f 1007 1006 1010
f 64 1006 65
f 65 1006 66
f 84 83 1011
f 1007 1011 83
f 1008 976 975
f 1004 1008 1009
f 111 1005 112
f 1009 112 1005
f 1007 1010 1011
f 63 1010 64
f 64 1010 1006
f 84 1011 85
f 1012 1008 974
f 975 974 1008
f 1009 1008 1013
f 99 1009 100
f 99 108 1009
f 108 112 1009
f 1011 1010 1014
f 51 1010 56
f 56 1010 63
f 1010 51 50
f 86 85 1015
f 1011 1015 85
f 1012 974 973
f 1008 1012 1013
f 100 1009 101
f 101 1009 1013
f 1011 1014 1015
f 49 1014 50
f 50 1014 1010
f 86 1015 87
f 91 1012 92
f 1016 1012 91
f 1012 973 92
f 1013 1012 1017
f 101 1013 102
f 1015 1014 1018
f 54 1014 48
f 48 1014 49
f 54 61 1014
f 88 87 1019
f 1015 1019 87
f 1016 91 90
f 1012 1016 1017
f 102 1013 103
f 103 1013 1017
f 1015 1018 1019
f 60 1018 61
f 61 1018 1014
f 88 1019 89
f 1019 1016 89
f 90 89 1016
f 1017 1016 1020
f 74 73 1017
f 73 98 1017
f 1017 98 103
f 1019 1018 1020
f 1018 60 59
f 1016 1019 1020
f 74 1017 75
f 75 1017 1020
f 58 1020 59
f 59 1020 1018
f 57 1020 58
f 1020 57 75
