# BrickSuite developer Prepared OBJ
# Z-up millimetres; canonical nominal 100% scale
v 2.262624168 -2.262624168 -1.600000000
v 2.262650389 -2.262606644 -1.600000000
v 2.262719931 -2.262502587 -1.600000000
v 2.956410498 -1.224526714 -1.600000000
v 2.956434909 -1.224403957 -1.600000000
v 3.199930472 0.000113274 -1.600000000
v 3.199906062 0.000236031 -1.600000000
v 2.956410498 1.224753262 -1.600000000
v 2.956340956 1.224857318 -1.600000000
v 2.262650389 2.262833191 -1.600000000
v 2.262546333 2.262902733 -1.600000000
v 1.224570460 2.956593300 -1.600000000
v 1.224447703 2.956617710 -1.600000000
v -0.000069528 3.200113274 -1.600000000
v -0.000192285 3.200088863 -1.600000000
v -1.224709516 2.956593300 -1.600000000
v -1.224813572 2.956523758 -1.600000000
v -2.262789445 2.262833191 -1.600000000
v -2.262806969 2.262806969 -1.600000000
v -6.400000000 6.400000000 -1.600000000
v 6.400000000 6.400000000 -1.600000000
v 6.400000000 -6.400000000 -1.600000000
v -1.697109514 1.697153259 -1.600000000
v -0.918627585 2.217421041 -1.600000000
v -0.918549543 2.217473198 -1.600000000
v -0.000161596 2.400094966 -1.600000000
v -0.000069528 2.400113274 -1.600000000
v 0.918318419 2.217491506 -1.600000000
v 0.918410487 2.217473198 -1.600000000
v 1.696892415 1.697205416 -1.600000000
v 1.696970458 1.697153259 -1.600000000
v 2.217238240 0.918671331 -1.600000000
v 2.217290396 0.918593288 -1.600000000
v 2.399912164 0.000205341 -1.600000000
v 2.399930472 0.000113274 -1.600000000
v 2.217308704 -0.918274673 -1.600000000
v 2.217290396 -0.918366741 -1.600000000
v 1.697022614 -1.696848670 -1.600000000
v 1.696970458 -1.696926712 -1.600000000
v 1.696944236 -1.696944236 -1.600000000
v -1.697127038 1.697127038 -1.600000000
v 6.400000000 6.400000000 -9.600000000
v -2.262858987 2.262729134 -1.600000000
v -2.956549554 1.224753262 -1.600000000
v -2.956573964 1.224630504 -1.600000000
v -3.200069528 0.000113274 -1.600000000
v -3.200045118 -0.000009484 -1.600000000
v -2.956549554 -1.224526714 -1.600000000
v -2.956480012 -1.224630771 -1.600000000
v -2.262789445 -2.262606644 -1.600000000
v -2.262685389 -2.262676186 -1.600000000
v -1.224709516 -2.956366753 -1.600000000
v -1.224586759 -2.956391163 -1.600000000
v -0.000069528 -3.199886726 -1.600000000
v 0.000053229 -3.199862316 -1.600000000
v 1.224570460 -2.956366753 -1.600000000
v 1.224674516 -2.956297211 -1.600000000
v -6.400000000 -6.400000000 -1.600000000
v 0.918488529 -2.217194494 -1.600000000
v 0.918410487 -2.217246651 -1.600000000
v 0.000022540 -2.399868419 -1.600000000
v -0.000069528 -2.399886726 -1.600000000
v -0.918457475 -2.217264958 -1.600000000
v -0.918549543 -2.217246651 -1.600000000
v -1.697031471 -1.696978869 -1.600000000
v -1.697109514 -1.696926712 -1.600000000
v -2.217377296 -0.918444784 -1.600000000
v -2.217429452 -0.918366741 -1.600000000
v -2.400051220 0.000021206 -1.600000000
v -2.400069528 0.000113274 -1.600000000
v -2.217447760 0.918501221 -1.600000000
v -2.217429452 0.918593288 -1.600000000
v -1.697161670 1.697075217 -1.600000000
v 6.400000000 -6.400000000 -9.600000000
v -6.400000000 6.400000000 -9.600000000
v -6.400000000 -6.400000000 -9.600000000
v 8.000000000 8.000000000 -9.600000000
v 8.000000000 -8.000000000 -9.600000000
v -8.000000000 -8.000000000 -9.600000000
v -8.000000000 8.000000000 -9.600000000
v -8.000000000 8.000000000 0.000000000
v 8.000000000 8.000000000 0.000000000
v 8.000000000 -8.000000000 0.000000000
v -8.000000000 -8.000000000 0.000000000
v -8.000000000 5.680819703 0.000000000
v -2.347265896 -8.000000000 0.000000000
v -2.303006826 2.303020762 0.000000000
v -2.303015179 2.303015179 0.000000000
v 2.302909861 -2.302909861 0.000000000
v 2.302919957 -2.302894753 0.000000000
v -5.697089949 5.697089949 0.000000000
v -5.697087692 5.697093325 0.000000000
v -2.301675483 2.305007271 0.000000000
v -2.303000072 2.303025275 0.000000000
v 2.306516995 -2.300490815 0.000000000
v -5.697079852 5.697105056 0.000000000
v -5.696287573 5.697634545 0.000000000
v -2.022329094 2.722996140 0.000000000
v 3.081480023 -1.782574815 0.000000000
v -5.693482815 5.699508996 0.000000000
v -5.523067902 5.813399157 0.000000000
v -4.918519977 6.217425185 0.000000000
v -4.914276493 6.218269004 0.000000000
v -4.000040058 6.400065261 0.000000000
v -3.995796573 6.399221443 0.000000000
v -3.081560138 6.217425185 0.000000000
v -3.077963100 6.215021246 0.000000000
v -2.303000072 5.697105056 0.000000000
v -2.300596133 5.693508018 0.000000000
v -1.782680133 4.918545180 0.000000000
v -1.781836315 4.914301696 0.000000000
v 2.237306418 5.598926868 0.000000000
v 2.302919957 5.697105056 0.000000000
v -1.600040058 4.000065261 0.000000000
v 2.306516995 5.699508996 0.000000000
v 3.081480023 6.217425185 0.000000000
v 3.085723507 6.218269004 0.000000000
v 3.999959942 6.400065261 0.000000000
v 4.004203427 6.399221443 0.000000000
v 4.108349138 6.378512029 0.000000000
v 4.869113476 1.772896766 0.000000000
v 3.999959942 1.600065261 0.000000000
v 3.995716458 1.600909079 0.000000000
v 3.081480023 1.782705337 0.000000000
v 3.077882985 1.785109275 0.000000000
v 2.302919957 2.303025275 0.000000000
v 2.300516018 2.306622314 0.000000000
v 1.782600018 3.081585342 0.000000000
v 1.781756200 3.085828826 0.000000000
v 1.599959942 4.000065261 0.000000000
v 1.600803761 4.004308745 0.000000000
v 1.782600018 4.918545180 0.000000000
v 1.785003957 4.922142218 0.000000000
v 4.918439862 6.217425185 0.000000000
v 4.922036899 6.215021246 0.000000000
v 5.696999737 5.697105056 0.000000000
v 5.699403677 5.693508018 0.000000000
v 6.217319867 4.918545180 0.000000000
v 6.218163685 4.914301696 0.000000000
v 6.283460647 4.585929361 0.000000000
v -1.600883876 3.995821777 0.000000000
v -1.782680133 3.081585342 0.000000000
v -1.785084072 3.077988303 0.000000000
v 4.871814669 1.773433900 0.000000000
v 3.085723507 -1.781730996 0.000000000
v 6.283838645 4.584028443 0.000000000
v 5.598904206 2.237466976 0.000000000
v 4.918439862 1.782705337 0.000000000
v 3.999959942 -1.599934739 0.000000000
v 4.914196378 1.781861518 0.000000000
v 6.378435372 4.108310321 0.000000000
v 5.602724984 2.240020443 0.000000000
v 4.004203427 -1.600778557 0.000000000
v 6.379037576 4.105281890 0.000000000
v 6.399959942 4.000065261 0.000000000
v 6.399116124 3.995821777 0.000000000
v 6.217319867 3.081585342 0.000000000
v 4.918439862 -1.782574815 0.000000000
v 6.214915927 3.077988303 0.000000000
v 5.696999737 2.303025275 0.000000000
v 5.693402700 2.300621336 0.000000000
v 4.922036899 -1.784978754 0.000000000
v 5.696999737 -2.302894753 0.000000000
v 5.699403677 -2.306491792 0.000000000
v 6.217319867 -3.081454820 0.000000000
v 6.218163685 -3.085698304 0.000000000
v 6.399959942 -3.999934739 0.000000000
v 6.399116124 -4.004178223 0.000000000
v 6.217319867 -4.918414658 0.000000000
v 6.214915927 -4.922011696 0.000000000
v 5.696999737 -5.696974534 0.000000000
v 5.696984630 -5.696984630 0.000000000
v -3.083681880 -6.217716573 0.000000000
v -3.085803622 -6.218138482 0.000000000
v -4.000040058 -6.399934739 0.000000000
v -4.004283542 -6.399090921 0.000000000
v -4.918519977 -6.217294663 0.000000000
v -4.922117014 -6.214890724 0.000000000
v -5.697079852 -5.696974534 0.000000000
v -5.699483792 -5.693377497 0.000000000
v -6.217399982 -4.918414658 0.000000000
v -6.218243800 -4.914171174 0.000000000
v -6.400040058 -3.999934739 0.000000000
v -6.399196239 -3.995691255 0.000000000
v -6.217399982 -3.081454820 0.000000000
v -6.214996042 -3.077857781 0.000000000
v -5.697079852 -2.302894753 0.000000000
v -5.693482815 -2.300490815 0.000000000
v -4.918519977 -1.782574815 0.000000000
v -4.916398235 -1.782152906 0.000000000
v -4.914276493 -1.781730996 0.000000000
v -4.000040058 -1.599934739 0.000000000
v -3.995796573 -1.600778557 0.000000000
v -3.081560138 -1.782574815 0.000000000
v -4.869161239 1.772890333 0.000000000
v -4.918519977 1.782705337 0.000000000
v -4.922117014 1.785109275 0.000000000
v -5.697079852 2.303025275 0.000000000
v -5.699483792 2.306622314 0.000000000
v -6.217399982 3.081585342 0.000000000
v -6.218243800 3.085828826 0.000000000
v -6.400040058 4.000065261 0.000000000
v -6.399196239 4.004308745 0.000000000
v -6.283525981 4.586003695 0.000000000
v -4.867472343 1.772554496 0.000000000
v -3.077963100 -1.784978754 0.000000000
v -6.283289890 4.587190975 0.000000000
v -4.518111559 1.703083973 0.000000000
v -2.303000072 -2.302894753 0.000000000
v -6.238217411 4.813856271 0.000000000
v 1.702982744 -4.518026808 0.000000000
v 1.599959942 -3.999934739 0.000000000
v 1.600803761 -3.995691255 0.000000000
v 1.782600018 -3.081454820 0.000000000
v 1.785003957 -3.077857781 0.000000000
v -2.306597110 2.300621336 0.000000000
v -3.081560138 1.782705337 0.000000000
v -3.085803622 1.781861518 0.000000000
v -4.000040058 1.600065261 0.000000000
v -4.004283542 1.600909079 0.000000000
v -6.217399982 4.918545180 0.000000000
v -6.214996042 4.922142218 0.000000000
v 5.693402700 -5.699378474 0.000000000
v 4.918439862 -6.217294663 0.000000000
v 4.914196378 -6.218138482 0.000000000
v 4.813707694 -6.238120694 0.000000000
v 1.703292461 -4.519584343 0.000000000
v -2.300596133 -2.306491792 0.000000000
v 4.812774348 -6.238306290 0.000000000
v 1.772789220 -4.869077067 0.000000000
v -1.782680133 -3.081454820 0.000000000
v 4.585849789 -6.283430324 0.000000000
v 1.773326356 -4.871778277 0.000000000
v -1.781836315 -3.085698304 0.000000000
v 4.583948839 -6.283808328 0.000000000
v 2.237354742 -5.598868654 0.000000000
v 1.782600018 -4.918414658 0.000000000
v -1.600040058 -3.999934739 0.000000000
v 1.781756200 -4.914171174 0.000000000
v 4.108223048 -6.378406580 0.000000000
v 2.239908225 -5.602689456 0.000000000
v -1.600883876 -4.004178223 0.000000000
v 4.105194573 -6.379008793 0.000000000
v 3.999959942 -6.399934739 0.000000000
v 3.995716458 -6.399090921 0.000000000
v 3.081480023 -6.217294663 0.000000000
v -1.782680133 -4.918414658 0.000000000
v 3.077882985 -6.214890724 0.000000000
v 2.302919957 -5.696974534 0.000000000
v 2.300516018 -5.693377497 0.000000000
v -1.785084072 -4.922011696 0.000000000
v -2.303000072 -5.696974534 0.000000000
v -2.306597110 -5.699378474 0.000000000
v -3.081560138 -6.217294663 0.000000000
v -1.600040058 -3.999934739 0.000462012
v -1.782680133 -4.918414658 0.000462012
v -1.782680133 -4.918414658 1.600462012
v -1.782680133 -3.081454820 0.000462012
v -1.600040058 -3.999934739 1.600462012
v -2.303000072 -5.696974534 1.600462012
v -2.303000072 -5.696974534 0.000462012
v -4.000040058 -3.999934739 1.600462012
v -2.303000072 -2.302894753 0.000462012
v -1.782680133 -3.081454820 1.600462012
v -3.081560138 -6.217294663 1.600462012
v -3.081560138 -6.217294663 0.000462012
v -2.303000072 -2.302894753 1.600462012
v -4.000040058 -6.399934739 1.600462012
v -3.081560138 -1.782574815 0.000462012
v -3.081560138 -1.782574815 1.600462012
v -4.918519977 -6.217294663 1.600462012
v -4.000040058 -6.399934739 0.000462012
v -4.000040058 -1.599934739 1.600462012
v -5.697079852 -5.696974534 1.600462012
v -4.000040058 -1.599934739 0.000462012
v -4.918519977 -1.782574815 1.600462012
v -4.918519977 -6.217294663 0.000462012
v -6.217399982 -4.918414658 1.600462012
v -4.918519977 -1.782574815 0.000462012
v -5.697079852 -2.302894753 1.600462012
v -5.697079852 -5.696974534 0.000462012
v -6.400040058 -3.999934739 1.600462012
v -5.697079852 -2.302894753 0.000462012
v -6.217399982 -3.081454820 1.600462012
v -6.217399982 -4.918414658 0.000462012
v -6.217399982 -3.081454820 0.000462012
v -6.400040058 -3.999934739 0.000462012
v 3.999959942 -6.399934739 0.000462012
v 4.918439862 -6.217294663 0.000462012
v 3.081480023 -6.217294663 0.000462012
v 3.999959942 -6.399934739 1.600462012
v 3.081480023 -6.217294663 1.600462012
v 5.696999737 -5.696974534 0.000462012
v 4.918439862 -6.217294663 1.600462012
v 2.302919957 -5.696974534 1.600462012
v 2.302919957 -5.696974534 0.000462012
v 3.999959942 -3.999934739 1.600462012
v 6.217319867 -4.918414658 0.000462012
v 5.696999737 -5.696974534 1.600462012
v 1.782600018 -4.918414658 1.600462012
v 1.782600018 -4.918414658 0.000462012
v 6.217319867 -4.918414658 1.600462012
v 1.599959942 -3.999934739 1.600462012
v 6.399959942 -3.999934739 0.000462012
v 6.399959942 -3.999934739 1.600462012
v 1.782600018 -3.081454820 1.600462012
v 1.599959942 -3.999934739 0.000462012
v 6.217319867 -3.081454820 1.600462012
v 2.302919957 -2.302894753 1.600462012
v 6.217319867 -3.081454820 0.000462012
v 5.696999737 -2.302894753 1.600462012
v 1.782600018 -3.081454820 0.000462012
v 3.081480023 -1.782574815 1.600462012
v 5.696999737 -2.302894753 0.000462012
v 4.918439862 -1.782574815 1.600462012
v 2.302919957 -2.302894753 0.000462012
v 3.999959942 -1.599934739 1.600462012
v 4.918439862 -1.782574815 0.000462012
v 3.081480023 -1.782574815 0.000462012
v 3.999959942 -1.599934739 0.000462012
v -3.081560138 1.782705337 0.000462012
v -2.303000072 2.303025275 0.000462012
v -3.081560138 1.782705337 1.600462012
v -1.782680133 3.081585342 0.000462012
v -2.303000072 2.303025275 1.600462012
v -4.000040058 1.600065261 1.600462012
v -4.000040058 1.600065261 0.000462012
v -4.000040058 4.000065261 1.600462012
v -1.600040058 4.000065261 0.000462012
v -1.782680133 3.081585342 1.600462012
v -4.918519977 1.782705337 1.600462012
v -4.918519977 1.782705337 0.000462012
v -1.600040058 4.000065261 1.600462012
v -5.697079852 2.303025275 1.600462012
v -1.782680133 4.918545180 0.000462012
v -1.782680133 4.918545180 1.600462012
v -6.217399982 3.081585342 1.600462012
v -5.697079852 2.303025275 0.000462012
v -2.303000072 5.697105056 1.600462012
v -6.400040058 4.000065261 1.600462012
v -2.303000072 5.697105056 0.000462012
v -3.081560138 6.217425185 1.600462012
v -6.217399982 3.081585342 0.000462012
v -6.217399982 4.918545180 1.600462012
v -3.081560138 6.217425185 0.000462012
v -4.000040058 6.400065261 1.600462012
v -6.400040058 4.000065261 0.000462012
v -5.697079852 5.697105056 1.600462012
v -4.000040058 6.400065261 0.000462012
v -4.918519977 6.217425185 1.600462012
v -6.217399982 4.918545180 0.000462012
v -4.918519977 6.217425185 0.000462012
v -5.697079852 5.697105056 0.000462012
v 6.399959942 4.000065261 0.000462012
v 6.217319867 3.081585342 0.000462012
v 6.217319867 3.081585342 1.600462012
v 6.217319867 4.918545180 0.000462012
v 6.399959942 4.000065261 1.600462012
v 5.696999737 2.303025275 1.600462012
v 5.696999737 2.303025275 0.000462012
v 3.999959942 4.000065261 1.600462012
v 5.696999737 5.697105056 0.000462012
v 6.217319867 4.918545180 1.600462012
v 4.918439862 1.782705337 1.600462012
v 4.918439862 1.782705337 0.000462012
v 5.696999737 5.697105056 1.600462012
v 3.999959942 1.600065261 1.600462012
v 4.918439862 6.217425185 0.000462012
v 4.918439862 6.217425185 1.600462012
v 3.081480023 1.782705337 1.600462012
v 3.999959942 1.600065261 0.000462012
v 3.999959942 6.400065261 1.600462012
v 2.302919957 2.303025275 1.600462012
v 3.999959942 6.400065261 0.000462012
v 3.081480023 6.217425185 1.600462012
v 3.081480023 1.782705337 0.000462012
v 1.782600018 3.081585342 1.600462012
v 3.081480023 6.217425185 0.000462012
v 2.302919957 5.697105056 1.600462012
v 2.302919957 2.303025275 0.000462012
v 1.599959942 4.000065261 1.600462012
v 2.302919957 5.697105056 0.000462012
v 1.782600018 4.918545180 1.600462012
v 1.782600018 3.081585342 0.000462012
v 1.782600018 4.918545180 0.000462012
v 1.599959942 4.000065261 0.000462012
v -2.217429452 -0.918366741 -9.599198086
v -2.400069528 0.000113274 -9.599198086
v -2.956549554 -1.224526714 -9.599198086
v -1.697109514 -1.696926712 -9.599198086
v -2.262789445 -2.262606644 -9.599198086
v -3.200069528 0.000113274 -9.599198086
v -2.217429452 0.918593288 -9.599198086
v -0.918549543 -2.217246651 -9.599198086
v -1.224709516 -2.956366753 -9.599198086
v -2.956549554 1.224753262 -9.599198086
v -1.697109514 1.697153259 -9.599198086
v -0.000069528 -2.399886726 -9.599198086
v -0.000069528 -3.199886726 -9.599198086
v -2.262789445 2.262833191 -9.599198086
v -0.918549543 2.217473198 -9.599198086
v 0.918410487 -2.217246651 -9.599198086
v 1.224570460 -2.956366753 -9.599198086
v -1.224709516 2.956593300 -9.599198086
v -0.000069528 2.400113274 -9.599198086
v 1.696970458 -1.696926712 -9.599198086
v 2.262650389 -2.262606644 -9.599198086
v -0.000069528 3.200113274 -9.599198086
v 0.918410487 2.217473198 -9.599198086
v 2.217290396 -0.918366741 -9.599198086
v 2.956410498 -1.224526714 -9.599198086
v 1.224570460 2.956593300 -9.599198086
v 1.696970458 1.697153259 -9.599198086
v 2.399930472 0.000113274 -9.599198086
v 3.199930472 0.000113274 -9.599198086
v 2.262650389 2.262833191 -9.599198086
v 2.217290396 0.918593288 -9.599198086
v 2.956410498 1.224753262 -9.599198086
f 2 22 1
f 2 3 22
f 4 22 3
f 4 5 22
f 5 6 22
f 21 22 6
f 6 7 21
f 8 21 7
f 9 21 8
f 10 21 9
f 10 11 21
f 12 21 11
f 12 13 21
f 13 14 21
f 20 21 14
f 14 15 20
f 16 20 15
f 17 20 16
f 18 20 17
f 19 20 18
f 24 41 23
f 24 26 41
f 25 26 24
f 26 30 41
f 28 30 26
f 29 30 28
f 27 28 26
f 38 41 30
f 40 41 38
f 39 40 38
f 34 38 30
f 36 38 34
f 37 38 36
f 35 36 34
f 32 34 30
f 33 34 32
f 31 32 30
f 20 42 21
f 43 20 19
f 44 20 43
f 44 45 20
f 45 46 20
f 58 20 46
f 46 47 58
f 48 58 47
f 49 58 48
f 50 58 49
f 50 51 58
f 52 58 51
f 52 53 58
f 53 54 58
f 22 58 54
f 54 55 22
f 56 22 55
f 56 57 22
f 57 1 22
f 60 61 59
f 40 59 61
f 61 65 40
f 63 65 61
f 64 65 63
f 62 63 61
f 73 40 65
f 41 40 73
f 69 73 65
f 71 73 69
f 72 73 71
f 70 71 69
f 67 69 65
f 68 69 67
f 66 67 65
f 21 74 22
f 20 75 42
f 21 42 74
f 58 75 20
f 22 76 58
f 22 74 76
f 77 42 75
f 78 74 42
f 58 76 75
f 79 76 74
f 77 75 80
f 78 42 77
f 79 74 78
f 80 75 76
f 80 76 79
f 77 80 81
f 82 78 77
f 79 78 83
f 84 80 79
f 77 81 82
f 85 80 84
f 81 80 85
f 82 83 78
f 86 84 79
f 83 86 79
f 88 89 87
f 87 89 90
f 92 81 91
f 94 90 93
f 93 90 95
f 94 87 90
f 96 81 92
f 96 97 81
f 93 95 98
f 98 95 99
f 100 81 97
f 81 100 101
f 101 102 81
f 102 103 81
f 103 104 81
f 104 105 81
f 105 106 81
f 106 82 81
f 106 107 82
f 107 108 82
f 108 109 82
f 109 110 82
f 110 111 82
f 113 111 112
f 112 111 114
f 113 115 111
f 115 116 111
f 116 82 111
f 116 117 82
f 117 118 82
f 118 119 82
f 119 120 82
f 122 99 121
f 122 123 99
f 123 124 99
f 124 125 99
f 125 126 99
f 126 114 99
f 114 126 127
f 114 127 128
f 128 129 114
f 129 130 114
f 130 131 114
f 131 132 114
f 132 133 114
f 133 112 114
f 134 82 120
f 134 135 82
f 135 136 82
f 136 137 82
f 137 138 82
f 138 139 82
f 139 140 82
f 99 114 141
f 99 141 142
f 99 142 143
f 99 143 98
f 121 145 144
f 145 121 99
f 146 82 140
f 148 149 147
f 148 150 149
f 150 144 149
f 149 144 145
f 151 82 146
f 147 153 152
f 153 147 149
f 154 82 151
f 155 82 154
f 155 156 82
f 156 157 82
f 157 158 82
f 157 159 158
f 159 160 158
f 160 161 158
f 161 152 158
f 158 152 153
f 82 158 162
f 82 162 163
f 163 164 82
f 164 165 82
f 165 166 82
f 166 83 82
f 83 166 167
f 167 168 83
f 168 169 83
f 169 170 83
f 170 171 83
f 171 172 83
f 173 174 86
f 174 175 86
f 175 176 86
f 176 177 86
f 177 84 86
f 84 177 178
f 84 178 179
f 179 180 84
f 180 181 84
f 181 182 84
f 182 183 84
f 183 184 84
f 184 85 84
f 85 184 185
f 185 186 85
f 186 187 85
f 187 188 85
f 188 189 85
f 189 190 85
f 191 85 190
f 85 191 192
f 192 193 85
f 193 194 85
f 196 194 195
f 196 197 194
f 197 198 194
f 198 199 194
f 199 200 194
f 200 85 194
f 200 201 85
f 201 202 85
f 202 203 85
f 203 204 85
f 85 204 81
f 195 194 205
f 205 194 206
f 207 81 204
f 205 206 208
f 208 206 209
f 210 81 207
f 212 209 211
f 212 213 209
f 213 214 209
f 214 215 209
f 215 89 209
f 216 209 88
f 88 209 89
f 209 216 217
f 217 218 209
f 218 219 209
f 219 220 209
f 220 208 209
f 221 81 210
f 221 222 81
f 222 91 81
f 223 83 172
f 223 224 83
f 224 225 83
f 225 226 83
f 211 228 227
f 228 211 209
f 229 83 226
f 227 231 230
f 231 227 228
f 232 83 229
f 230 234 233
f 234 230 231
f 235 83 232
f 237 238 236
f 237 239 238
f 239 233 238
f 238 233 234
f 240 83 235
f 236 242 241
f 242 236 238
f 243 83 240
f 244 83 243
f 244 245 83
f 245 246 83
f 246 247 83
f 246 248 247
f 248 249 247
f 249 250 247
f 250 241 247
f 247 241 242
f 247 86 83
f 86 247 251
f 86 251 252
f 86 252 253
f 86 253 254
f 86 254 173
f 256 242 255
f 242 256 247
f 255 242 238
f 256 255 257
f 247 256 251
f 258 255 234
f 234 255 238
f 257 255 259
f 256 257 260
f 252 251 261
f 251 256 261
f 258 234 231
f 255 258 259
f 257 259 262
f 260 257 262
f 256 260 261
f 252 261 253
f 263 258 228
f 228 258 231
f 259 258 264
f 262 259 264
f 260 262 265
f 261 260 265
f 254 253 266
f 261 266 253
f 263 228 209
f 258 263 264
f 262 264 267
f 265 262 268
f 261 265 266
f 173 266 174
f 254 266 173
f 269 263 206
f 206 263 209
f 264 263 267
f 262 267 270
f 265 268 266
f 268 262 271
f 175 174 272
f 266 272 174
f 269 206 194
f 263 269 267
f 270 267 269
f 262 270 273
f 266 268 272
f 268 271 272
f 271 262 274
f 175 272 176
f 275 269 193
f 193 269 194
f 270 269 275
f 273 270 275
f 262 273 276
f 272 271 277
f 271 274 277
f 274 262 278
f 177 176 277
f 272 277 176
f 275 193 192
f 273 275 279
f 276 273 279
f 262 276 280
f 277 274 281
f 274 278 281
f 278 262 282
f 177 277 178
f 279 275 191
f 191 275 192
f 276 279 283
f 280 276 283
f 262 280 284
f 281 179 178
f 178 277 281
f 281 278 285
f 278 282 285
f 282 262 284
f 190 189 279
f 279 191 190
f 188 279 189
f 279 188 283
f 280 283 286
f 284 280 286
f 179 281 180
f 285 181 180
f 180 281 285
f 285 282 287
f 282 284 287
f 283 188 187
f 283 187 186
f 186 286 283
f 284 286 287
f 181 285 182
f 287 183 182
f 182 285 287
f 286 186 185
f 286 185 184
f 184 287 286
f 183 287 184
f 245 244 288
f 240 288 243
f 240 235 288
f 289 288 235
f 235 232 289
f 232 229 289
f 229 226 289
f 225 289 226
f 244 243 288
f 246 245 290
f 288 290 245
f 289 225 224
f 288 289 291
f 290 288 292
f 246 290 248
f 293 289 223
f 224 223 289
f 291 289 294
f 288 291 292
f 290 292 295
f 249 248 296
f 290 296 248
f 171 293 172
f 223 172 293
f 289 293 294
f 291 294 297
f 292 291 297
f 295 292 297
f 290 295 296
f 249 296 250
f 298 293 170
f 170 293 171
f 294 293 299
f 297 294 299
f 295 297 300
f 296 295 300
f 237 236 301
f 296 301 236
f 236 241 296
f 250 296 241
f 298 170 169
f 293 298 299
f 297 299 302
f 300 297 303
f 296 300 301
f 237 301 239
f 304 298 168
f 168 298 169
f 299 298 302
f 297 302 305
f 300 303 301
f 303 297 306
f 212 211 307
f 301 307 211
f 227 301 211
f 230 301 227
f 233 301 230
f 239 301 233
f 304 168 167
f 298 304 302
f 305 302 304
f 297 305 308
f 301 303 307
f 303 306 307
f 306 297 309
f 212 307 213
f 310 304 166
f 166 304 167
f 305 304 310
f 308 305 310
f 297 308 311
f 307 306 312
f 306 309 312
f 309 297 313
f 214 213 312
f 307 312 213
f 310 166 165
f 308 310 314
f 311 308 314
f 297 311 315
f 312 309 316
f 309 313 316
f 313 297 317
f 214 312 215
f 314 310 164
f 164 310 165
f 311 314 318
f 315 311 318
f 297 315 317
f 89 316 90
f 89 215 316
f 312 316 215
f 316 313 319
f 313 317 319
f 314 164 163
f 162 314 163
f 314 162 318
f 315 318 320
f 317 315 320
f 90 316 95
f 95 319 99
f 319 95 316
f 319 317 320
f 318 162 158
f 153 318 158
f 318 153 320
f 99 319 145
f 145 320 149
f 320 145 319
f 320 153 149
f 216 322 321
f 217 216 321
f 87 322 88
f 94 322 87
f 216 88 322
f 321 322 323
f 217 321 218
f 98 322 93
f 93 322 94
f 98 324 322
f 324 98 143
f 323 322 325
f 321 323 326
f 219 218 327
f 321 327 218
f 324 143 142
f 322 324 325
f 323 325 328
f 326 323 328
f 321 326 327
f 219 327 220
f 329 324 141
f 141 324 142
f 325 324 330
f 328 325 330
f 326 328 331
f 327 326 331
f 196 195 332
f 195 205 332
f 205 208 332
f 327 332 208
f 220 327 208
f 329 141 114
f 324 329 330
f 328 330 333
f 331 328 334
f 327 331 332
f 196 332 197
f 335 329 111
f 111 329 114
f 330 329 333
f 328 333 336
f 331 334 332
f 334 328 337
f 198 197 338
f 332 338 197
f 335 111 110
f 329 335 333
f 336 333 335
f 328 336 339
f 332 334 338
f 334 337 338
f 337 328 340
f 198 338 199
f 341 335 109
f 109 335 110
f 336 335 341
f 339 336 341
f 328 339 342
f 338 337 343
f 337 340 343
f 340 328 344
f 200 199 343
f 338 343 199
f 341 109 108
f 339 341 345
f 342 339 345
f 328 342 346
f 343 340 347
f 340 344 347
f 344 328 348
f 200 343 201
f 345 341 107
f 107 341 108
f 342 345 349
f 346 342 349
f 328 346 350
f 347 202 201
f 201 343 347
f 347 344 351
f 344 348 351
f 348 328 350
f 345 107 106
f 105 345 106
f 345 105 349
f 346 349 352
f 350 346 352
f 202 347 203
f 351 221 210
f 210 207 351
f 207 204 351
f 347 351 204
f 203 347 204
f 351 348 353
f 348 350 353
f 349 105 104
f 103 349 104
f 349 103 352
f 350 352 353
f 221 351 222
f 92 353 96
f 92 91 353
f 91 222 353
f 351 353 222
f 352 103 102
f 101 352 102
f 101 353 352
f 353 101 100
f 97 353 100
f 353 97 96
f 355 156 354
f 156 355 157
f 354 156 155
f 355 354 356
f 157 355 159
f 151 354 154
f 154 354 155
f 354 151 146
f 146 357 354
f 357 146 140
f 140 139 357
f 356 354 358
f 355 356 359
f 160 159 360
f 159 355 360
f 357 139 138
f 354 357 358
f 356 358 361
f 359 356 361
f 355 359 360
f 160 360 161
f 362 357 137
f 137 357 138
f 358 357 363
f 361 358 363
f 359 361 364
f 360 359 364
f 148 147 365
f 360 365 147
f 152 360 147
f 161 360 152
f 362 137 136
f 357 362 363
f 361 363 366
f 364 361 367
f 360 364 365
f 148 365 150
f 368 362 135
f 135 362 136
f 363 362 366
f 361 366 369
f 364 367 365
f 367 361 370
f 122 121 371
f 365 371 121
f 121 144 365
f 150 365 144
f 368 135 134
f 362 368 366
f 369 366 368
f 361 369 372
f 365 367 371
f 367 370 371
f 370 361 373
f 122 371 123
f 119 374 120
f 374 368 120
f 120 368 134
f 369 368 374
f 372 369 374
f 361 372 375
f 371 370 376
f 370 373 376
f 373 361 377
f 124 123 376
f 371 376 123
f 374 119 118
f 372 374 378
f 375 372 378
f 361 375 379
f 376 373 380
f 373 377 380
f 377 361 381
f 124 376 125
f 378 374 117
f 117 374 118
f 375 378 382
f 379 375 382
f 361 379 383
f 380 126 125
f 125 376 380
f 380 377 384
f 377 381 384
f 381 361 383
f 378 117 116
f 115 378 116
f 378 115 382
f 379 382 385
f 383 379 385
f 126 380 127
f 384 128 127
f 127 380 384
f 384 381 386
f 381 383 386
f 382 115 113
f 382 113 112
f 112 385 382
f 133 385 112
f 383 385 386
f 128 384 129
f 386 130 129
f 129 384 386
f 385 133 132
f 385 132 131
f 131 386 385
f 130 386 131
f 388 69 387
f 69 388 70
f 387 69 68
f 388 387 389
f 70 388 71
f 67 390 387
f 67 387 68
f 389 387 391
f 388 389 392
f 72 71 393
f 393 71 388
f 390 67 66
f 387 390 391
f 48 389 49
f 391 49 389
f 388 392 393
f 46 392 47
f 389 47 392
f 72 393 73
f 65 394 390
f 65 390 66
f 391 390 395
f 49 391 50
f 389 48 47
f 393 392 396
f 392 46 45
f 23 41 397
f 41 73 397
f 397 73 393
f 394 65 64
f 390 394 395
f 50 391 51
f 395 51 391
f 393 396 397
f 44 396 45
f 392 45 396
f 23 397 24
f 63 398 394
f 63 394 64
f 395 394 399
f 51 395 52
f 397 396 400
f 396 44 43
f 25 24 401
f 397 401 24
f 398 63 62
f 394 398 399
f 52 395 53
f 399 53 395
f 397 400 401
f 19 400 43
f 18 400 19
f 396 43 400
f 25 401 26
f 61 402 398
f 61 398 62
f 399 398 403
f 53 399 54
f 401 400 404
f 400 18 17
f 27 26 405
f 401 405 26
f 402 61 60
f 398 402 403
f 54 399 55
f 403 55 399
f 401 404 405
f 16 404 17
f 17 404 400
f 27 405 28
f 59 406 402
f 59 402 60
f 403 402 407
f 55 403 56
f 405 404 408
f 404 16 15
f 29 28 409
f 405 409 28
f 39 406 40
f 406 59 40
f 402 406 407
f 56 403 57
f 407 57 403
f 405 408 409
f 14 408 15
f 15 408 404
f 29 409 30
f 410 406 38
f 39 38 406
f 407 406 411
f 1 407 2
f 1 57 407
f 409 408 412
f 408 14 13
f 31 30 413
f 409 413 30
f 410 38 37
f 406 410 411
f 2 407 3
f 3 407 411
f 409 412 413
f 12 412 13
f 13 412 408
f 31 413 32
f 414 410 36
f 37 36 410
f 411 410 415
f 3 411 4
f 413 412 416
f 412 12 11
f 33 32 417
f 413 417 32
f 414 36 35
f 410 414 415
f 4 411 5
f 5 411 415
f 413 416 417
f 10 416 11
f 11 416 412
f 33 417 34
f 417 414 34
f 35 34 414
f 415 414 418
f 5 415 6
f 417 416 418
f 416 10 9
f 414 417 418
f 6 415 7
f 7 415 418
f 8 418 9
f 9 418 416
f 7 418 8
