# BrickSuite developer Prepared OBJ
# Z-up millimetres; canonical nominal 100% scale
v -12.000000000 -1.652665556 0.000000000
v -10.217821891 -0.916293011 0.000000000
v -10.218243800 -0.914171269 0.000000000
v -10.400040058 0.000065261 0.000000000
v -10.399196239 0.004308746 0.000000000
v -10.217399982 0.918545276 0.000000000
v -12.000000000 4.000000000 0.000000000
v -10.214996042 0.922142314 0.000000000
v -9.697079852 1.697105247 0.000000000
v -9.693482815 1.699509185 0.000000000
v -8.918519977 2.217425185 0.000000000
v -8.914276493 2.218269004 0.000000000
v -8.000040058 2.400065261 0.000000000
v -7.995796573 2.399221443 0.000000000
v 1.680652382 4.000000000 0.000000000
v -7.081560138 2.217425185 0.000000000
v -7.077963101 2.215021246 0.000000000
v -6.303000263 1.697105247 0.000000000
v -6.300596323 1.693508209 0.000000000
v -5.782680133 0.918545276 0.000000000
v -5.782258224 0.916423533 0.000000000
v 12.000000000 4.000000000 0.000000000
v -12.000000000 4.000000000 -9.600000000
v 6.237306483 1.598926895 0.000000000
v 6.302920148 1.697105247 0.000000000
v 2.250783239 0.750261080 0.000000000
v 2.399959942 0.000065261 0.000000000
v 6.306517185 1.699509185 0.000000000
v 7.081480023 2.217425185 0.000000000
v 7.085723507 2.218269004 0.000000000
v 7.999959942 2.400065261 0.000000000
v 8.004203427 2.399221443 0.000000000
v 8.108349138 2.378512029 0.000000000
v 8.918439862 2.217425185 0.000000000
v 8.922036899 2.215021246 0.000000000
v 9.696999737 1.697105247 0.000000000
v 9.699403677 1.693508209 0.000000000
v 10.217319867 0.918545276 0.000000000
v 10.218163685 0.914301791 0.000000000
v 10.399959942 0.000065261 0.000000000
v 12.000000000 -4.000000000 0.000000000
v 10.399116124 -0.004178224 0.000000000
v 10.217319867 -0.918414754 0.000000000
v 10.214915927 -0.922011792 0.000000000
v 9.696999737 -1.696974725 0.000000000
v 9.693402700 -1.699378664 0.000000000
v 8.918439862 -2.217294663 0.000000000
v 8.914196378 -2.218138482 0.000000000
v 8.108223048 -2.378406580 0.000000000
v 6.237354807 -1.598868681 0.000000000
v 5.782600018 -0.918414754 0.000000000
v 5.781756200 -0.914171269 0.000000000
v 5.599959942 0.000065261 0.000000000
v 5.600803761 0.004308746 0.000000000
v 5.782600018 0.918545276 0.000000000
v 5.785003958 0.922142314 0.000000000
v 6.239908292 -1.602689484 0.000000000
v 2.399116124 -0.004178224 0.000000000
v 8.105194573 -2.379008793 0.000000000
v 7.999959942 -2.399934739 0.000000000
v 7.995716458 -2.399090921 0.000000000
v 7.081480023 -2.217294663 0.000000000
v 2.217319867 -0.918414754 0.000000000
v 7.077882986 -2.214890725 0.000000000
v 6.302920148 -1.696974725 0.000000000
v 6.300516208 -1.693377687 0.000000000
v 2.214915928 -0.922011792 0.000000000
v 1.696999928 -1.696974725 0.000000000
v 1.693402890 -1.699378664 0.000000000
v 0.918439957 -2.217294663 0.000000000
v 0.914196472 -2.218138482 0.000000000
v -0.000040058 -2.399934739 0.000000000
v -12.000000000 -4.000000000 0.000000000
v -0.004283542 -2.399090921 0.000000000
v -0.918520072 -2.217294663 0.000000000
v -0.922117110 -2.214890725 0.000000000
v -1.697080043 -1.696974725 0.000000000
v -1.699483982 -1.693377687 0.000000000
v -2.217399982 -0.918414754 0.000000000
v -2.218243800 -0.914171269 0.000000000
v -2.250834033 -0.750278011 0.000000000
v -12.000000000 -4.000000000 -9.600000000
v 12.000000000 4.000000000 -9.600000000
v -10.400000000 2.400000000 -9.600000000
v -10.400000000 -2.400000000 -9.600000000
v 12.000000000 -4.000000000 -9.600000000
v 10.400000000 2.400000000 -9.600000000
v 10.400000000 -2.400000000 -9.600000000
v -10.400000000 2.400000000 -1.600000000
v -10.400000000 -2.400000000 -1.600000000
v 10.400000000 -2.400000000 -1.600000000
v 10.400000000 2.400000000 -1.600000000
v -5.072768887 1.170638974 -1.600000000
v -5.131412976 1.131446488 -1.600000000
v -5.131439537 1.131406744 -1.600000000
v -5.478293316 0.612406524 -1.600000000
v -5.478302640 0.612359637 -1.600000000
v -5.600053112 0.000086530 -1.600000000
v -5.600043789 0.000039643 -1.600000000
v -5.478293316 -0.612233464 -1.600000000
v -5.478266755 -0.612273209 -1.600000000
v -5.131412976 -1.131273429 -1.600000000
v -5.131373231 -1.131299991 -1.600000000
v -4.612373059 -1.478153484 -1.600000000
v -4.612326172 -1.478162807 -1.600000000
v -4.000053112 -1.599913470 -1.600000000
v -4.000006225 -1.599904147 -1.600000000
v -3.387733166 -1.478153484 -1.600000000
v -3.387693422 -1.478126922 -1.600000000
v -2.868693249 -1.131273429 -1.600000000
v -2.868666688 -1.131233685 -1.600000000
v 3.296424336 -1.417201784 -1.600000000
v 3.387626941 -1.478153484 -1.600000000
v 3.387673828 -1.478162807 -1.600000000
v 3.999946888 -1.599913470 -1.600000000
v 3.999993775 -1.599904147 -1.600000000
v 4.253140179 -1.549565916 -1.600000000
v -2.521813099 -0.612233464 -1.600000000
v 3.296374360 -1.417168385 -1.600000000
v -2.521803776 -0.612186577 -1.600000000
v 4.253208142 -1.549552401 -1.600000000
v 2.758976648 -0.967262412 -1.600000000
v 2.868587024 -1.131273429 -1.600000000
v 2.868626769 -1.131299991 -1.600000000
v -2.400053112 0.000086530 -1.600000000
v 4.612266834 -1.478153484 -1.600000000
v 4.612306578 -1.478126922 -1.600000000
v 4.803181585 -1.350563067 -1.600000000
v 2.758956059 -0.967231606 -1.600000000
v -2.400062436 0.000133417 -1.600000000
v 4.803204647 -1.350547654 -1.600000000
v 2.515391697 -0.580475007 -1.600000000
v 2.521706875 -0.612233464 -1.600000000
v 2.521733436 -0.612273209 -1.600000000
v -2.515466963 0.580492376 -1.600000000
v 5.072497443 -1.170576333 -1.600000000
v 3.296277304 1.417276581 -1.600000000
v 3.262081125 1.394422900 -1.600000000
v -2.521813099 0.612406524 -1.600000000
v 4.299346105 1.540550914 -1.600000000
v 4.253409273 1.549685466 -1.600000000
v 3.296322343 1.417306681 -1.600000000
v -2.521839661 0.612446268 -1.600000000
v 4.253348021 1.549697646 -1.600000000
v 3.999946888 1.600086530 -1.600000000
v 3.999900001 1.600077206 -1.600000000
v 3.387626941 1.478326543 -1.600000000
v 3.387587197 1.478299981 -1.600000000
v -2.868693249 1.131446488 -1.600000000
v -2.868732993 1.131473050 -1.600000000
v -3.387733166 1.478326543 -1.600000000
v -3.387780053 1.478335866 -1.600000000
v -4.000053112 1.600086530 -1.600000000
v -4.000099999 1.600077206 -1.600000000
v -4.612373059 1.478326543 -1.600000000
v -4.612412803 1.478299981 -1.600000000
v 5.131306751 -1.131273429 -1.600000000
v 5.131333313 -1.131233685 -1.600000000
v 5.478187092 -0.612233464 -1.600000000
v 5.478196415 -0.612186577 -1.600000000
v 5.599946888 0.000086530 -1.600000000
v 5.599937564 0.000133417 -1.600000000
v 5.478187092 0.612406524 -1.600000000
v 5.478160530 0.612446268 -1.600000000
v 5.131306751 1.131446488 -1.600000000
v 5.131267007 1.131473050 -1.600000000
v 4.612266834 1.478326543 -1.600000000
v 4.612219947 1.478335866 -1.600000000
v 2.868587024 1.131446488 -1.600000000
v 2.868560463 1.131406744 -1.600000000
v 2.521706875 0.612406524 -1.600000000
v 2.521697551 0.612359637 -1.600000000
v 2.399946888 0.000086530 -1.600000000
v 2.399956211 0.000039643 -1.600000000
v -5.781836315 0.914301791 0.000000000
v -5.600040058 0.000065261 -0.000000000
v -5.600883876 -0.004178224 0.000000000
v -5.782680133 -0.918414754 0.000000000
v -5.785084073 -0.922011792 0.000000000
v -1.834276116 1.491817379 0.000000000
v -1.697080043 1.697105247 0.000000000
v -6.303000263 -1.696974725 0.000000000
v -1.693483005 1.699509185 0.000000000
v -0.918520072 2.217425185 0.000000000
v -0.914276588 2.218269004 0.000000000
v -0.778363728 2.245295324 0.000000000
v -0.000040058 2.400065261 0.000000000
v 0.004203427 2.399221443 0.000000000
v 0.918439957 2.217425185 0.000000000
v 0.922036995 2.215021246 0.000000000
v 1.696999928 1.697105247 0.000000000
v 1.699403867 1.693508209 0.000000000
v 2.197123203 0.948765747 0.000000000
v -2.309741701 -0.454036804 0.000000000
v -2.400040058 0.000065261 0.000000000
v -2.399196239 0.004308746 0.000000000
v -2.217399982 0.918545276 0.000000000
v -2.214996043 0.922142314 0.000000000
v -2.309553709 -0.454982199 0.000000000
v -6.306597300 -1.699378664 0.000000000
v 2.197503665 0.948196459 0.000000000
v -2.270810028 -0.649820580 0.000000000
v -7.081560138 -2.217294663 0.000000000
v 2.217319867 0.918545276 0.000000000
v 2.218163685 0.914301791 0.000000000
v 2.237117350 0.818985567 0.000000000
v -7.085803622 -2.218138482 0.000000000
v -8.000040058 -2.399934739 0.000000000
v -8.004283542 -2.399090921 0.000000000
v -8.918519977 -2.217294663 0.000000000
v -8.922117014 -2.214890725 0.000000000
v -9.697079852 -1.696974725 0.000000000
v -9.699483792 -1.693377687 0.000000000
v -10.217399982 -0.918414754 0.000000000
v -5.600040058 0.000065261 0.000462012
v -5.782680133 -0.918414754 0.000462012
v -5.782680133 -0.918414754 1.600462012
v -5.782680133 0.918545276 0.000462012
v -5.600040058 0.000065261 1.600462012
v -6.303000263 -1.696974725 1.600462012
v -6.303000263 -1.696974725 0.000462012
v -8.000040058 0.000065261 1.600462012
v -6.303000263 1.697105247 0.000462012
v -5.782680133 0.918545276 1.600462012
v -7.081560138 -2.217294663 1.600462012
v -7.081560138 -2.217294663 0.000462012
v -6.303000263 1.697105247 1.600462012
v -8.000040058 -2.399934739 1.600462012
v -7.081560138 2.217425185 0.000462012
v -7.081560138 2.217425185 1.600462012
v -8.918519977 -2.217294663 1.600462012
v -8.000040058 -2.399934739 0.000462012
v -8.000040058 2.400065261 1.600462012
v -9.697079852 -1.696974725 1.600462012
v -8.000040058 2.400065261 0.000462012
v -8.918519977 2.217425185 1.600462012
v -8.918519977 -2.217294663 0.000462012
v -10.217399982 -0.918414754 1.600462012
v -8.918519977 2.217425185 0.000462012
v -9.697079852 1.697105247 1.600462012
v -9.697079852 -1.696974725 0.000462012
v -10.400040058 0.000065261 1.600462012
v -9.697079852 1.697105247 0.000462012
v -10.217399982 0.918545276 1.600462012
v -10.217399982 -0.918414754 0.000462012
v -10.217399982 0.918545276 0.000462012
v -10.400040058 0.000065261 0.000462012
v -2.217399982 -0.918414754 0.000462012
v -2.400040058 0.000065261 0.000462012
v -2.400040058 0.000065261 1.600462012
v -1.697080043 -1.696974725 0.000462012
v -2.217399982 -0.918414754 1.600462012
v -2.217399982 0.918545276 1.600462012
v -2.217399982 0.918545276 0.000462012
v -0.000040058 0.000065261 1.600462012
v -0.918520072 -2.217294663 0.000462012
v -1.697080043 -1.696974725 1.600462012
v -1.697080043 1.697105247 1.600462012
v -1.697080043 1.697105247 0.000462012
v -0.918520072 -2.217294663 1.600462012
v -0.918520072 2.217425185 1.600462012
v -0.000040058 -2.399934739 0.000462012
v -0.000040058 -2.399934739 1.600462012
v -0.000040058 2.400065261 1.600462012
v -0.918520072 2.217425185 0.000462012
v 0.918439957 -2.217294663 1.600462012
v 0.918439957 2.217425185 1.600462012
v 0.918439957 -2.217294663 0.000462012
v 1.696999928 -1.696974725 1.600462012
v -0.000040058 2.400065261 0.000462012
v 1.696999928 1.697105247 1.600462012
v 1.696999928 -1.696974725 0.000462012
v 2.217319867 -0.918414754 1.600462012
v 0.918439957 2.217425185 0.000462012
v 2.217319867 0.918545276 1.600462012
v 2.217319867 -0.918414754 0.000462012
v 2.399959942 0.000065261 1.600462012
v 1.696999928 1.697105247 0.000462012
v 2.399959942 0.000065261 0.000462012
v 2.217319867 0.918545276 0.000462012
v 7.999959942 -2.399934739 0.000462012
v 8.918439862 -2.217294663 0.000462012
v 7.081480023 -2.217294663 0.000462012
v 7.999959942 -2.399934739 1.600462012
v 7.081480023 -2.217294663 1.600462012
v 9.696999737 -1.696974725 0.000462012
v 8.918439862 -2.217294663 1.600462012
v 6.302920148 -1.696974725 1.600462012
v 6.302920148 -1.696974725 0.000462012
v 7.999959942 0.000065261 1.600462012
v 10.217319867 -0.918414754 0.000462012
v 9.696999737 -1.696974725 1.600462012
v 5.782600018 -0.918414754 1.600462012
v 5.782600018 -0.918414754 0.000462012
v 10.217319867 -0.918414754 1.600462012
v 5.599959942 0.000065261 1.600462012
v 10.399959942 0.000065261 0.000462012
v 10.399959942 0.000065261 1.600462012
v 5.782600018 0.918545276 1.600462012
v 5.599959942 0.000065261 0.000462012
v 10.217319867 0.918545276 1.600462012
v 6.302920148 1.697105247 1.600462012
v 10.217319867 0.918545276 0.000462012
v 9.696999737 1.697105247 1.600462012
v 5.782600018 0.918545276 0.000462012
v 7.081480023 2.217425185 1.600462012
v 9.696999737 1.697105247 0.000462012
v 8.918439862 2.217425185 1.600462012
v 6.302920148 1.697105247 0.000462012
v 7.999959942 2.400065261 1.600462012
v 8.918439862 2.217425185 0.000462012
v 7.081480023 2.217425185 0.000462012
v 7.999959942 2.400065261 0.000462012
v -4.612373059 1.478326543 -9.599387418
v -5.131412976 1.131446488 -9.599387418
v -4.000053112 0.000086530 -9.599387418
v -4.000053112 1.600086530 -9.599387418
v -5.478293316 0.612406524 -9.599387418
v -3.387733166 1.478326543 -9.599387418
v -5.600053112 0.000086530 -9.599387418
v -2.868693249 1.131446488 -9.599387418
v -5.478293316 -0.612233464 -9.599387418
v -2.521813099 0.612406524 -9.599387418
v -5.131412976 -1.131273429 -9.599387418
v -2.400053112 0.000086530 -9.599387418
v -4.612373059 -1.478153484 -9.599387418
v -2.521813099 -0.612233464 -9.599387418
v -4.000053112 -1.599913470 -9.599387418
v -2.868693249 -1.131273429 -9.599387418
v -3.387733166 -1.478153484 -9.599387418
v 2.399946888 0.000086530 -9.599387418
v 2.521706875 -0.612233464 -9.599387418
v 3.999946888 0.000086530 -9.599387418
v 2.521706875 0.612406524 -9.599387418
v 2.868587024 -1.131273429 -9.599387418
v 2.868587024 1.131446488 -9.599387418
v 3.387626941 -1.478153484 -9.599387418
v 3.387626941 1.478326543 -9.599387418
v 3.999946888 -1.599913470 -9.599387418
v 3.999946888 1.600086530 -9.599387418
v 4.612266834 -1.478153484 -9.599387418
v 4.612266834 1.478326543 -9.599387418
v 5.131306751 -1.131273429 -9.599387418
v 5.131306751 1.131446488 -9.599387418
v 5.478187092 -0.612233464 -9.599387418
v 5.478187092 0.612406524 -9.599387418
v 5.599946888 0.000086530 -9.599387418
f 2 3 1
f 3 4 1
f 4 5 1
f 5 6 1
f 6 7 1
f 7 6 8
f 7 8 9
f 9 10 7
f 10 11 7
f 11 12 7
f 12 13 7
f 13 14 7
f 14 15 7
f 15 14 16
f 16 17 15
f 17 18 15
f 18 19 15
f 19 20 15
f 20 21 15
f 22 23 15
f 15 23 7
f 25 26 24
f 24 26 27
f 25 28 26
f 28 29 26
f 29 22 26
f 29 30 22
f 30 31 22
f 31 32 22
f 32 33 22
f 34 22 33
f 34 35 22
f 35 36 22
f 36 37 22
f 37 38 22
f 38 39 22
f 39 40 22
f 40 41 22
f 41 40 42
f 41 42 43
f 43 44 41
f 44 45 41
f 45 46 41
f 46 47 41
f 47 48 41
f 48 49 41
f 51 27 50
f 51 52 27
f 52 53 27
f 53 54 27
f 54 55 27
f 55 56 27
f 56 24 27
f 50 58 57
f 58 50 27
f 59 41 49
f 60 41 59
f 60 61 41
f 61 62 41
f 62 63 41
f 62 64 63
f 64 65 63
f 65 66 63
f 66 57 63
f 57 58 63
f 63 67 41
f 67 68 41
f 68 69 41
f 69 70 41
f 70 71 41
f 71 72 41
f 72 73 41
f 72 74 73
f 74 75 73
f 75 76 73
f 76 77 73
f 77 78 73
f 78 79 73
f 79 80 73
f 80 81 73
f 82 1 7
f 82 73 1
f 22 83 23
f 7 23 82
f 41 83 22
f 41 73 82
f 83 84 23
f 23 85 82
f 41 86 83
f 41 82 86
f 83 87 84
f 23 84 85
f 82 85 88
f 86 87 83
f 82 88 86
f 89 84 87
f 90 85 84
f 91 88 85
f 86 88 87
f 90 84 89
f 89 87 92
f 91 85 90
f 92 88 91
f 92 87 88
f 94 89 93
f 94 95 89
f 95 96 89
f 96 97 89
f 97 98 89
f 90 89 98
f 98 99 90
f 99 100 90
f 100 101 90
f 102 90 101
f 102 103 90
f 104 90 103
f 104 105 90
f 106 90 105
f 106 91 90
f 107 91 106
f 108 91 107
f 108 109 91
f 110 91 109
f 111 91 110
f 113 111 112
f 113 114 111
f 115 111 114
f 115 91 111
f 116 91 115
f 117 91 116
f 118 112 111
f 112 118 119
f 120 119 118
f 121 91 117
f 123 120 122
f 123 124 120
f 119 120 124
f 125 122 120
f 126 91 121
f 127 91 126
f 128 91 127
f 122 125 129
f 130 129 125
f 131 91 128
f 133 130 132
f 133 134 130
f 134 129 130
f 135 132 130
f 136 91 131
f 138 139 137
f 135 139 138
f 141 92 140
f 137 143 142
f 139 143 137
f 144 92 141
f 144 145 92
f 145 149 92
f 145 146 149
f 146 147 149
f 147 148 149
f 148 142 149
f 143 149 142
f 149 150 92
f 151 92 150
f 151 152 92
f 153 92 152
f 153 89 92
f 154 89 153
f 155 89 154
f 155 156 89
f 93 89 156
f 157 91 136
f 157 158 91
f 158 159 91
f 159 160 91
f 160 161 91
f 92 91 161
f 162 92 161
f 163 92 162
f 163 164 92
f 165 92 164
f 165 166 92
f 167 92 166
f 167 168 92
f 140 92 168
f 169 135 138
f 170 135 169
f 171 135 170
f 171 172 135
f 173 135 172
f 174 135 173
f 132 135 174
f 175 15 21
f 15 175 176
f 176 177 15
f 177 178 15
f 178 179 15
f 181 179 180
f 179 182 180
f 181 183 179
f 183 184 179
f 184 15 179
f 184 185 15
f 185 186 15
f 187 15 186
f 187 188 15
f 188 189 15
f 189 190 15
f 190 191 15
f 191 192 15
f 192 193 15
f 15 193 22
f 195 182 194
f 195 196 182
f 196 197 182
f 197 198 182
f 198 180 182
f 194 182 199
f 199 182 200
f 201 22 193
f 199 200 202
f 202 200 203
f 204 22 201
f 204 205 22
f 205 206 22
f 202 203 81
f 203 73 81
f 26 22 206
f 203 207 73
f 207 208 73
f 208 209 73
f 209 210 73
f 210 211 73
f 211 212 73
f 212 1 73
f 1 212 213
f 1 213 214
f 1 214 2
f 216 177 215
f 177 216 178
f 215 177 176
f 216 215 217
f 178 216 179
f 218 215 175
f 175 215 176
f 217 215 219
f 216 217 220
f 182 179 221
f 179 216 221
f 21 20 218
f 218 175 21
f 215 218 219
f 217 219 222
f 220 217 222
f 216 220 221
f 182 221 200
f 223 218 19
f 19 218 20
f 219 218 224
f 222 219 224
f 220 222 225
f 221 220 225
f 203 200 226
f 221 226 200
f 223 19 18
f 218 223 224
f 222 224 227
f 225 222 228
f 221 225 226
f 203 226 207
f 229 223 17
f 17 223 18
f 224 223 227
f 222 227 230
f 225 228 226
f 228 222 231
f 208 207 232
f 226 232 207
f 229 17 16
f 223 229 227
f 230 227 229
f 222 230 233
f 226 228 232
f 228 231 232
f 231 222 234
f 208 232 209
f 235 229 14
f 14 229 16
f 230 229 235
f 233 230 235
f 222 233 236
f 232 231 237
f 231 234 237
f 234 222 238
f 210 209 237
f 232 237 209
f 235 14 13
f 233 235 239
f 236 233 239
f 222 236 240
f 237 234 241
f 234 238 241
f 238 222 242
f 210 237 211
f 239 235 12
f 12 235 13
f 236 239 243
f 240 236 243
f 222 240 244
f 241 212 211
f 211 237 241
f 241 238 245
f 238 242 245
f 242 222 244
f 239 12 11
f 10 239 11
f 239 10 243
f 240 243 246
f 244 240 246
f 212 241 213
f 245 214 213
f 213 241 245
f 245 242 247
f 242 244 247
f 243 10 9
f 243 9 8
f 8 246 243
f 244 246 247
f 2 245 3
f 214 245 2
f 247 4 3
f 3 245 247
f 246 8 6
f 246 6 5
f 5 247 246
f 4 247 5
f 80 248 81
f 202 81 248
f 199 202 248
f 248 249 199
f 194 199 249
f 249 195 194
f 248 80 79
f 249 248 250
f 195 249 196
f 251 248 78
f 79 78 248
f 250 248 252
f 249 250 253
f 197 196 254
f 249 254 196
f 251 78 77
f 248 251 252
f 250 252 255
f 253 250 255
f 249 253 254
f 197 254 198
f 256 251 76
f 77 76 251
f 252 251 257
f 255 252 257
f 253 255 258
f 254 253 258
f 181 180 259
f 254 259 180
f 198 254 180
f 256 76 75
f 251 256 257
f 255 257 260
f 258 255 261
f 254 258 259
f 181 259 183
f 262 256 74
f 75 74 256
f 257 256 260
f 255 260 263
f 258 261 259
f 261 255 264
f 184 183 265
f 183 259 265
f 262 74 72
f 256 262 260
f 263 260 262
f 255 263 266
f 259 261 265
f 261 264 265
f 264 255 267
f 184 265 185
f 268 262 71
f 72 71 262
f 263 262 268
f 266 263 268
f 255 266 269
f 265 264 270
f 264 267 270
f 267 255 271
f 187 186 270
f 186 265 270
f 265 186 185
f 268 71 70
f 266 268 272
f 269 266 272
f 255 269 273
f 270 267 274
f 267 271 274
f 271 255 275
f 187 270 188
f 272 268 69
f 70 69 268
f 269 272 276
f 273 269 276
f 255 273 277
f 188 274 189
f 274 188 270
f 274 271 278
f 271 275 278
f 275 255 277
f 272 69 68
f 67 272 68
f 272 67 276
f 273 276 279
f 277 273 279
f 189 274 190
f 190 278 191
f 278 190 274
f 278 275 280
f 275 277 280
f 276 67 63
f 58 276 63
f 276 58 279
f 277 279 280
f 191 278 192
f 201 280 204
f 201 193 280
f 193 278 280
f 278 193 192
f 279 58 27
f 26 279 27
f 26 280 279
f 280 26 206
f 280 206 205
f 204 280 205
f 61 60 281
f 49 281 59
f 49 282 281
f 48 282 49
f 60 59 281
f 62 61 283
f 281 283 61
f 282 48 47
f 281 282 284
f 283 281 285
f 62 283 64
f 286 282 46
f 47 46 282
f 284 282 287
f 281 284 285
f 283 285 288
f 65 64 289
f 283 289 64
f 286 46 45
f 282 286 287
f 284 287 290
f 285 284 290
f 288 285 290
f 283 288 289
f 65 289 66
f 291 286 44
f 44 286 45
f 287 286 292
f 290 287 292
f 288 290 293
f 289 288 293
f 51 50 294
f 289 294 50
f 50 57 289
f 66 289 57
f 291 44 43
f 286 291 292
f 290 292 295
f 293 290 296
f 289 293 294
f 51 294 52
f 297 291 42
f 42 291 43
f 292 291 295
f 290 295 298
f 293 296 294
f 296 290 299
f 53 52 300
f 294 300 52
f 297 42 40
f 291 297 295
f 298 295 297
f 290 298 301
f 294 296 300
f 296 299 300
f 299 290 302
f 53 300 54
f 303 297 39
f 39 297 40
f 298 297 303
f 301 298 303
f 290 301 304
f 300 299 305
f 299 302 305
f 302 290 306
f 55 54 305
f 300 305 54
f 303 39 38
f 301 303 307
f 304 301 307
f 290 304 308
f 305 302 309
f 302 306 309
f 306 290 310
f 55 305 56
f 307 303 37
f 37 303 38
f 304 307 311
f 308 304 311
f 290 308 310
f 309 25 24
f 24 305 309
f 56 305 24
f 309 306 312
f 306 310 312
f 307 37 36
f 35 307 36
f 307 35 311
f 308 311 313
f 310 308 313
f 25 309 28
f 28 312 29
f 312 28 309
f 312 310 313
f 311 35 34
f 33 311 34
f 33 313 311
f 313 33 32
f 29 312 30
f 30 313 31
f 313 30 312
f 313 32 31
f 314 315 156
f 314 156 155
f 314 155 154
f 315 314 316
f 93 315 94
f 315 93 156
f 317 154 153
f 154 317 314
f 316 314 317
f 315 316 318
f 315 318 95
f 94 315 95
f 317 153 152
f 316 317 319
f 318 316 320
f 95 318 96
f 319 152 151
f 152 319 317
f 316 319 321
f 96 318 97
f 320 97 318
f 320 316 322
f 319 151 150
f 149 321 150
f 150 321 319
f 316 321 323
f 97 320 98
f 98 320 99
f 322 99 320
f 322 316 324
f 321 149 143
f 139 323 143
f 143 323 321
f 316 323 325
f 99 322 100
f 100 322 101
f 324 101 322
f 324 316 326
f 130 323 135
f 135 323 139
f 125 325 130
f 130 325 323
f 316 325 327
f 101 324 102
f 102 324 103
f 326 103 324
f 326 316 328
f 325 125 120
f 118 327 120
f 120 327 325
f 316 327 329
f 103 326 104
f 104 326 105
f 328 105 326
f 328 316 330
f 327 118 111
f 110 329 111
f 111 329 327
f 316 329 330
f 105 328 106
f 106 328 107
f 330 107 328
f 329 110 109
f 108 330 109
f 329 109 330
f 107 330 108
f 332 174 331
f 173 331 174
f 331 173 172
f 332 331 333
f 132 332 133
f 132 174 332
f 334 172 171
f 331 172 334
f 333 331 334
f 332 333 335
f 332 335 134
f 133 332 134
f 334 171 170
f 333 334 336
f 335 333 337
f 122 335 123
f 122 129 335
f 129 134 335
f 336 170 169
f 334 170 336
f 333 336 338
f 123 335 124
f 337 124 335
f 337 333 339
f 137 336 138
f 138 336 169
f 336 137 142
f 142 148 336
f 147 338 148
f 148 338 336
f 333 338 340
f 112 337 113
f 112 119 337
f 119 124 337
f 113 337 114
f 339 114 337
f 339 333 341
f 338 147 146
f 145 340 146
f 146 340 338
f 333 340 342
f 114 339 115
f 115 339 116
f 341 116 339
f 341 333 343
f 141 340 144
f 144 340 145
f 340 141 140
f 340 140 168
f 167 342 168
f 168 342 340
f 333 342 344
f 121 341 126
f 121 117 341
f 116 341 117
f 126 341 127
f 343 127 341
f 343 333 345
f 342 167 166
f 165 344 166
f 166 344 342
f 333 344 346
f 136 343 157
f 136 131 343
f 131 128 343
f 127 343 128
f 157 343 158
f 158 343 345
f 345 333 347
f 344 165 164
f 163 346 164
f 164 346 344
f 333 346 347
f 158 345 159
f 159 345 160
f 160 345 347
f 346 163 162
f 161 347 162
f 162 347 346
f 160 347 161
