# BrickSuite developer Prepared OBJ
# Z-up millimetres; canonical nominal 100% scale
v 3.200000000 2.400000000 -1.600000000
v 6.400000000 -2.400000000 -1.600000000
v 3.200000000 -2.400000000 -1.600000000
v 6.400000000 -2.400000000 -9.600000000
v 6.400000000 2.400000000 -1.600000000
v 3.200000000 -2.400000000 -4.000000000
v 6.400000000 2.400000000 -9.600000000
v 3.200000000 2.400000000 -4.000000000
v 8.000000000 4.000000000 -9.600000000
v 3.200000000 -2.400000000 -7.200000000
v 2.956480026 -2.400000000 -5.224639893
v -6.400000000 2.400000000 -9.600000000
v 8.000000000 -4.000000000 -9.600000000
v 0.000000000 -2.400000000 -7.200000000
v 3.200000000 2.400000000 -7.200000000
v 2.956480026 2.400000000 -5.224639893
v -3.200000000 2.400000000 -7.200000000
v -8.000000000 4.000000000 -9.600000000
v -6.400000000 -2.400000000 -9.600000000
v 8.000000000 -4.000000000 0.000000000
v -3.200000000 -2.400000000 -7.200000000
v 1.224639988 -2.400000000 -6.956480408
v 2.262719917 -2.400000000 -6.262719727
v 0.000000000 2.400000000 -7.200000000
v -6.400000000 2.400000000 -1.600000000
v -3.200000000 4.000000000 -7.200000000
v -8.000000000 -4.000000000 -9.600000000
v 8.000000000 -1.652698399 0.000000000
v 8.000000000 4.000000000 0.000000000
v 3.200000000 -4.000000000 -0.800000000
v -1.224639988 -2.400000000 -6.956480408
v 0.215030358 -1.557184376 -7.157241226
v 0.612288932 -1.478189407 -7.078246381
v 1.129771495 -1.132350181 -6.975345002
v 1.131328896 -1.131309352 -6.975035313
v 1.131760033 -1.130664239 -6.974949582
v 1.224639988 -0.991686916 -6.956480408
v 1.224639988 0.991788128 -6.956480408
v 1.131760033 1.130765451 -6.974949582
v 1.224639988 2.400000000 -6.956480408
v 1.131328896 1.131410565 -6.975035313
v 0.934535469 1.262929753 -7.014167675
v 2.262719917 2.400000000 -6.262719727
v -1.224639988 2.400000000 -6.956480408
v -3.200000000 2.400000000 -4.000000000
v -0.000023973 4.000000000 -7.200081171
v -0.000432031 4.000000000 -7.200000000
v 3.200000000 4.000000000 -7.200000000
v 0.000384116 4.000000000 -7.200000000
v -3.200000000 4.000000000 -3.999567969
v -3.200081171 4.000000000 -3.999976027
v -3.200000000 4.000000000 -0.800000000
v -3.200000000 4.000000000 -4.000384116
v -6.400000000 -2.400000000 -1.600000000
v -3.200000000 -4.000000000 -7.200000000
v 3.200000000 4.000000000 -0.800000000
v 4.572450571 2.286225285 0.000000000
v 4.918439862 2.217425185 0.000000000
v 4.922036899 2.215021246 0.000000000
v 5.696999737 1.697105247 0.000000000
v 5.699403677 1.693508209 0.000000000
v 6.217319867 0.918545276 0.000000000
v 6.218163685 0.914301791 0.000000000
v 6.399959942 0.000065261 0.000000000
v 6.399116124 -0.004178224 0.000000000
v 6.217741806 -0.916292862 0.000000000
v 5.478762691 -0.609425743 0.000000000
v 5.599959942 0.000065261 0.000000000
v 5.599397398 0.002894251 0.000000000
v 2.866997452 1.129027194 0.000000000
v 2.521438657 0.610970760 0.000000000
v 5.478481419 -0.610840238 0.000000000
v 2.521719929 0.612385255 0.000000000
v 5.128921781 1.133027846 0.000000000
v 5.476597519 0.614783280 0.000000000
v 5.478200146 0.612385255 0.000000000
v 5.131319806 1.131425220 0.000000000
v 3.997130953 1.599502716 0.000000000
v 4.609450899 1.478867819 0.000000000
v 4.612279889 1.478305274 0.000000000
v 3.999959942 1.600065261 0.000000000
v 3.385241971 1.476702648 0.000000000
v 3.387639996 1.478305274 0.000000000
v 2.868600079 1.131425220 0.000000000
v 3.200000000 -4.000000000 -3.999615884
v 3.200081171 -4.000000000 -4.000023973
v 3.200000000 -4.000000000 -4.000432031
v 3.200000000 -4.000000000 -7.200000000
v -0.000384116 -4.000000000 -0.800000000
v 0.000023973 -4.000000000 -0.799918829
v -3.200000000 -4.000000000 -0.800000000
v 0.000432031 -4.000000000 -0.800000000
v -0.934522457 -1.262878755 -7.014170262
v -0.613163372 -1.477646528 -7.078072498
v -0.612351056 -1.478189407 -7.078234027
v -0.001801680 -1.599597306 -7.199641736
v -0.000031062 -1.599949394 -7.199993823
v 0.000000000 -1.599943217 -7.200000000
v 0.000000000 1.600044429 -7.200000000
v -0.000031062 1.600050606 -7.199993823
v -0.000116554 1.600033606 -7.199976823
v -0.001801680 1.599698518 -7.199641736
v -0.214999835 1.557304011 -7.157247295
v -2.262719917 -2.400000000 -6.262719727
v 1.224842129 -0.991384450 -6.956345315
v 1.478208951 -0.612269388 -6.787017372
v 1.599857598 -0.000509308 -6.705718190
v 1.599968938 0.000050606 -6.705643781
v 1.478302526 0.611900021 -6.786954835
v 1.478208951 0.612370600 -6.787017372
v 1.224842129 0.991485663 -6.956345315
v 0.613129749 1.477728692 -7.078079184
v 0.612288932 1.478290619 -7.078246381
v 0.001801680 1.599686165 -7.199641736
v 0.000057429 -1.599931797 -7.199988580
v 0.001801680 -1.599584953 -7.199641736
v -0.612351056 1.478290619 -7.078234027
v -1.129886280 1.132416200 -6.975322177
v -1.131391021 1.131410565 -6.975022960
v -1.131807579 1.130787265 -6.974940127
v -1.224639988 0.991881086 -6.956480408
v -1.131807579 -1.130686052 -6.974940127
v -1.224639988 -0.991779874 -6.956480408
v -1.131391021 -1.131309352 -6.975022960
v -2.262719917 2.400000000 -6.262719727
v -3.200000000 2.400000000 -1.600000000
v -2.956480026 2.400000000 -5.224639893
v -8.000000000 4.000000000 0.000000000
v 3.200000000 4.000000000 -4.000432031
v 3.200081171 4.000000000 -4.000023973
v 3.200000000 4.000000000 -3.999615884
v -3.200000000 -2.400000000 -4.000000000
v 0.000384116 -4.000000000 -7.200000000
v -0.000023973 -4.000000000 -7.200081171
v -0.000432031 -4.000000000 -7.200000000
v -3.200000000 -4.000000000 -4.000384116
v -3.200081171 -4.000000000 -3.999976027
v -3.200000000 -4.000000000 -3.999567969
v 0.000023973 4.000000000 -0.799918829
v 0.000432031 4.000000000 -0.800000000
v -0.000384116 4.000000000 -0.800000000
v 1.782600018 0.918545276 0.000000000
v 1.785003957 0.922142314 0.000000000
v 1.776584159 0.888292080 0.000000000
v -4.572286600 -2.286143300 0.000000000
v -4.918519977 -2.217294663 0.000000000
v -4.922117014 -2.214890725 0.000000000
v -5.697079852 -1.696974725 0.000000000
v -5.699483792 -1.693377687 0.000000000
v -6.217399982 -0.918414754 0.000000000
v -6.218243800 -0.914171269 0.000000000
v -6.400040058 0.000065261 0.000000000
v -6.399196239 0.004308746 0.000000000
v -6.217821921 0.916423384 0.000000000
v -8.000000000 1.652795819 0.000000000
v -8.000000000 -4.000000000 0.000000000
v -5.478842806 0.609556265 0.000000000
v -5.600040058 0.000065261 0.000000000
v -5.599477513 -0.002763729 0.000000000
v -5.478280261 -0.612254733 0.000000000
v -5.476677634 -0.614652758 0.000000000
v -5.131399921 -1.131294698 0.000000000
v -5.129001896 -1.132897324 0.000000000
v -4.612360004 -1.478174752 0.000000000
v -4.609531014 -1.478737298 0.000000000
v -4.000040058 -1.599934739 0.000000000
v -3.997211068 -1.599372194 0.000000000
v -3.387720111 -1.478174752 0.000000000
v -3.385322086 -1.476572126 0.000000000
v -2.868680194 -1.131294698 0.000000000
v -2.867077567 -1.128896673 0.000000000
v -2.521800044 -0.612254733 0.000000000
v -2.521518772 -0.610840238 0.000000000
v -5.478561534 0.610970760 0.000000000
v 2.302919957 1.697105247 0.000000000
v 2.306516995 1.699509185 0.000000000
v 3.081480023 2.217425185 0.000000000
v 3.085723507 2.218269004 0.000000000
v 3.999959942 2.400065261 0.000000000
v 4.004203427 2.399221443 0.000000000
v -1.224878759 0.991523810 -6.956320834
v -1.478271075 0.612370600 -6.786975853
v -1.599931964 0.000548965 -6.705668491
v -1.600031062 0.000050606 -6.705602262
v -1.478354425 -0.611850232 -6.786920150
v -1.478271075 -0.612269388 -6.786975853
v -1.224878759 -0.991422597 -6.956320834
v -2.956480026 -2.400000000 -5.224639893
v -3.200000000 -2.400000000 -1.600000000
v 1.088527023 4.000000000 -6.983563393
v 1.224595898 4.000000000 -6.956498670
v 2.147428117 4.000000000 -6.339891895
v 2.262782145 4.000000000 -6.262816048
v 2.262795725 4.000000000 -6.262795725
v -2.262795725 4.000000000 -6.262795725
v -1.339993067 4.000000000 -6.879402747
v -1.224640195 4.000000000 -6.956480322
v -0.136092442 4.000000000 -7.173014410
v 2.983563393 4.000000000 -2.911472977
v 2.956498670 4.000000000 -2.775404102
v 2.339891895 4.000000000 -1.852571883
v 2.262816048 4.000000000 -1.737217855
v 2.262795725 4.000000000 -1.737204275
v 2.879402747 4.000000000 -5.339993067
v 2.956480322 4.000000000 -5.224640195
v 3.173014410 4.000000000 -4.136092442
v -1.088527023 4.000000000 -1.016436607
v -1.224595898 4.000000000 -1.043501330
v -2.147428117 4.000000000 -1.660108105
v -2.262782145 4.000000000 -1.737183952
v -2.262795725 4.000000000 -1.737204275
v 1.339993067 4.000000000 -1.120597253
v 1.224640195 4.000000000 -1.043519678
v 0.136092442 4.000000000 -0.826985590
v -2.879402747 4.000000000 -2.660006933
v -2.956480322 4.000000000 -2.775359805
v -3.173014410 4.000000000 -3.863907558
v -2.983563393 4.000000000 -5.088527023
v -2.956498670 4.000000000 -5.224595898
v -2.339891895 4.000000000 -6.147428117
v -2.262816048 4.000000000 -6.262782145
v 2.983547083 -4.000000000 -5.088571726
v 2.956480322 -4.000000000 -5.224640195
v 2.339859720 -4.000000000 -6.147463176
v 2.262795725 -4.000000000 -6.262795725
v 2.262795725 -4.000000000 -1.737204275
v 2.262816048 -4.000000000 -1.737217855
v 2.879422824 -4.000000000 -2.660050075
v 2.956498670 -4.000000000 -2.775404102
v 3.173016449 -4.000000000 -3.863955099
v -1.088571726 -4.000000000 -6.983547083
v -1.224640195 -4.000000000 -6.956480322
v -2.147463176 -4.000000000 -6.339859720
v -2.262795725 -4.000000000 -6.262795725
v 2.262782145 -4.000000000 -6.262816048
v 1.339949925 -4.000000000 -6.879422824
v 1.224595898 -4.000000000 -6.956498670
v 0.136044901 -4.000000000 -7.173016449
v -2.983547083 -4.000000000 -2.911428274
v -2.956480322 -4.000000000 -2.775359805
v -2.339859720 -4.000000000 -1.852536824
v -2.262795725 -4.000000000 -1.737204275
v -2.262816048 -4.000000000 -6.262782145
v -2.879422824 -4.000000000 -5.339949925
v -2.956498670 -4.000000000 -5.224595898
v -3.173016449 -4.000000000 -4.136044901
v -2.262782145 -4.000000000 -1.737183952
v -1.339949925 -4.000000000 -1.120577176
v -1.224595898 -4.000000000 -1.043501330
v -0.136044901 -4.000000000 -0.826983551
v 1.088571726 -4.000000000 -1.016452917
v 1.224640195 -4.000000000 -1.043519678
v 2.147463176 -4.000000000 -1.660140280
v -0.000023973 3.200000000 -7.200081171
v 1.224595898 3.200000000 -6.956498670
v -0.000017980 3.200000000 -6.400060535
v -1.224640195 3.200000000 -6.956480322
v -0.918480015 3.200000000 -6.217359924
v 0.918446792 3.200000000 -6.217373686
v 2.262782145 3.200000000 -6.262816048
v -0.918480015 -3.200000000 -6.217359924
v -0.000017980 -3.200000000 -6.400060535
v -2.262816048 3.200000000 -6.262782145
v -1.697111793 3.200000000 -5.697086366
v -1.697111793 -3.200000000 -5.697086366
v 1.697086366 3.200000000 -5.697111793
v 0.918446792 -3.200000000 -6.217373686
v 2.956480322 3.200000000 -5.224640195
v -2.262816048 -3.200000000 -6.262782145
v -1.224640195 -3.200000000 -6.956480322
v -0.000023973 -3.200000000 -7.200081171
v -2.956498670 3.200000000 -5.224595898
v -2.217373686 3.200000000 -4.918446792
v -2.217373686 -3.200000000 -4.918446792
v -2.956498670 -3.200000000 -5.224595898
v 2.217359924 3.200000000 -4.918480015
v 1.697086366 -3.200000000 -5.697111793
v 1.224595898 -3.200000000 -6.956498670
v 3.200081171 3.200000000 -4.000023973
v -3.200081171 3.200000000 -3.999976027
v -2.400060535 3.200000000 -3.999982020
v -2.400060535 -3.200000000 -3.999982020
v -3.200081171 -3.200000000 -3.999976027
v 2.400060535 3.200000000 -4.000017980
v 2.217359924 -3.200000000 -4.918480015
v 2.262782145 -3.200000000 -6.262816048
v 2.956498670 3.200000000 -2.775404102
v -2.956480322 3.200000000 -2.775359805
v -2.217359924 3.200000000 -3.081519985
v -2.217359924 -3.200000000 -3.081519985
v -2.956480322 -3.200000000 -2.775359805
v 2.217373686 3.200000000 -3.081553208
v 2.400060535 -3.200000000 -4.000017980
v 2.956480322 -3.200000000 -5.224640195
v 2.262816048 3.200000000 -1.737217855
v -2.262782145 3.200000000 -1.737183952
v -1.697086366 3.200000000 -2.302888207
v -1.697086366 -3.200000000 -2.302888207
v -2.262782145 -3.200000000 -1.737183952
v 1.697111793 3.200000000 -2.302913634
v 2.217373686 -3.200000000 -3.081553208
v 3.200081171 -3.200000000 -4.000023973
v 1.224640195 3.200000000 -1.043519678
v -1.224595898 3.200000000 -1.043501330
v -0.918446792 3.200000000 -1.782626314
v -0.918446792 -3.200000000 -1.782626314
v -1.224595898 -3.200000000 -1.043501330
v 0.918480015 3.200000000 -1.782640076
v 1.697111793 -3.200000000 -2.302913634
v 2.956498670 -3.200000000 -2.775404102
v 0.000023973 3.200000000 -0.799918829
v 0.000017980 3.200000000 -1.599939465
v 0.000017980 -3.200000000 -1.599939465
v 0.000023973 -3.200000000 -0.799918829
v 0.918480015 -3.200000000 -1.782640076
v 2.262816048 -3.200000000 -1.737217855
v 1.224640195 -3.200000000 -1.043519678
v -1.478271075 0.612370600 -7.199641736
v -1.600031062 0.000050606 -7.199641736
v -1.600031062 0.000050606 -9.599641736
v -1.131391021 1.131410565 -7.199641736
v -1.478271075 -0.612269388 -9.599641736
v -1.478271075 0.612370600 -9.599641736
v -1.478271075 -0.612269388 -7.199641736
v -0.612351056 1.478290619 -7.199641736
v -0.000031062 0.000050606 -9.599641736
v -1.131391021 1.131410565 -9.599641736
v -1.131391021 -1.131309352 -9.599641736
v -0.612351056 1.478290619 -9.599641736
v -0.612351056 -1.478189407 -9.599641736
v -1.131391021 -1.131309352 -7.199641736
v -0.000031062 -1.599949394 -9.599641736
v -0.000031062 1.600050606 -9.599641736
v -0.612351056 -1.478189407 -7.199641736
v 0.612288932 -1.478189407 -9.599641736
v 0.612288932 1.478290619 -9.599641736
v 0.612288932 1.478290619 -7.199641736
v 1.131328896 -1.131309352 -9.599641736
v 1.131328896 1.131410565 -9.599641736
v 0.612288932 -1.478189407 -7.199641736
v 1.478208951 -0.612269388 -9.599641736
v 1.131328896 1.131410565 -7.199641736
v 1.478208951 0.612370600 -9.599641736
v 1.131328896 -1.131309352 -7.199641736
v 1.599968938 0.000050606 -9.599641736
v 1.478208951 0.612370600 -7.199641736
v 1.478208951 -0.612269388 -7.199641736
v 1.599968938 0.000050606 -7.199641736
v 6.217319867 -0.918414754 0.000000000
v 6.214915927 -0.922011792 0.000000000
v 5.696999737 -1.696974725 0.000000000
v 5.693402700 -1.699378664 0.000000000
v 4.918439862 -2.217294663 0.000000000
v 4.914196378 -2.218138482 0.000000000
v 3.999959942 -2.399934739 0.000000000
v 3.995716458 -2.399090921 0.000000000
v 3.081480023 -2.217294663 0.000000000
v 3.077882985 -2.214890725 0.000000000
v 2.302919957 -1.696974725 0.000000000
v 2.300516018 -1.693377687 0.000000000
v 1.782600018 -0.918414754 0.000000000
v 1.781756200 -0.914171269 0.000000000
v -2.237447051 -1.598887078 0.000000000
v -2.303000072 -1.696974725 0.000000000
v -2.306597110 -1.699378664 0.000000000
v -3.081560138 -2.217294663 0.000000000
v -3.085803622 -2.218138482 0.000000000
v -4.000040058 -2.399934739 0.000000000
v -4.004283542 -2.399090921 0.000000000
v -4.108270916 -2.378412992 0.000000000
v 1.599959942 0.000065261 0.000000000
v -2.235282570 -1.595648344 0.000000000
v 1.600803761 0.004308746 0.000000000
v -4.110832231 -2.377903674 0.000000000
v -1.782680133 -0.918414754 0.000000000
v -1.785084072 -0.922011792 0.000000000
v -1.776701939 -0.888350970 0.000000000
v 2.521157384 0.609556265 0.000000000
v 2.399959942 0.000065261 0.000000000
v 2.400522488 -0.002763729 0.000000000
v 5.132922433 -1.128896673 0.000000000
v 5.478200146 -0.612254733 0.000000000
v 2.870998104 -1.132897324 0.000000000
v 2.523322556 -0.614652758 0.000000000
v 2.521719929 -0.612254733 0.000000000
v 2.868600079 -1.131294698 0.000000000
v 4.002788932 -1.599372194 0.000000000
v 3.390468986 -1.478737298 0.000000000
v 3.387639996 -1.478174752 0.000000000
v 3.999959942 -1.599934739 0.000000000
v 4.614677914 -1.476572126 0.000000000
v 4.612279889 -1.478174752 0.000000000
v 5.131319806 -1.131294698 0.000000000
v 5.131319806 1.131425220 0.000462012
v 5.478200146 0.612385255 0.000462012
v 5.131319806 1.131425220 1.600462012
v 5.599959942 0.000065261 0.000462012
v 4.612279889 1.478305274 1.600462012
v 5.478200146 0.612385255 1.600462012
v 4.612279889 1.478305274 0.000462012
v 4.918439862 2.217425185 1.600462012
v 5.696999737 1.697105247 1.600462012
v 5.478200146 -0.612254733 0.000462012
v 5.599959942 0.000065261 1.600462012
v 3.999959942 2.400065261 1.600462012
v 3.999959942 1.600065261 1.600462012
v 6.217319867 0.918545276 1.600462012
v 3.999959942 1.600065261 0.000462012
v 5.696999737 1.697105247 0.000462012
v 4.918439862 2.217425185 0.000462012
v 6.217319867 0.918545276 0.000462012
v 5.131319806 -1.131294698 0.000462012
v 5.478200146 -0.612254733 1.600462012
v 6.399959942 0.000065261 1.600462012
v 3.999959942 2.400065261 0.000462012
v 3.081480023 2.217425185 1.600462012
v 3.387639996 1.478305274 1.600462012
v 6.399959942 0.000065261 0.000462012
v 3.387639996 1.478305274 0.000462012
v 4.612279889 -1.478174752 0.000462012
v 5.131319806 -1.131294698 1.600462012
v 6.217319867 -0.918414754 1.600462012
v 6.217319867 -0.918414754 0.000462012
v 3.081480023 2.217425185 0.000462012
v 2.302919957 1.697105247 1.600462012
v 2.868600079 1.131425220 1.600462012
v 2.868600079 1.131425220 0.000462012
v 3.999959942 -1.599934739 0.000462012
v 4.612279889 -1.478174752 1.600462012
v 5.696999737 -1.696974725 1.600462012
v 5.696999737 -1.696974725 0.000462012
v 2.302919957 1.697105247 0.000462012
v 1.782600018 0.918545276 1.600462012
v 2.521719929 0.612385255 1.600462012
v 2.521719929 0.612385255 0.000462012
v 3.387639996 -1.478174752 0.000462012
v 3.999959942 -1.599934739 1.600462012
v 4.918439862 -2.217294663 1.600462012
v 4.918439862 -2.217294663 0.000462012
v 1.782600018 0.918545276 0.000462012
v 1.599959942 0.000065261 1.600462012
v 2.399959942 0.000065261 1.600462012
v 2.399959942 0.000065261 0.000462012
v 2.868600079 -1.131294698 0.000462012
v 3.387639996 -1.478174752 1.600462012
v 3.999959942 -2.399934739 1.600462012
v 3.999959942 -2.399934739 0.000462012
v 1.599959942 0.000065261 0.000462012
v 1.782600018 -0.918414754 1.600462012
v 2.521719929 -0.612254733 1.600462012
v 2.521719929 -0.612254733 0.000462012
v 2.868600079 -1.131294698 1.600462012
v 3.081480023 -2.217294663 1.600462012
v 3.081480023 -2.217294663 0.000462012
v 1.782600018 -0.918414754 0.000462012
v 2.302919957 -1.696974725 1.600462012
v 2.302919957 -1.696974725 0.000462012
v -6.217399982 0.918545276 0.000000000
v -6.214996042 0.922142314 0.000000000
v -5.697079852 1.697105247 0.000000000
v -5.693482815 1.699509185 0.000000000
v -4.918519977 2.217425185 0.000000000
v -4.914276493 2.218269004 0.000000000
v -4.000040058 2.400065261 0.000000000
v -3.995796573 2.399221443 0.000000000
v -3.081560138 2.217425185 0.000000000
v -3.077963100 2.215021246 0.000000000
v -2.303000072 1.697105247 0.000000000
v -2.300596133 1.693508209 0.000000000
v -1.782680133 0.918545276 0.000000000
v -1.781836315 0.914301791 0.000000000
v -1.600040058 0.000065261 0.000000000
v -1.600883876 -0.004178224 0.000000000
v -2.521237499 -0.609425743 0.000000000
v -2.400040058 0.000065261 0.000000000
v -2.400602603 0.002894251 0.000000000
v -2.521800044 0.612385255 0.000000000
v -2.523402671 0.614783280 0.000000000
v -2.868680194 1.131425220 0.000000000
v -2.871078219 1.133027846 0.000000000
v -3.387720111 1.478305274 0.000000000
v -3.390549101 1.478867819 0.000000000
v -4.000040058 1.600065261 0.000000000
v -4.002869047 1.599502716 0.000000000
v -4.612360004 1.478305274 0.000000000
v -4.614758029 1.476702648 0.000000000
v -5.131399921 1.131425220 0.000000000
v -5.133002548 1.129027194 0.000000000
v -5.478280261 0.612385255 0.000000000
v -5.478280261 0.612385255 0.000462012
v -5.131399921 1.131425220 0.000462012
v -5.600040058 0.000065261 0.000462012
v -5.478280261 0.612385255 1.600462012
v -5.600040058 0.000065261 1.600462012
v -4.612360004 1.478305274 0.000462012
v -5.131399921 1.131425220 1.600462012
v -5.478280261 -0.612254733 1.600462012
v -5.478280261 -0.612254733 0.000462012
v -6.400040058 0.000065261 1.600462012
v -6.217399982 0.918545276 1.600462012
v -6.217399982 -0.918414754 1.600462012
v -4.000040058 1.600065261 0.000462012
v -4.612360004 1.478305274 1.600462012
v -5.697079852 1.697105247 1.600462012
v -5.697079852 -1.696974725 1.600462012
v -5.131399921 -1.131294698 1.600462012
v -5.131399921 -1.131294698 0.000462012
v -6.217399982 0.918545276 0.000462012
v -6.400040058 0.000065261 0.000462012
v -5.697079852 1.697105247 0.000462012
v -6.217399982 -0.918414754 0.000462012
v -3.387720111 1.478305274 0.000462012
v -4.000040058 1.600065261 1.600462012
v -4.918519977 2.217425185 1.600462012
v -4.918519977 2.217425185 0.000462012
v -5.697079852 -1.696974725 0.000462012
v -4.918519977 -2.217294663 1.600462012
v -4.612360004 -1.478174752 1.600462012
v -4.612360004 -1.478174752 0.000462012
v -2.868680194 1.131425220 0.000462012
v -3.387720111 1.478305274 1.600462012
v -4.000040058 2.400065261 1.600462012
v -4.000040058 2.400065261 0.000462012
v -4.918519977 -2.217294663 0.000462012
v -4.000040058 -2.399934739 1.600462012
v -4.000040058 -1.599934739 1.600462012
v -4.000040058 -1.599934739 0.000462012
v -2.521800044 0.612385255 0.000462012
v -2.868680194 1.131425220 1.600462012
v -3.081560138 2.217425185 1.600462012
v -3.081560138 2.217425185 0.000462012
v -4.000040058 -2.399934739 0.000462012
v -3.081560138 -2.217294663 1.600462012
v -3.387720111 -1.478174752 1.600462012
v -3.387720111 -1.478174752 0.000462012
v -2.400040058 0.000065261 0.000462012
v -2.521800044 0.612385255 1.600462012
v -2.303000072 1.697105247 1.600462012
v -2.303000072 1.697105247 0.000462012
v -3.081560138 -2.217294663 0.000462012
v -2.303000072 -1.696974725 1.600462012
v -2.868680194 -1.131294698 1.600462012
v -2.868680194 -1.131294698 0.000462012
v -2.521800044 -0.612254733 0.000462012
v -2.400040058 0.000065261 1.600462012
v -1.782680133 0.918545276 1.600462012
v -1.782680133 0.918545276 0.000462012
v -2.303000072 -1.696974725 0.000462012
v -1.782680133 -0.918414754 1.600462012
v -2.521800044 -0.612254733 1.600462012
v -1.600040058 0.000065261 1.600462012
v -1.600040058 0.000065261 0.000462012
v -1.782680133 -0.918414754 0.000462012
f 2 3 1
f 4 3 2
f 2 1 5
f 6 1 3
f 2 7 4
f 6 3 4
f 2 5 7
f 7 5 1
f 6 8 1
f 9 4 7
f 10 6 4
f 1 8 7
f 11 8 6
f 9 7 12
f 9 13 4
f 14 10 4
f 11 6 10
f 8 15 7
f 11 16 8
f 7 17 12
f 9 12 18
f 13 19 4
f 20 13 9
f 21 14 4
f 14 22 10
f 23 11 10
f 15 24 7
f 16 15 8
f 23 16 11
f 24 17 7
f 17 25 12
f 18 12 19
f 9 18 26
f 4 19 21
f 13 27 19
f 20 9 28
f 28 9 29
f 13 20 30
f 31 14 21
f 33 14 32
f 33 22 14
f 33 34 22
f 35 22 34
f 35 36 22
f 36 37 22
f 39 40 38
f 41 40 39
f 42 40 41
f 22 23 10
f 24 15 40
f 43 15 16
f 23 43 16
f 44 17 24
f 25 19 12
f 17 45 25
f 18 19 27
f 26 47 46
f 46 9 26
f 46 48 9
f 48 46 49
f 51 18 50
f 18 52 50
f 51 53 18
f 53 26 18
f 21 19 54
f 13 55 27
f 9 56 29
f 58 29 57
f 58 59 29
f 59 60 29
f 60 61 29
f 61 62 29
f 62 63 29
f 63 28 29
f 28 63 64
f 28 64 65
f 28 65 66
f 68 69 67
f 69 70 67
f 70 71 67
f 67 71 72
f 71 70 73
f 70 69 74
f 74 69 75
f 75 69 76
f 74 75 77
f 70 74 78
f 78 74 79
f 79 74 80
f 78 79 81
f 70 78 82
f 82 78 83
f 70 82 84
f 85 13 30
f 86 13 85
f 86 87 13
f 88 13 87
f 90 91 89
f 90 20 91
f 30 20 90
f 92 30 90
f 94 31 93
f 94 95 31
f 14 31 95
f 95 96 14
f 97 14 96
f 98 14 97
f 100 24 99
f 100 101 24
f 102 24 101
f 103 24 102
f 104 31 21
f 105 22 37
f 105 106 22
f 106 107 22
f 43 22 107
f 108 43 107
f 108 109 43
f 109 110 43
f 40 43 110
f 110 111 40
f 38 40 111
f 112 40 42
f 112 113 40
f 24 40 113
f 113 114 24
f 99 24 114
f 115 14 98
f 115 116 14
f 32 14 116
f 22 43 23
f 40 15 43
f 117 24 103
f 44 24 117
f 118 44 117
f 119 44 118
f 120 44 119
f 121 44 120
f 31 123 122
f 124 31 122
f 93 31 124
f 125 17 44
f 25 54 19
f 45 126 25
f 45 17 127
f 128 18 27
f 129 9 48
f 9 129 130
f 130 131 9
f 131 56 9
f 18 128 52
f 132 21 54
f 134 88 133
f 134 13 88
f 134 55 13
f 135 55 134
f 136 27 55
f 136 137 27
f 137 138 27
f 91 27 138
f 56 140 139
f 56 139 29
f 139 52 29
f 139 141 52
f 143 128 142
f 128 144 142
f 146 156 145
f 146 147 156
f 147 148 156
f 148 149 156
f 149 150 156
f 150 151 156
f 151 155 156
f 155 151 152
f 155 152 153
f 155 153 154
f 158 159 157
f 159 171 157
f 171 173 157
f 157 173 174
f 173 171 172
f 171 159 163
f 163 159 161
f 161 159 160
f 163 161 162
f 171 163 167
f 167 163 165
f 165 163 164
f 167 165 166
f 171 167 169
f 169 167 168
f 171 169 170
f 143 175 128
f 175 176 128
f 176 177 128
f 177 178 128
f 178 29 128
f 29 178 179
f 179 180 29
f 180 57 29
f 20 156 91
f 181 44 121
f 181 182 44
f 182 183 44
f 104 44 183
f 184 104 183
f 184 185 104
f 185 186 104
f 31 104 186
f 186 187 31
f 123 31 187
f 188 104 21
f 104 125 44
f 127 17 125
f 25 189 54
f 25 126 189
f 45 189 126
f 132 45 127
f 27 155 128
f 27 156 155
f 29 52 128
f 189 132 54
f 132 188 21
f 27 91 156
f 188 125 104
f 188 127 125
f 45 132 189
f 132 127 188
f 190 48 49
f 48 190 191
f 191 192 48
f 192 193 48
f 193 194 48
f 196 26 195
f 196 197 26
f 197 198 26
f 198 47 26
f 199 56 131
f 56 199 200
f 200 201 56
f 201 202 56
f 202 203 56
f 204 48 194
f 48 204 205
f 205 206 48
f 206 129 48
f 207 52 141
f 52 207 208
f 208 209 52
f 209 210 52
f 210 211 52
f 212 56 203
f 56 212 213
f 213 214 56
f 214 140 56
f 216 52 215
f 215 52 211
f 216 217 52
f 217 50 52
f 218 26 53
f 26 218 219
f 219 220 26
f 220 221 26
f 221 195 26
f 88 87 222
f 223 88 222
f 224 88 223
f 225 88 224
f 227 30 226
f 228 30 227
f 229 30 228
f 230 30 229
f 85 30 230
f 231 55 135
f 232 55 231
f 233 55 232
f 233 234 55
f 235 88 225
f 235 236 88
f 236 237 88
f 237 238 88
f 133 88 238
f 239 91 138
f 240 91 239
f 240 241 91
f 242 91 241
f 243 55 234
f 243 244 55
f 245 55 244
f 245 246 55
f 136 55 246
f 248 91 247
f 249 91 248
f 249 250 91
f 250 89 91
f 91 242 247
f 251 30 92
f 252 30 251
f 252 253 30
f 226 30 253
f 255 190 254
f 190 255 191
f 46 254 49
f 49 254 190
f 255 254 256
f 191 255 192
f 198 254 47
f 47 254 46
f 254 198 257
f 256 254 258
f 255 256 259
f 260 193 192
f 192 255 260
f 257 198 197
f 254 257 258
f 256 258 261
f 255 259 260
f 259 256 262
f 260 204 194
f 193 260 194
f 196 263 257
f 196 257 197
f 258 257 264
f 261 258 265
f 256 261 262
f 260 259 266
f 259 262 267
f 205 204 268
f 260 268 204
f 221 263 195
f 263 196 195
f 257 263 264
f 258 264 265
f 261 265 269
f 262 261 270
f 260 266 268
f 266 259 267
f 267 262 271
f 205 268 206
f 220 272 263
f 220 263 221
f 264 263 273
f 265 264 274
f 269 265 275
f 261 269 270
f 262 270 271
f 268 266 276
f 266 267 277
f 267 271 278
f 130 129 279
f 129 206 279
f 268 279 206
f 272 220 219
f 263 272 273
f 264 273 274
f 265 274 275
f 244 275 245
f 275 244 269
f 243 234 269
f 234 233 269
f 269 233 270
f 231 270 232
f 270 231 271
f 268 276 279
f 276 266 277
f 277 267 278
f 133 271 134
f 133 238 271
f 271 238 278
f 279 199 131
f 130 279 131
f 218 280 272
f 218 272 219
f 273 272 281
f 274 273 282
f 275 274 283
f 245 275 246
f 269 244 243
f 270 233 232
f 134 271 135
f 271 231 135
f 279 276 284
f 276 277 285
f 277 278 286
f 278 238 237
f 200 199 287
f 279 287 199
f 51 280 53
f 280 218 53
f 272 280 281
f 273 281 282
f 274 282 283
f 137 136 283
f 136 246 283
f 283 246 275
f 279 284 287
f 284 276 285
f 285 277 286
f 236 278 237
f 278 236 286
f 200 287 201
f 217 280 50
f 50 280 51
f 280 217 288
f 281 280 289
f 282 281 290
f 283 282 291
f 138 283 239
f 138 137 283
f 287 284 292
f 284 285 293
f 285 286 294
f 286 236 235
f 202 201 295
f 287 295 201
f 288 217 216
f 280 288 289
f 281 289 290
f 282 290 291
f 239 291 240
f 291 239 283
f 287 292 295
f 292 284 293
f 293 285 294
f 225 286 235
f 225 224 286
f 294 286 224
f 295 212 203
f 202 295 203
f 215 296 288
f 215 288 216
f 289 288 297
f 290 289 298
f 291 290 299
f 240 291 241
f 295 292 300
f 292 293 301
f 293 294 302
f 294 224 223
f 213 212 303
f 295 303 212
f 210 296 211
f 296 215 211
f 288 296 297
f 289 297 298
f 290 298 299
f 247 242 299
f 242 241 299
f 299 241 291
f 295 300 303
f 300 292 301
f 301 293 302
f 222 294 223
f 302 294 222
f 213 303 214
f 304 296 209
f 210 209 296
f 297 296 305
f 298 297 306
f 299 298 307
f 247 299 248
f 303 300 308
f 300 301 309
f 301 302 310
f 302 87 86
f 302 222 87
f 139 140 311
f 140 214 311
f 303 311 214
f 304 209 208
f 296 304 305
f 297 305 306
f 298 306 307
f 248 307 249
f 248 299 307
f 303 308 311
f 308 300 309
f 309 301 310
f 85 302 86
f 85 230 302
f 310 302 230
f 311 207 141
f 139 311 141
f 311 304 207
f 208 207 304
f 305 304 312
f 306 305 313
f 307 306 314
f 249 307 250
f 311 308 312
f 308 309 315
f 309 310 316
f 310 230 229
f 304 311 312
f 305 312 313
f 306 313 314
f 89 314 90
f 89 250 314
f 307 314 250
f 312 308 315
f 315 309 316
f 228 310 229
f 316 310 228
f 313 312 315
f 314 313 317
f 92 314 251
f 90 314 92
f 315 316 317
f 316 228 227
f 313 315 317
f 251 317 252
f 314 317 251
f 226 316 227
f 226 253 316
f 317 316 253
f 252 317 253
f 183 182 318
f 318 182 181
f 184 183 319
f 318 319 183
f 120 318 121
f 318 181 121
f 319 318 320
f 184 319 185
f 321 318 119
f 120 119 318
f 319 320 322
f 320 318 323
f 186 185 324
f 319 324 185
f 118 325 321
f 118 321 119
f 318 321 323
f 322 320 326
f 319 322 324
f 320 323 326
f 186 324 187
f 325 118 117
f 321 325 327
f 323 321 327
f 322 326 328
f 324 322 328
f 326 323 327
f 123 324 122
f 187 324 123
f 102 325 103
f 103 325 117
f 327 325 329
f 328 326 330
f 324 328 331
f 326 327 329
f 324 331 124
f 122 324 124
f 329 102 101
f 102 329 325
f 328 330 331
f 330 326 332
f 326 329 333
f 331 94 93
f 124 331 93
f 333 101 100
f 101 333 329
f 331 330 334
f 330 332 334
f 332 326 335
f 326 333 336
f 95 94 334
f 331 334 94
f 114 333 99
f 99 333 100
f 333 114 337
f 96 332 97
f 96 334 332
f 98 332 115
f 97 332 98
f 335 115 332
f 335 326 338
f 336 333 337
f 326 336 339
f 95 334 96
f 337 114 113
f 116 335 340
f 115 335 116
f 335 338 340
f 338 326 341
f 336 337 342
f 339 336 342
f 326 339 343
f 112 342 337
f 112 337 113
f 32 340 33
f 32 116 340
f 340 338 344
f 338 341 344
f 341 326 345
f 339 342 346
f 343 339 346
f 326 343 345
f 41 342 42
f 342 112 42
f 33 340 34
f 34 344 35
f 34 340 344
f 344 341 347
f 341 345 347
f 39 346 41
f 41 346 342
f 343 346 348
f 345 343 348
f 347 36 35
f 347 35 344
f 347 345 348
f 111 346 38
f 38 346 39
f 109 346 110
f 346 109 348
f 37 347 105
f 37 36 347
f 107 348 108
f 348 107 347
f 346 111 110
f 348 109 108
f 105 347 106
f 347 107 106
f 349 28 66
f 349 350 28
f 350 351 28
f 351 20 28
f 20 351 352
f 20 352 353
f 20 353 354
f 354 355 20
f 355 356 20
f 356 357 20
f 357 156 20
f 357 358 156
f 358 359 156
f 359 360 156
f 360 361 156
f 361 362 156
f 364 362 363
f 363 362 371
f 364 365 362
f 365 366 362
f 366 156 362
f 366 367 156
f 367 368 156
f 368 369 156
f 369 370 156
f 363 371 372
f 372 371 373
f 374 156 370
f 376 373 375
f 373 377 375
f 377 373 144
f 376 372 373
f 145 156 374
f 379 380 378
f 380 381 378
f 381 72 378
f 378 72 71
f 72 381 382
f 381 380 383
f 383 380 384
f 384 380 385
f 383 384 386
f 381 383 387
f 387 383 388
f 388 383 389
f 387 388 390
f 381 387 391
f 391 387 392
f 381 391 393
f 75 395 394
f 77 75 394
f 395 75 76
f 394 395 396
f 77 394 74
f 397 395 69
f 76 69 395
f 394 396 398
f 396 395 399
f 80 74 400
f 394 400 74
f 397 69 68
f 395 397 399
f 398 396 401
f 394 398 400
f 396 399 402
f 80 400 79
f 403 397 67
f 68 67 397
f 399 397 404
f 401 396 402
f 398 401 405
f 400 398 406
f 402 399 407
f 81 79 408
f 400 408 79
f 382 403 72
f 403 67 72
f 397 403 404
f 399 404 407
f 401 402 409
f 405 401 410
f 398 405 406
f 400 406 408
f 402 407 411
f 81 408 78
f 412 403 381
f 382 381 403
f 404 403 413
f 407 404 414
f 409 402 411
f 401 409 410
f 405 410 415
f 406 405 416
f 408 406 417
f 411 407 418
f 83 78 419
f 408 419 78
f 412 381 393
f 403 412 413
f 404 413 414
f 407 414 418
f 61 411 62
f 411 61 409
f 59 409 60
f 409 59 410
f 405 415 416
f 57 410 58
f 57 415 410
f 415 57 180
f 406 416 417
f 408 417 419
f 63 418 64
f 418 63 411
f 83 419 82
f 420 412 391
f 391 412 393
f 413 412 421
f 414 413 422
f 418 414 423
f 409 61 60
f 62 411 63
f 410 59 58
f 416 415 424
f 415 180 179
f 417 416 425
f 419 417 426
f 64 418 65
f 84 82 427
f 419 427 82
f 420 391 392
f 412 420 421
f 413 421 422
f 414 422 423
f 66 423 349
f 423 66 65
f 423 65 418
f 416 424 425
f 178 415 179
f 415 178 424
f 417 425 426
f 419 426 427
f 84 427 70
f 428 420 387
f 387 420 392
f 421 420 429
f 422 421 430
f 423 422 431
f 349 423 350
f 425 424 432
f 424 178 177
f 426 425 433
f 427 426 434
f 73 70 435
f 70 427 435
f 428 387 390
f 420 428 429
f 421 429 430
f 422 430 431
f 350 431 351
f 431 350 423
f 425 432 433
f 176 424 177
f 424 176 432
f 426 433 434
f 427 434 435
f 71 435 378
f 435 71 73
f 436 428 388
f 388 428 390
f 429 428 437
f 430 429 438
f 431 430 439
f 351 431 352
f 433 432 440
f 432 176 175
f 434 433 441
f 435 434 442
f 379 378 443
f 378 435 443
f 436 388 389
f 428 436 437
f 429 437 438
f 430 438 439
f 439 353 352
f 352 431 439
f 433 440 441
f 432 175 143
f 143 440 432
f 434 441 442
f 435 442 443
f 379 443 380
f 444 436 383
f 383 436 389
f 437 436 445
f 438 437 446
f 439 438 447
f 353 439 354
f 441 440 448
f 440 143 142
f 442 441 449
f 443 442 450
f 385 380 451
f 380 443 451
f 444 383 386
f 436 444 445
f 437 445 446
f 438 446 447
f 447 355 354
f 354 439 447
f 441 448 449
f 440 142 144
f 144 448 440
f 373 448 144
f 442 449 450
f 443 450 451
f 385 451 384
f 451 444 384
f 384 444 386
f 445 444 452
f 446 445 453
f 447 446 454
f 355 447 356
f 449 448 455
f 448 373 371
f 450 449 456
f 451 450 452
f 444 451 452
f 445 452 453
f 446 453 454
f 454 357 356
f 356 447 454
f 449 455 456
f 448 371 362
f 362 455 448
f 450 456 452
f 453 452 456
f 454 453 457
f 357 454 358
f 456 455 457
f 455 362 361
f 453 456 457
f 457 359 358
f 358 454 457
f 455 361 360
f 360 457 455
f 359 457 360
f 458 155 154
f 458 459 155
f 459 460 155
f 460 128 155
f 128 460 461
f 128 461 462
f 128 462 463
f 463 464 128
f 464 465 128
f 465 466 128
f 466 144 128
f 466 467 144
f 467 468 144
f 468 469 144
f 469 470 144
f 470 471 144
f 471 472 144
f 472 473 144
f 473 377 144
f 475 476 474
f 476 488 474
f 488 174 474
f 474 174 173
f 174 488 489
f 488 476 480
f 480 476 478
f 478 476 477
f 480 478 479
f 488 480 484
f 484 480 482
f 482 480 481
f 484 482 483
f 488 484 486
f 486 484 485
f 488 486 487
f 490 174 489
f 174 490 157
f 491 490 488
f 488 490 489
f 158 157 492
f 157 490 492
f 491 488 487
f 490 491 493
f 492 490 494
f 158 492 159
f 495 491 486
f 487 486 491
f 490 493 494
f 493 491 496
f 492 494 497
f 160 159 498
f 159 492 498
f 495 486 485
f 491 495 496
f 494 493 499
f 493 496 500
f 497 494 501
f 492 497 498
f 160 498 161
f 502 495 484
f 485 484 495
f 496 495 503
f 499 493 500
f 494 499 501
f 500 496 504
f 497 501 505
f 498 497 506
f 162 161 507
f 161 498 507
f 502 484 483
f 495 502 503
f 496 503 504
f 499 500 508
f 501 499 509
f 500 504 510
f 505 501 511
f 497 505 506
f 498 506 507
f 162 507 163
f 512 502 482
f 483 482 502
f 503 502 513
f 504 503 514
f 508 500 510
f 499 508 509
f 501 509 511
f 510 504 515
f 505 511 516
f 506 505 517
f 507 506 518
f 164 163 519
f 163 507 519
f 512 482 481
f 502 512 513
f 503 513 514
f 504 514 515
f 510 460 459
f 459 508 510
f 508 458 154
f 154 153 508
f 509 508 153
f 509 152 151
f 151 511 509
f 461 515 462
f 515 461 510
f 505 516 517
f 511 150 149
f 149 516 511
f 506 517 518
f 507 518 519
f 164 519 165
f 520 512 480
f 481 480 512
f 513 512 521
f 514 513 522
f 515 514 523
f 508 459 458
f 460 510 461
f 509 153 152
f 511 151 150
f 462 515 463
f 517 516 524
f 516 149 148
f 518 517 525
f 519 518 526
f 166 165 527
f 165 519 527
f 520 480 479
f 512 520 521
f 513 521 522
f 514 522 523
f 463 523 464
f 523 463 515
f 517 524 525
f 516 148 147
f 147 524 516
f 518 525 526
f 519 526 527
f 166 527 167
f 528 520 478
f 479 478 520
f 521 520 529
f 522 521 530
f 523 522 531
f 464 523 465
f 525 524 532
f 524 147 146
f 526 525 533
f 527 526 534
f 168 167 535
f 167 527 535
f 528 478 477
f 520 528 529
f 521 529 530
f 522 530 531
f 465 531 466
f 531 465 523
f 525 532 533
f 524 146 145
f 145 532 524
f 374 532 145
f 374 370 532
f 369 532 370
f 526 533 534
f 527 534 535
f 168 535 169
f 536 528 476
f 477 476 528
f 529 528 537
f 530 529 538
f 531 530 539
f 466 531 467
f 533 532 540
f 532 369 368
f 534 533 541
f 535 534 542
f 170 169 543
f 169 535 543
f 536 476 475
f 528 536 537
f 529 537 538
f 530 538 539
f 467 539 468
f 539 467 531
f 533 540 541
f 532 368 367
f 367 540 532
f 534 541 542
f 535 542 543
f 170 543 171
f 544 536 474
f 475 474 536
f 537 536 545
f 538 537 546
f 539 538 547
f 468 539 469
f 541 540 548
f 540 367 366
f 542 541 549
f 543 542 550
f 172 171 544
f 543 544 171
f 172 544 173
f 474 173 544
f 536 544 545
f 537 545 546
f 538 546 547
f 469 547 470
f 547 469 539
f 541 548 549
f 540 366 365
f 365 548 540
f 542 549 550
f 543 550 544
f 545 544 550
f 546 545 551
f 547 546 552
f 470 547 471
f 549 548 553
f 548 365 364
f 550 549 551
f 545 550 551
f 546 551 552
f 471 552 472
f 552 471 547
f 549 553 551
f 363 548 364
f 363 372 548
f 372 553 548
f 553 372 376
f 552 551 553
f 472 552 473
f 553 376 375
f 377 553 375
f 377 552 553
f 552 377 473
